<?xml version="1.0" encoding="UTF-8"?>
<svg id="Camada_2" data-name="Camada 2" xmlns="http://www.w3.org/2000/svg" viewBox="0 0 1530.71 2508.66">
  <defs>
    <style>
      .cls-1 {
        fill: #d40022;
      }

      .cls-2 {
        fill: none;
        stroke: #000;
        stroke-miterlimit: 10;
      }
    </style>
  </defs>
  <g id="Camada_1-2" data-name="Camada 1">
    <circle class="cls-1" cx="1523.62" cy="7.09" r="7.09"/>
    <circle class="cls-1" cx="7.09" cy="7.09" r="7.09"/>
    <path d="M12.52,2328.86v-5h-.82v-.8h.82v-.28c0-.82.18-1.56.67-2.03.4-.38.92-.54,1.42-.54.37,0,.7.08.9.17l-.14.82c-.16-.07-.37-.13-.67-.13-.9,0-1.13.79-1.13,1.68v.31h1.4v.8h-1.4v5h-1.04Z"/>
    <path d="M14.07,232.25l-.08-.73h-.04c-.32.46-.95.86-1.77.86-1.18,0-1.77-.83-1.77-1.67,0-1.4,1.25-2.17,3.49-2.16v-.12c0-.48-.13-1.34-1.32-1.34-.54,0-1.1.17-1.51.43l-.24-.7c.48-.31,1.18-.52,1.91-.52,1.77,0,2.21,1.21,2.21,2.37v2.17c0,.5.02,1,.1,1.39h-.96ZM13.91,229.29c-1.15-.02-2.46.18-2.46,1.31,0,.68.46,1.01,1,1.01.76,0,1.24-.48,1.4-.97.04-.11.06-.23.06-.34v-1.01Z"/>
    <path d="M12.25,638.79c.02-.4.05-.98.05-1.5v-7.02h1.04v3.65h.02c.37-.65,1.04-1.07,1.98-1.07,1.44,0,2.46,1.2,2.45,2.96,0,2.07-1.31,3.11-2.6,3.11-.84,0-1.51-.32-1.94-1.09h-.04l-.05.96h-.91ZM13.35,636.47c0,.13.02.26.05.38.2.73.82,1.24,1.58,1.24,1.1,0,1.76-.9,1.76-2.23,0-1.16-.6-2.16-1.73-2.16-.72,0-1.39.49-1.61,1.3-.02.12-.06.26-.06.43v1.04Z"/>
    <path d="M16.18,1034.22c-.28.14-.89.34-1.67.34-1.75,0-2.89-1.19-2.89-2.96s1.22-3.08,3.12-3.08c.62,0,1.18.16,1.46.3l-.24.82c-.25-.14-.65-.28-1.22-.28-1.33,0-2.05.98-2.05,2.19,0,1.34.86,2.17,2.02,2.17.6,0,1-.16,1.3-.29l.18.79Z"/>
    <path d="M14.31,1424.15v7.02c0,.52.01,1.1.05,1.5h-.95l-.05-1.01h-.02c-.32.65-1.03,1.14-1.98,1.14-1.4,0-2.48-1.19-2.48-2.95-.01-1.93,1.19-3.12,2.6-3.12.89,0,1.49.42,1.75.89h.02v-3.47h1.06ZM13.26,1429.22c0-.13-.01-.31-.05-.44-.16-.67-.73-1.22-1.52-1.22-1.09,0-1.74.96-1.74,2.24,0,1.18.58,2.15,1.72,2.15.71,0,1.35-.47,1.55-1.26.04-.14.05-.29.05-.46v-1.01Z"/>
    <path d="M12.05,1792.07c.02,1.43.94,2.01,1.99,2.01.76,0,1.21-.13,1.61-.3l.18.76c-.37.17-1.01.36-1.93.36-1.79,0-2.85-1.18-2.85-2.93s1.03-3.13,2.72-3.13c1.9,0,2.4,1.67,2.4,2.73,0,.22-.02.38-.04.49h-4.08ZM15.14,1791.32c.01-.67-.28-1.71-1.46-1.71-1.07,0-1.54.98-1.62,1.71h3.08Z"/>
    <path d="M12.52,2328.86v-5h-.82v-.8h.82v-.28c0-.82.18-1.56.67-2.03.4-.38.92-.54,1.42-.54.37,0,.7.08.9.17l-.14.82c-.16-.07-.37-.13-.67-.13-.9,0-1.13.79-1.13,1.68v.31h1.4v.8h-1.4v5h-1.04Z"/>
    <g>
      <rect class="cls-2" x="1191.56" y="125.09" width="368.5" height="255.12" transform="translate(1123.17 1628.46) rotate(-90)"/>
      <rect class="cls-2" x="886.33" y="125.09" width="368.5" height="255.12" transform="translate(817.94 1323.23) rotate(-90)"/>
      <rect class="cls-2" x="581.1" y="125.09" width="368.5" height="255.12" transform="translate(512.71 1018) rotate(-90)"/>
      <rect class="cls-2" x="275.87" y="125.09" width="368.5" height="255.12" transform="translate(207.48 712.77) rotate(-90)"/>
      <rect class="cls-2" x="-29.36" y="125.09" width="368.5" height="255.12" transform="translate(-97.75 407.54) rotate(-90)"/>
    </g>
    <g>
      <rect class="cls-2" x="1191.56" y="535.84" width="368.5" height="255.12" transform="translate(712.42 2039.21) rotate(-90)"/>
      <rect class="cls-2" x="886.33" y="535.84" width="368.5" height="255.12" transform="translate(407.19 1733.98) rotate(-90)"/>
      <rect class="cls-2" x="581.1" y="535.84" width="368.5" height="255.12" transform="translate(101.96 1428.75) rotate(-90)"/>
      <rect class="cls-2" x="275.87" y="535.84" width="368.5" height="255.12" transform="translate(-203.27 1123.52) rotate(-90)"/>
      <rect class="cls-2" x="-29.36" y="535.84" width="368.5" height="255.12" transform="translate(-508.5 818.29) rotate(-90)"/>
    </g>
    <g>
      <rect class="cls-2" x="1191.56" y="934.53" width="368.5" height="255.12" transform="translate(313.72 2437.91) rotate(-90)"/>
      <rect class="cls-2" x="886.33" y="934.53" width="368.5" height="255.12" transform="translate(8.49 2132.68) rotate(-90)"/>
      <rect class="cls-2" x="581.1" y="934.53" width="368.5" height="255.12" transform="translate(-296.74 1827.45) rotate(-90)"/>
      <rect class="cls-2" x="275.87" y="934.53" width="368.5" height="255.12" transform="translate(-601.97 1522.22) rotate(-90)"/>
      <rect class="cls-2" x="-29.36" y="934.53" width="368.5" height="255.12" transform="translate(-907.2 1216.99) rotate(-90)"/>
    </g>
    <g>
      <rect class="cls-2" x="1191.56" y="1345.28" width="368.5" height="255.12" transform="translate(-97.03 2848.66) rotate(-90)"/>
      <rect class="cls-2" x="886.33" y="1345.28" width="368.5" height="255.12" transform="translate(-402.26 2543.43) rotate(-90)"/>
      <rect class="cls-2" x="581.1" y="1345.28" width="368.5" height="255.12" transform="translate(-707.49 2238.2) rotate(-90)"/>
      <rect class="cls-2" x="275.87" y="1345.28" width="368.5" height="255.12" transform="translate(-1012.72 1932.97) rotate(-90)"/>
      <rect class="cls-2" x="-29.36" y="1345.28" width="368.5" height="255.12" transform="translate(-1317.95 1627.74) rotate(-90)"/>
    </g>
    <g>
      <rect class="cls-2" x="1191.56" y="1756.04" width="368.5" height="255.12" transform="translate(-507.78 3259.41) rotate(-90)"/>
      <rect class="cls-2" x="886.33" y="1756.04" width="368.5" height="255.12" transform="translate(-813.01 2954.18) rotate(-90)"/>
      <rect class="cls-2" x="581.1" y="1756.04" width="368.5" height="255.12" transform="translate(-1118.24 2648.95) rotate(-90)"/>
      <rect class="cls-2" x="275.87" y="1756.04" width="368.5" height="255.12" transform="translate(-1423.47 2343.72) rotate(-90)"/>
      <rect class="cls-2" x="-29.36" y="1756.04" width="368.5" height="255.12" transform="translate(-1728.7 2038.49) rotate(-90)"/>
    </g>
    <g>
      <rect class="cls-2" x="1191.56" y="2166.79" width="368.5" height="255.12" transform="translate(-918.53 3670.16) rotate(-90)"/>
      <rect class="cls-2" x="886.33" y="2166.79" width="368.5" height="255.12" transform="translate(-1223.76 3364.93) rotate(-90)"/>
      <rect class="cls-2" x="581.1" y="2166.79" width="368.5" height="255.12" transform="translate(-1528.99 3059.7) rotate(-90)"/>
      <rect class="cls-2" x="275.87" y="2166.79" width="368.5" height="255.12" transform="translate(-1834.22 2754.47) rotate(-90)"/>
      <rect class="cls-2" x="-29.36" y="2166.79" width="368.5" height="255.12" transform="translate(-2139.45 2449.24) rotate(-90)"/>
    </g>
    <path d="M155.17,42.35h-.02l-1.36.73-.2-.8,1.7-.91h.9v7.8h-1.02v-6.81Z"/>
    <path d="M465.45,49.23v-.65l.83-.8c1.99-1.9,2.89-2.9,2.9-4.08,0-.79-.38-1.52-1.55-1.52-.71,0-1.3.36-1.66.66l-.34-.74c.54-.46,1.31-.79,2.21-.79,1.68,0,2.39,1.15,2.39,2.27,0,1.44-1.04,2.6-2.69,4.19l-.62.58v.02h3.5v.88h-4.98Z"/>
    <path d="M763.21,45c.3.19,1,.49,1.73.49,1.36,0,1.78-.86,1.76-1.51-.01-1.09-1-1.56-2.01-1.56h-.59v-.79h.59c.77,0,1.74-.4,1.74-1.32,0-.62-.4-1.18-1.37-1.18-.62,0-1.22.28-1.56.52l-.28-.77c.41-.3,1.2-.6,2.04-.6,1.54,0,2.23.91,2.23,1.86,0,.8-.48,1.49-1.44,1.83v.02c.96.19,1.74.91,1.74,2,0,1.25-.97,2.34-2.84,2.34-.88,0-1.64-.28-2.03-.53l.29-.82Z"/>
    <path d="M1071.35,49.23v-2.12h-3.62v-.7l3.48-4.98h1.14v4.85h1.09v.83h-1.09v2.12h-1ZM1071.35,46.28v-2.6c0-.41.01-.82.04-1.22h-.04c-.24.46-.43.79-.65,1.15l-1.91,2.65v.02h2.55Z"/>
    <path d="M1378.07,43.27h-2.97l-.3,2c.18-.02.35-.05.64-.05.6,0,1.2.13,1.68.42.61.35,1.12,1.02,1.12,2,0,1.52-1.21,2.66-2.9,2.66-.85,0-1.57-.24-1.94-.48l.26-.8c.32.19.96.43,1.67.43,1,0,1.85-.65,1.85-1.69-.01-1.01-.68-1.73-2.24-1.73-.44,0-.79.05-1.08.08l.5-3.74h3.73v.89Z"/>
    <circle class="cls-1" cx="1523.62" cy="7.09" r="7.09"/>
    <circle class="cls-1" cx="7.09" cy="7.09" r="7.09"/>
    <g>
      <circle class="cls-1" cx="1523.62" cy="2501.57" r="7.09"/>
      <circle class="cls-1" cx="7.09" cy="2501.57" r="7.09"/>
    </g>
  </g>
</svg>