<?xml version="1.0" encoding="UTF-8"?>
<svg id="Camada_1" xmlns="http://www.w3.org/2000/svg" width="15.4" height="109.7" version="1.1" viewBox="0 0 15.4 109.7">
  <!-- Generator: Adobe Illustrator 29.3.0, SVG Export Plug-In . SVG Version: 2.1.0 Build 146)  -->
  <defs>
    <style>
      .st0 {
        fill: none;
        stroke: #00b0f0;
        stroke-miterlimit: 22.9;
      }
    </style>
  </defs>
  <g id="g19">
    <polygon id="polygon1" class="st0" points="4.1 9.2 3.4 6.4 4.1 3.6 6.2 1.4 9 .6 11.9 1.4 14.1 3.6 14.8 6.4 14.4 8.4 13.6 10.2 11.8 11.1 10.2 11.6 7.7 10.9 6.2 9.2 5.7 7.9 6.2 7.2 6.6 7 6.2 6.4 5.8 5.6 6.6 3.6 8.5 2.9 10.7 3.6 11.7 4.7 11.9 6.1 11.7 7.2 10.7 8.1 11.8 8.1 11.8 9 7 8.1 6.8 8.1 6.5 8.1 6.3 8.4 6.9 9.6 8.3 10.7 9.9 11.1 11.6 10.7 13.1 9.6 13.9 8.1 14.1 6.4 13.6 3.6 11.7 1.9 9 1.4 6.5 1.9 4.8 3.6 4 6.4 4.6 8.2 5.7 10.4 5.7 10.9 4.1 9.2"/>
    <polygon id="polygon2" class="st0" points="8 7.2 9.6 7.8 10.7 7.2 11.1 6.1 10.5 4.7 8.7 4 7.3 4.5 6.8 5.8 6.9 6.8 8 7.2"/>
    <polygon id="polygon3" class="st0" points="8 14.8 5.9 14.8 4.8 15.7 4.4 17.1 4.8 18.5 5.8 19.4 8 19.5 11.5 19.5 11.5 20.5 7.6 20.5 5.1 20.2 3.9 19.2 3.4 17.1 3.9 15.1 5.1 13.9 7.6 13.7 11.5 13.7 11.5 14.8 8 14.8"/>
    <polygon id="polygon4" class="st0" points="10.2 23.8 11.2 25.3 11.7 26.9 11.2 28.4 10.2 29.4 7.6 29.7 3.5 29.7 3.5 28.8 7.3 28.8 9.2 28.7 10.5 28 10.7 26.7 10.2 24.9 8.7 24 6.5 23.8 3.5 23.8 3.5 22.8 11.5 22.8 11.5 23.8 10.2 23.8"/>
    <polygon id="polygon5" class="st0" points="13.9 33.3 13.4 33 13.1 32.5 13.4 31.6 13.9 31.6 14.6 31.6 14.7 32.5 14.6 33 13.9 33.3"/>
    <rect id="rect5" class="st0" x="3.5" y="31.8" width="8" height="1.1"/>
    <polygon id="polygon6" class="st0" points=".6 41.9 4.9 41.9 3.8 40.5 3.4 38.7 3.7 37.3 4.6 35.9 5.9 35.1 7.5 34.8 9.2 35.1 10.5 35.9 11.3 37.3 11.7 38.7 11.2 40.7 10.2 41.9 11.5 41.9 11.5 43 .6 43 .6 41.9"/>
    <polygon id="polygon7" class="st0" points="9 36.2 7.5 35.7 5.9 36.2 4.8 37.3 4.3 38.7 4.8 40.5 5.9 41.8 7.3 41.9 9.8 41.1 10.7 38.7 10.2 37.3 9 36.2"/>
    <polygon id="polygon8" class="st0" points="8 46.3 5.9 46.4 4.8 47.2 4.4 48.6 4.8 50 5.8 50.9 8 51 11.5 51 11.5 52.1 7.6 52.1 5.1 51.8 3.9 50.4 3.4 48.6 3.9 46.7 5.1 45.5 7.6 45.2 11.5 45.2 11.5 46.3 8 46.3"/>
    <polygon id="polygon9" class="st0" points="4.6 61 3.7 59.8 3.4 58.1 3.7 56.4 4.6 55.2 7.5 54.1 10.2 55 11.3 56.4 11.7 58.1 11.3 59.8 10.2 61.4 7.3 62.3 7.3 55 5.1 55.9 4.3 58.1 4.6 59.3 5.1 60.3 6.2 61.2 5.7 62.1 4.6 61"/>
    <polygon id="polygon10" class="st0" points="10.5 59.6 10.7 58.1 10.2 56.1 8.3 55.3 8.3 61.2 9.6 60.6 10.5 59.6"/>
    <polygon id="polygon11" class="st0" points="8.3 65.2 11.5 68.8 11.5 70.3 7.7 66 3.5 70.5 3.5 69.1 7.1 65.2 3.5 65.2 3.5 64.2 14.6 64.2 14.6 65.2 8.3 65.2"/>
    <polygon id="polygon12" class="st0" points="13.9 73 13.4 72.5 13.1 72 13.4 71.3 13.9 71.2 14.6 71.3 14.7 72 14.6 72.5 13.9 73"/>
    <rect id="rect12" class="st0" x="3.5" y="71.5" width="8" height="1"/>
    <polygon id="polygon13" class="st0" points="3.5 81.6 4.9 81.6 3.8 80.2 3.4 78.4 3.7 76.8 4.6 75.6 5.9 74.7 7.5 74.4 9.2 74.7 10.5 75.6 11.3 76.8 11.7 78.4 11.2 80.2 10.2 81.6 14.6 81.6 14.6 82.5 3.5 82.5 3.5 81.6"/>
    <polygon id="polygon14" class="st0" points="9 75.9 7.5 75.2 5.9 75.9 4.8 76.8 4.3 78.4 4.8 80.1 5.9 81.2 7.3 81.6 9.8 80.9 10.7 78.6 10.2 76.8 9 75.9"/>
    <polygon id="polygon15" class="st0" points="10.7 86.8 10.5 85.8 9.6 85.5 9 85.7 8.1 86.9 6.9 88.5 5.7 89 4.1 88.3 3.4 86.5 3.7 85.1 4.6 84.3 5.1 84.8 4.4 86.5 4.8 87.6 5.6 88 6.5 87.6 7.3 86.5 8.5 84.8 9.6 84.6 11.1 85.1 11.7 86.8 10.7 89 9.9 88.3 10.7 86.8"/>
    <polygon id="polygon16" class="st0" points="4.3 92.7 3.7 92.6 3.4 91.9 3.7 91.4 4.3 91 4.9 91.4 5.1 91.9 4.9 92.6 4.3 92.7"/>
    <polygon id="polygon17" class="st0" points="14.6 96 10.2 96 11.2 97.5 11.7 99.2 11.3 100.9 10.5 102 9.2 102.9 7.5 103.3 5.9 102.9 4.6 102 3.7 100.7 3.4 99.2 3.8 97.4 5.1 96 3.5 96 3.5 94.8 14.6 94.8 14.6 96"/>
    <polygon id="polygon18" class="st0" points="6 101.7 7.5 102.3 9.2 101.7 10.5 100.7 10.7 99.2 10.5 97.5 9.2 96.3 7.6 96 5.1 96.8 4.4 99.2 4.8 100.7 6 101.7"/>
    <polygon id="polygon19" class="st0" points="10.5 105.8 11.3 106.9 11.7 107.8 11.3 108.8 10.5 108.2 10.7 107.8 10.2 106.9 9 106 6.2 105.8 3.5 105.8 3.5 104.8 11.5 104.8 11.5 105.8 10.5 105.8"/>
  </g>
</svg>