<?xml version="1.0" encoding="UTF-8"?>
<svg id="Camada_1" xmlns="http://www.w3.org/2000/svg" width="90cm" height="54cm" version="1.1" viewBox="0 0 2551.2 1530.7">
  <!-- Generator: Adobe Illustrator 29.3.0, SVG Export Plug-In . SVG Version: 2.1.0 Build 146)  -->
  <defs>
    <style>
      .st0 {
        stroke: blue;
        stroke-width: .6px;
      }

      .st0, .st1 {
        fill: none;
        stroke-miterlimit: 22.9;
      }

      .st1 {
        stroke: #00b0f0;
      }
    </style>
  </defs>
  <rect class="st0" x="1275.6" y="529.5" width="1200" height="447.6" rx="17.4" ry="17.4"/>
  <rect class="st0" x="1275.6" y="81.9" width="1200" height="447.6" rx="17.4" ry="17.4"/>
  <rect class="st0" x="75.6" y="529.5" width="1200" height="447.6" rx="17.4" ry="17.4"/>
  <g id="g19">
    <polygon id="polygon1" class="st1" points="2451.7 707.8 2451 705 2451.7 702.2 2453.8 700 2456.6 699.2 2459.5 700 2461.7 702.2 2462.4 705 2462 707 2461.2 708.8 2459.4 709.7 2457.8 710.2 2455.3 709.5 2453.8 707.8 2453.3 706.5 2453.8 705.8 2454.2 705.6 2453.8 705 2453.4 704.2 2454.2 702.2 2456.1 701.5 2458.3 702.2 2459.3 703.3 2459.5 704.7 2459.3 705.8 2458.3 706.7 2459.4 706.7 2459.4 707.6 2454.6 706.7 2454.4 706.7 2454.1 706.7 2453.9 707 2454.5 708.2 2455.9 709.3 2457.5 709.7 2459.2 709.3 2460.7 708.2 2461.5 706.7 2461.7 705 2461.2 702.2 2459.3 700.5 2456.6 700 2454.1 700.5 2452.4 702.2 2451.6 705 2452.2 706.8 2453.3 709 2453.3 709.5 2451.7 707.8"/>
    <polygon id="polygon2" class="st1" points="2455.6 705.8 2457.2 706.4 2458.3 705.8 2458.7 704.7 2458.1 703.3 2456.3 702.6 2454.9 703.1 2454.4 704.4 2454.5 705.4 2455.6 705.8"/>
    <polygon id="polygon3" class="st1" points="2455.6 713.4 2453.5 713.4 2452.4 714.3 2452 715.7 2452.4 717.1 2453.4 718 2455.6 718.1 2459.1 718.1 2459.1 719.1 2455.2 719.1 2452.7 718.8 2451.5 717.8 2451 715.7 2451.5 713.7 2452.7 712.5 2455.2 712.3 2459.1 712.3 2459.1 713.4 2455.6 713.4"/>
    <polygon id="polygon4" class="st1" points="2457.8 722.4 2458.8 723.9 2459.3 725.5 2458.8 727 2457.8 728 2455.2 728.3 2451.1 728.3 2451.1 727.4 2454.9 727.4 2456.8 727.3 2458.1 726.6 2458.3 725.3 2457.8 723.5 2456.3 722.6 2454.1 722.4 2451.1 722.4 2451.1 721.4 2459.1 721.4 2459.1 722.4 2457.8 722.4"/>
    <polygon id="polygon5" class="st1" points="2461.5 731.9 2461 731.6 2460.7 731.1 2461 730.2 2461.5 730.2 2462.2 730.2 2462.3 731.1 2462.2 731.6 2461.5 731.9"/>
    <rect id="rect5" class="st1" x="2451.1" y="730.4" width="8" height="1.1"/>
    <polygon id="polygon6" class="st1" points="2448.2 740.5 2452.5 740.5 2451.4 739.1 2451 737.3 2451.3 735.9 2452.2 734.5 2453.5 733.7 2455.1 733.4 2456.8 733.7 2458.1 734.5 2458.9 735.9 2459.3 737.3 2458.8 739.3 2457.8 740.5 2459.1 740.5 2459.1 741.6 2448.2 741.6 2448.2 740.5"/>
    <polygon id="polygon7" class="st1" points="2456.6 734.8 2455.1 734.3 2453.5 734.8 2452.4 735.9 2451.9 737.3 2452.4 739.1 2453.5 740.4 2454.9 740.5 2457.4 739.7 2458.3 737.3 2457.8 735.9 2456.6 734.8"/>
    <polygon id="polygon8" class="st1" points="2455.6 744.9 2453.5 745 2452.4 745.8 2452 747.2 2452.4 748.6 2453.4 749.5 2455.6 749.6 2459.1 749.6 2459.1 750.7 2455.2 750.7 2452.7 750.4 2451.5 749 2451 747.2 2451.5 745.3 2452.7 744.1 2455.2 743.8 2459.1 743.8 2459.1 744.9 2455.6 744.9"/>
    <polygon id="polygon9" class="st1" points="2452.2 759.6 2451.3 758.4 2451 756.7 2451.3 755 2452.2 753.8 2455.1 752.7 2457.8 753.6 2458.9 755 2459.3 756.7 2458.9 758.4 2457.8 760 2454.9 760.9 2454.9 753.6 2452.7 754.5 2451.9 756.7 2452.2 757.9 2452.7 758.9 2453.8 759.8 2453.3 760.7 2452.2 759.6"/>
    <polygon id="polygon10" class="st1" points="2458.1 758.2 2458.3 756.7 2457.8 754.7 2455.9 753.9 2455.9 759.8 2457.2 759.2 2458.1 758.2"/>
    <polygon id="polygon11" class="st1" points="2455.9 763.8 2459.1 767.4 2459.1 768.9 2455.3 764.6 2451.1 769.1 2451.1 767.7 2454.7 763.8 2451.1 763.8 2451.1 762.8 2462.2 762.8 2462.2 763.8 2455.9 763.8"/>
    <polygon id="polygon12" class="st1" points="2461.5 771.6 2461 771.1 2460.7 770.6 2461 769.9 2461.5 769.8 2462.2 769.9 2462.3 770.6 2462.2 771.1 2461.5 771.6"/>
    <rect id="rect12" class="st1" x="2451.1" y="770.1" width="8" height="1"/>
    <polygon id="polygon13" class="st1" points="2451.1 780.2 2452.5 780.2 2451.4 778.8 2451 777 2451.3 775.4 2452.2 774.2 2453.5 773.3 2455.1 773 2456.8 773.3 2458.1 774.2 2458.9 775.4 2459.3 777 2458.8 778.8 2457.8 780.2 2462.2 780.2 2462.2 781.1 2451.1 781.1 2451.1 780.2"/>
    <polygon id="polygon14" class="st1" points="2456.6 774.5 2455.1 773.8 2453.5 774.5 2452.4 775.4 2451.9 777 2452.4 778.7 2453.5 779.8 2454.9 780.2 2457.4 779.5 2458.3 777.2 2457.8 775.4 2456.6 774.5"/>
    <polygon id="polygon15" class="st1" points="2458.3 785.4 2458.1 784.4 2457.2 784.1 2456.6 784.3 2455.7 785.5 2454.5 787.1 2453.3 787.6 2451.7 786.9 2451 785.1 2451.3 783.7 2452.2 782.9 2452.7 783.4 2452 785.1 2452.4 786.2 2453.2 786.6 2454.1 786.2 2454.9 785.1 2456.1 783.4 2457.2 783.2 2458.7 783.7 2459.3 785.4 2458.3 787.6 2457.5 786.9 2458.3 785.4"/>
    <polygon id="polygon16" class="st1" points="2451.9 791.3 2451.3 791.2 2451 790.5 2451.3 790 2451.9 789.6 2452.5 790 2452.7 790.5 2452.5 791.2 2451.9 791.3"/>
    <polygon id="polygon17" class="st1" points="2462.2 794.6 2457.8 794.6 2458.8 796.1 2459.3 797.8 2458.9 799.5 2458.1 800.6 2456.8 801.5 2455.1 801.9 2453.5 801.5 2452.2 800.6 2451.3 799.3 2451 797.8 2451.4 796 2452.7 794.6 2451.1 794.6 2451.1 793.4 2462.2 793.4 2462.2 794.6"/>
    <polygon id="polygon18" class="st1" points="2453.6 800.3 2455.1 800.9 2456.8 800.3 2458.1 799.3 2458.3 797.8 2458.1 796.1 2456.8 794.9 2455.2 794.6 2452.7 795.4 2452 797.8 2452.4 799.3 2453.6 800.3"/>
    <polygon id="polygon19" class="st1" points="2458.1 804.4 2458.9 805.5 2459.3 806.4 2458.9 807.4 2458.1 806.8 2458.3 806.4 2457.8 805.5 2456.6 804.6 2453.8 804.4 2451.1 804.4 2451.1 803.4 2459.1 803.4 2459.1 804.4 2458.1 804.4"/>
  </g>
  <rect class="st0" x="75.6" y="977.1" width="1200" height="447.6" rx="17.4" ry="17.4"/>
  <g id="g191">
    <polygon id="polygon111" data-name="polygon11" class="st1" points="1251.7 1155.4 1251 1152.6 1251.7 1149.8 1253.8 1147.6 1256.6 1146.8 1259.5 1147.6 1261.7 1149.8 1262.4 1152.6 1262 1154.6 1261.2 1156.4 1259.4 1157.3 1257.8 1157.8 1255.3 1157.1 1253.8 1155.4 1253.3 1154.1 1253.8 1153.4 1254.2 1153.2 1253.8 1152.6 1253.4 1151.8 1254.2 1149.8 1256.1 1149.1 1258.3 1149.8 1259.3 1150.9 1259.5 1152.3 1259.3 1153.4 1258.3 1154.3 1259.4 1154.3 1259.4 1155.2 1254.6 1154.3 1254.4 1154.3 1254.1 1154.3 1253.9 1154.6 1254.5 1155.8 1255.9 1156.9 1257.5 1157.3 1259.2 1156.9 1260.7 1155.8 1261.5 1154.3 1261.7 1152.6 1261.2 1149.8 1259.3 1148.1 1256.6 1147.6 1254.1 1148.1 1252.4 1149.8 1251.6 1152.6 1252.2 1154.4 1253.3 1156.6 1253.3 1157.1 1251.7 1155.4"/>
    <polygon id="polygon21" class="st1" points="1255.6 1153.4 1257.2 1154 1258.3 1153.4 1258.7 1152.3 1258.1 1150.9 1256.3 1150.2 1254.9 1150.7 1254.4 1152 1254.5 1153 1255.6 1153.4"/>
    <polygon id="polygon31" class="st1" points="1255.6 1161 1253.5 1161 1252.4 1161.9 1252 1163.3 1252.4 1164.7 1253.4 1165.6 1255.6 1165.7 1259.1 1165.7 1259.1 1166.7 1255.2 1166.7 1252.7 1166.4 1251.5 1165.4 1251 1163.3 1251.5 1161.3 1252.7 1160.1 1255.2 1159.9 1259.1 1159.9 1259.1 1161 1255.6 1161"/>
    <polygon id="polygon41" class="st1" points="1257.8 1170 1258.8 1171.5 1259.3 1173.1 1258.8 1174.6 1257.8 1175.6 1255.2 1175.9 1251.1 1175.9 1251.1 1175 1254.9 1175 1256.8 1174.9 1258.1 1174.2 1258.3 1172.9 1257.8 1171.1 1256.3 1170.2 1254.1 1170 1251.1 1170 1251.1 1169 1259.1 1169 1259.1 1170 1257.8 1170"/>
    <polygon id="polygon51" class="st1" points="1261.5 1179.5 1261 1179.2 1260.7 1178.7 1261 1177.8 1261.5 1177.8 1262.2 1177.8 1262.3 1178.7 1262.2 1179.2 1261.5 1179.5"/>
    <rect id="rect51" class="st1" x="1251.1" y="1178" width="8" height="1.1"/>
    <polygon id="polygon61" class="st1" points="1248.2 1188.1 1252.5 1188.1 1251.4 1186.7 1251 1184.9 1251.3 1183.5 1252.2 1182.1 1253.5 1181.3 1255.1 1181 1256.8 1181.3 1258.1 1182.1 1258.9 1183.5 1259.3 1184.9 1258.8 1186.9 1257.8 1188.1 1259.1 1188.1 1259.1 1189.2 1248.2 1189.2 1248.2 1188.1"/>
    <polygon id="polygon71" class="st1" points="1256.6 1182.4 1255.1 1181.9 1253.5 1182.4 1252.4 1183.5 1251.9 1184.9 1252.4 1186.7 1253.5 1188 1254.9 1188.1 1257.4 1187.3 1258.3 1184.9 1257.8 1183.5 1256.6 1182.4"/>
    <polygon id="polygon81" class="st1" points="1255.6 1192.5 1253.5 1192.6 1252.4 1193.4 1252 1194.8 1252.4 1196.2 1253.4 1197.1 1255.6 1197.2 1259.1 1197.2 1259.1 1198.3 1255.2 1198.3 1252.7 1198 1251.5 1196.6 1251 1194.8 1251.5 1192.9 1252.7 1191.7 1255.2 1191.4 1259.1 1191.4 1259.1 1192.5 1255.6 1192.5"/>
    <polygon id="polygon91" class="st1" points="1252.2 1207.2 1251.3 1206 1251 1204.3 1251.3 1202.6 1252.2 1201.4 1255.1 1200.3 1257.8 1201.2 1258.9 1202.6 1259.3 1204.3 1258.9 1206 1257.8 1207.6 1254.9 1208.5 1254.9 1201.2 1252.7 1202.1 1251.9 1204.3 1252.2 1205.5 1252.7 1206.5 1253.8 1207.4 1253.3 1208.3 1252.2 1207.2"/>
    <polygon id="polygon101" class="st1" points="1258.1 1205.8 1258.3 1204.3 1257.8 1202.3 1255.9 1201.5 1255.9 1207.4 1257.2 1206.8 1258.1 1205.8"/>
    <polygon id="polygon111" class="st1" points="1255.9 1211.4 1259.1 1215 1259.1 1216.5 1255.3 1212.2 1251.1 1216.7 1251.1 1215.3 1254.7 1211.4 1251.1 1211.4 1251.1 1210.4 1262.2 1210.4 1262.2 1211.4 1255.9 1211.4"/>
    <polygon id="polygon121" class="st1" points="1261.5 1219.2 1261 1218.7 1260.7 1218.2 1261 1217.5 1261.5 1217.4 1262.2 1217.5 1262.3 1218.2 1262.2 1218.7 1261.5 1219.2"/>
    <rect id="rect121" class="st1" x="1251.1" y="1217.7" width="8" height="1"/>
    <polygon id="polygon131" class="st1" points="1251.1 1227.8 1252.5 1227.8 1251.4 1226.4 1251 1224.6 1251.3 1223 1252.2 1221.8 1253.5 1220.9 1255.1 1220.6 1256.8 1220.9 1258.1 1221.8 1258.9 1223 1259.3 1224.6 1258.8 1226.4 1257.8 1227.8 1262.2 1227.8 1262.2 1228.7 1251.1 1228.7 1251.1 1227.8"/>
    <polygon id="polygon141" class="st1" points="1256.6 1222.1 1255.1 1221.4 1253.5 1222.1 1252.4 1223 1251.9 1224.6 1252.4 1226.3 1253.5 1227.4 1254.9 1227.8 1257.4 1227.1 1258.3 1224.8 1257.8 1223 1256.6 1222.1"/>
    <polygon id="polygon151" class="st1" points="1258.3 1233 1258.1 1232 1257.2 1231.7 1256.6 1231.9 1255.7 1233.1 1254.5 1234.7 1253.3 1235.2 1251.7 1234.5 1251 1232.7 1251.3 1231.3 1252.2 1230.5 1252.7 1231 1252 1232.7 1252.4 1233.8 1253.2 1234.2 1254.1 1233.8 1254.9 1232.7 1256.1 1231 1257.2 1230.8 1258.7 1231.3 1259.3 1233 1258.3 1235.2 1257.5 1234.5 1258.3 1233"/>
    <polygon id="polygon161" class="st1" points="1251.9 1238.9 1251.3 1238.8 1251 1238.1 1251.3 1237.6 1251.9 1237.2 1252.5 1237.6 1252.7 1238.1 1252.5 1238.8 1251.9 1238.9"/>
    <polygon id="polygon171" class="st1" points="1262.2 1242.2 1257.8 1242.2 1258.8 1243.7 1259.3 1245.4 1258.9 1247.1 1258.1 1248.2 1256.8 1249.1 1255.1 1249.5 1253.5 1249.1 1252.2 1248.2 1251.3 1246.9 1251 1245.4 1251.4 1243.6 1252.7 1242.2 1251.1 1242.2 1251.1 1241 1262.2 1241 1262.2 1242.2"/>
    <polygon id="polygon181" class="st1" points="1253.6 1247.9 1255.1 1248.5 1256.8 1247.9 1258.1 1246.9 1258.3 1245.4 1258.1 1243.7 1256.8 1242.5 1255.2 1242.2 1252.7 1243 1252 1245.4 1252.4 1246.9 1253.6 1247.9"/>
    <polygon id="polygon191" class="st1" points="1258.1 1252 1258.9 1253.1 1259.3 1254 1258.9 1255 1258.1 1254.4 1258.3 1254 1257.8 1253.1 1256.6 1252.2 1253.8 1252 1251.1 1252 1251.1 1251 1259.1 1251 1259.1 1252 1258.1 1252"/>
  </g>
  <rect class="st0" x="1275.6" y="977.1" width="1200" height="447.6" rx="17.4" ry="17.4"/>
  <rect class="st0" x="75.6" y="81.9" width="1200" height="447.6" rx="17.4" ry="17.4"/>
  <g id="g192">
    <polygon id="polygon121" data-name="polygon12" class="st1" points="1251.7 260.2 1251 257.4 1251.7 254.6 1253.8 252.4 1256.6 251.6 1259.5 252.4 1261.7 254.6 1262.4 257.4 1262 259.4 1261.2 261.2 1259.4 262.1 1257.8 262.6 1255.3 261.9 1253.8 260.2 1253.3 258.9 1253.8 258.2 1254.2 258 1253.8 257.4 1253.4 256.6 1254.2 254.6 1256.1 253.9 1258.3 254.6 1259.3 255.7 1259.5 257.1 1259.3 258.2 1258.3 259.1 1259.4 259.1 1259.4 260 1254.6 259.1 1254.4 259.1 1254.1 259.1 1253.9 259.4 1254.5 260.6 1255.9 261.7 1257.5 262.1 1259.2 261.7 1260.7 260.6 1261.5 259.1 1261.7 257.4 1261.2 254.6 1259.3 252.9 1256.6 252.4 1254.1 252.9 1252.4 254.6 1251.6 257.4 1252.2 259.2 1253.3 261.4 1253.3 261.9 1251.7 260.2"/>
    <polygon id="polygon22" class="st1" points="1255.6 258.2 1257.2 258.8 1258.3 258.2 1258.7 257.1 1258.1 255.7 1256.3 255 1254.9 255.5 1254.4 256.8 1254.5 257.8 1255.6 258.2"/>
    <polygon id="polygon32" class="st1" points="1255.6 265.8 1253.5 265.8 1252.4 266.7 1252 268.1 1252.4 269.5 1253.4 270.4 1255.6 270.5 1259.1 270.5 1259.1 271.5 1255.2 271.5 1252.7 271.2 1251.5 270.2 1251 268.1 1251.5 266.1 1252.7 264.9 1255.2 264.7 1259.1 264.7 1259.1 265.8 1255.6 265.8"/>
    <polygon id="polygon42" class="st1" points="1257.8 274.8 1258.8 276.3 1259.3 277.9 1258.8 279.4 1257.8 280.4 1255.2 280.7 1251.1 280.7 1251.1 279.8 1254.9 279.8 1256.8 279.7 1258.1 279 1258.3 277.7 1257.8 275.9 1256.3 275 1254.1 274.8 1251.1 274.8 1251.1 273.8 1259.1 273.8 1259.1 274.8 1257.8 274.8"/>
    <polygon id="polygon52" class="st1" points="1261.5 284.3 1261 284 1260.7 283.5 1261 282.6 1261.5 282.6 1262.2 282.6 1262.3 283.5 1262.2 284 1261.5 284.3"/>
    <rect id="rect52" class="st1" x="1251.1" y="282.8" width="8" height="1.1"/>
    <polygon id="polygon62" class="st1" points="1248.2 292.9 1252.5 292.9 1251.4 291.5 1251 289.7 1251.3 288.3 1252.2 286.9 1253.5 286.1 1255.1 285.8 1256.8 286.1 1258.1 286.9 1258.9 288.3 1259.3 289.7 1258.8 291.7 1257.8 292.9 1259.1 292.9 1259.1 294 1248.2 294 1248.2 292.9"/>
    <polygon id="polygon72" class="st1" points="1256.6 287.2 1255.1 286.7 1253.5 287.2 1252.4 288.3 1251.9 289.7 1252.4 291.5 1253.5 292.8 1254.9 292.9 1257.4 292.1 1258.3 289.7 1257.8 288.3 1256.6 287.2"/>
    <polygon id="polygon82" class="st1" points="1255.6 297.3 1253.5 297.4 1252.4 298.2 1252 299.6 1252.4 301 1253.4 301.9 1255.6 302 1259.1 302 1259.1 303.1 1255.2 303.1 1252.7 302.8 1251.5 301.4 1251 299.6 1251.5 297.7 1252.7 296.5 1255.2 296.2 1259.1 296.2 1259.1 297.3 1255.6 297.3"/>
    <polygon id="polygon92" class="st1" points="1252.2 312 1251.3 310.8 1251 309.1 1251.3 307.4 1252.2 306.2 1255.1 305.1 1257.8 306 1258.9 307.4 1259.3 309.1 1258.9 310.8 1257.8 312.4 1254.9 313.3 1254.9 306 1252.7 306.9 1251.9 309.1 1252.2 310.3 1252.7 311.3 1253.8 312.2 1253.3 313.1 1252.2 312"/>
    <polygon id="polygon102" class="st1" points="1258.1 310.6 1258.3 309.1 1257.8 307.1 1255.9 306.3 1255.9 312.2 1257.2 311.6 1258.1 310.6"/>
    <polygon id="polygon112" class="st1" points="1255.9 316.2 1259.1 319.8 1259.1 321.3 1255.3 317 1251.1 321.5 1251.1 320.1 1254.7 316.2 1251.1 316.2 1251.1 315.2 1262.2 315.2 1262.2 316.2 1255.9 316.2"/>
    <polygon id="polygon122" class="st1" points="1261.5 324 1261 323.5 1260.7 323 1261 322.3 1261.5 322.2 1262.2 322.3 1262.3 323 1262.2 323.5 1261.5 324"/>
    <rect id="rect122" class="st1" x="1251.1" y="322.5" width="8" height="1"/>
    <polygon id="polygon132" class="st1" points="1251.1 332.6 1252.5 332.6 1251.4 331.2 1251 329.4 1251.3 327.8 1252.2 326.6 1253.5 325.7 1255.1 325.4 1256.8 325.7 1258.1 326.6 1258.9 327.8 1259.3 329.4 1258.8 331.2 1257.8 332.6 1262.2 332.6 1262.2 333.5 1251.1 333.5 1251.1 332.6"/>
    <polygon id="polygon142" class="st1" points="1256.6 326.9 1255.1 326.2 1253.5 326.9 1252.4 327.8 1251.9 329.4 1252.4 331.1 1253.5 332.2 1254.9 332.6 1257.4 331.9 1258.3 329.6 1257.8 327.8 1256.6 326.9"/>
    <polygon id="polygon152" class="st1" points="1258.3 337.8 1258.1 336.8 1257.2 336.5 1256.6 336.7 1255.7 337.9 1254.5 339.5 1253.3 340 1251.7 339.3 1251 337.5 1251.3 336.1 1252.2 335.3 1252.7 335.8 1252 337.5 1252.4 338.6 1253.2 339 1254.1 338.6 1254.9 337.5 1256.1 335.8 1257.2 335.6 1258.7 336.1 1259.3 337.8 1258.3 340 1257.5 339.3 1258.3 337.8"/>
    <polygon id="polygon162" class="st1" points="1251.9 343.7 1251.3 343.6 1251 342.9 1251.3 342.4 1251.9 342 1252.5 342.4 1252.7 342.9 1252.5 343.6 1251.9 343.7"/>
    <polygon id="polygon172" class="st1" points="1262.2 347 1257.8 347 1258.8 348.5 1259.3 350.2 1258.9 351.9 1258.1 353 1256.8 353.9 1255.1 354.3 1253.5 353.9 1252.2 353 1251.3 351.7 1251 350.2 1251.4 348.4 1252.7 347 1251.1 347 1251.1 345.8 1262.2 345.8 1262.2 347"/>
    <polygon id="polygon182" class="st1" points="1253.6 352.7 1255.1 353.3 1256.8 352.7 1258.1 351.7 1258.3 350.2 1258.1 348.5 1256.8 347.3 1255.2 347 1252.7 347.8 1252 350.2 1252.4 351.7 1253.6 352.7"/>
    <polygon id="polygon192" class="st1" points="1258.1 356.8 1258.9 357.9 1259.3 358.8 1258.9 359.8 1258.1 359.2 1258.3 358.8 1257.8 357.9 1256.6 357 1253.8 356.8 1251.1 356.8 1251.1 355.8 1259.1 355.8 1259.1 356.8 1258.1 356.8"/>
  </g>
</svg>