<?xml version="1.0" encoding="UTF-8"?>
<svg id="Camada_1" xmlns="http://www.w3.org/2000/svg" width="90cm" height="54cm" version="1.1" viewBox="0 0 2551.2 1530.7">
  <!-- Generator: Adobe Illustrator 29.3.0, SVG Export Plug-In . SVG Version: 2.1.0 Build 146)  -->
  <defs>
    <style>
      .st0 {
        stroke: blue;
        stroke-width: .6px;
      }

      .st0, .st1 {
        fill: none;
        stroke-miterlimit: 22.9;
      }

      .st1 {
        stroke: #00b0f0;
      }
    </style>
  </defs>
  <rect class="st0" x="75.6" y="529.5" width="1200" height="447.6" rx="17.4" ry="17.4"/>
  <rect class="st0" x="75.6" y="81.9" width="1200" height="447.6" rx="17.4" ry="17.4"/>
  <g id="g19">
    <polygon id="polygon1" class="st1" points="1251.7 260.2 1251 257.4 1251.7 254.6 1253.8 252.4 1256.6 251.6 1259.5 252.4 1261.7 254.6 1262.4 257.4 1262 259.4 1261.2 261.2 1259.4 262.1 1257.8 262.6 1255.3 261.9 1253.8 260.2 1253.3 258.9 1253.8 258.2 1254.2 258 1253.8 257.4 1253.4 256.6 1254.2 254.6 1256.1 253.9 1258.3 254.6 1259.3 255.7 1259.5 257.1 1259.3 258.2 1258.3 259.1 1259.4 259.1 1259.4 260 1254.6 259.1 1254.4 259.1 1254.1 259.1 1253.9 259.4 1254.5 260.6 1255.9 261.7 1257.5 262.1 1259.2 261.7 1260.7 260.6 1261.5 259.1 1261.7 257.4 1261.2 254.6 1259.3 252.9 1256.6 252.4 1254.1 252.9 1252.4 254.6 1251.6 257.4 1252.2 259.2 1253.3 261.4 1253.3 261.9 1251.7 260.2"/>
    <polygon id="polygon2" class="st1" points="1255.6 258.2 1257.2 258.8 1258.3 258.2 1258.7 257.1 1258.1 255.7 1256.3 255 1254.9 255.5 1254.4 256.8 1254.5 257.8 1255.6 258.2"/>
    <polygon id="polygon3" class="st1" points="1255.6 265.8 1253.5 265.8 1252.4 266.7 1252 268.1 1252.4 269.5 1253.4 270.4 1255.6 270.5 1259.1 270.5 1259.1 271.5 1255.2 271.5 1252.7 271.2 1251.5 270.2 1251 268.1 1251.5 266.1 1252.7 264.9 1255.2 264.7 1259.1 264.7 1259.1 265.8 1255.6 265.8"/>
    <polygon id="polygon4" class="st1" points="1257.8 274.8 1258.8 276.3 1259.3 277.9 1258.8 279.4 1257.8 280.4 1255.2 280.7 1251.1 280.7 1251.1 279.8 1254.9 279.8 1256.8 279.7 1258.1 279 1258.3 277.7 1257.8 275.9 1256.3 275 1254.1 274.8 1251.1 274.8 1251.1 273.8 1259.1 273.8 1259.1 274.8 1257.8 274.8"/>
    <polygon id="polygon5" class="st1" points="1261.5 284.3 1261 284 1260.7 283.5 1261 282.6 1261.5 282.6 1262.2 282.6 1262.3 283.5 1262.2 284 1261.5 284.3"/>
    <rect id="rect5" class="st1" x="1251.1" y="282.8" width="8" height="1.1"/>
    <polygon id="polygon6" class="st1" points="1248.2 292.9 1252.5 292.9 1251.4 291.5 1251 289.7 1251.3 288.3 1252.2 286.9 1253.5 286.1 1255.1 285.8 1256.8 286.1 1258.1 286.9 1258.9 288.3 1259.3 289.7 1258.8 291.7 1257.8 292.9 1259.1 292.9 1259.1 294 1248.2 294 1248.2 292.9"/>
    <polygon id="polygon7" class="st1" points="1256.6 287.2 1255.1 286.7 1253.5 287.2 1252.4 288.3 1251.9 289.7 1252.4 291.5 1253.5 292.8 1254.9 292.9 1257.4 292.1 1258.3 289.7 1257.8 288.3 1256.6 287.2"/>
    <polygon id="polygon8" class="st1" points="1255.6 297.3 1253.5 297.4 1252.4 298.2 1252 299.6 1252.4 301 1253.4 301.9 1255.6 302 1259.1 302 1259.1 303.1 1255.2 303.1 1252.7 302.8 1251.5 301.4 1251 299.6 1251.5 297.7 1252.7 296.5 1255.2 296.2 1259.1 296.2 1259.1 297.3 1255.6 297.3"/>
    <polygon id="polygon9" class="st1" points="1252.2 312 1251.3 310.8 1251 309.1 1251.3 307.4 1252.2 306.2 1255.1 305.1 1257.8 306 1258.9 307.4 1259.3 309.1 1258.9 310.8 1257.8 312.4 1254.9 313.3 1254.9 306 1252.7 306.9 1251.9 309.1 1252.2 310.3 1252.7 311.3 1253.8 312.2 1253.3 313.1 1252.2 312"/>
    <polygon id="polygon10" class="st1" points="1258.1 310.6 1258.3 309.1 1257.8 307.1 1255.9 306.3 1255.9 312.2 1257.2 311.6 1258.1 310.6"/>
    <polygon id="polygon11" class="st1" points="1255.9 316.2 1259.1 319.8 1259.1 321.3 1255.3 317 1251.1 321.5 1251.1 320.1 1254.7 316.2 1251.1 316.2 1251.1 315.2 1262.2 315.2 1262.2 316.2 1255.9 316.2"/>
    <polygon id="polygon12" class="st1" points="1261.5 324 1261 323.5 1260.7 323 1261 322.3 1261.5 322.2 1262.2 322.3 1262.3 323 1262.2 323.5 1261.5 324"/>
    <rect id="rect12" class="st1" x="1251.1" y="322.5" width="8" height="1"/>
    <polygon id="polygon13" class="st1" points="1251.1 332.6 1252.5 332.6 1251.4 331.2 1251 329.4 1251.3 327.8 1252.2 326.6 1253.5 325.7 1255.1 325.4 1256.8 325.7 1258.1 326.6 1258.9 327.8 1259.3 329.4 1258.8 331.2 1257.8 332.6 1262.2 332.6 1262.2 333.5 1251.1 333.5 1251.1 332.6"/>
    <polygon id="polygon14" class="st1" points="1256.6 326.9 1255.1 326.2 1253.5 326.9 1252.4 327.8 1251.9 329.4 1252.4 331.1 1253.5 332.2 1254.9 332.6 1257.4 331.9 1258.3 329.6 1257.8 327.8 1256.6 326.9"/>
    <polygon id="polygon15" class="st1" points="1258.3 337.8 1258.1 336.8 1257.2 336.5 1256.6 336.7 1255.7 337.9 1254.5 339.5 1253.3 340 1251.7 339.3 1251 337.5 1251.3 336.1 1252.2 335.3 1252.7 335.8 1252 337.5 1252.4 338.6 1253.2 339 1254.1 338.6 1254.9 337.5 1256.1 335.8 1257.2 335.6 1258.7 336.1 1259.3 337.8 1258.3 340 1257.5 339.3 1258.3 337.8"/>
    <polygon id="polygon16" class="st1" points="1251.9 343.7 1251.3 343.6 1251 342.9 1251.3 342.4 1251.9 342 1252.5 342.4 1252.7 342.9 1252.5 343.6 1251.9 343.7"/>
    <polygon id="polygon17" class="st1" points="1262.2 347 1257.8 347 1258.8 348.5 1259.3 350.2 1258.9 351.9 1258.1 353 1256.8 353.9 1255.1 354.3 1253.5 353.9 1252.2 353 1251.3 351.7 1251 350.2 1251.4 348.4 1252.7 347 1251.1 347 1251.1 345.8 1262.2 345.8 1262.2 347"/>
    <polygon id="polygon18" class="st1" points="1253.6 352.7 1255.1 353.3 1256.8 352.7 1258.1 351.7 1258.3 350.2 1258.1 348.5 1256.8 347.3 1255.2 347 1252.7 347.8 1252 350.2 1252.4 351.7 1253.6 352.7"/>
    <polygon id="polygon19" class="st1" points="1258.1 356.8 1258.9 357.9 1259.3 358.8 1258.9 359.8 1258.1 359.2 1258.3 358.8 1257.8 357.9 1256.6 357 1253.8 356.8 1251.1 356.8 1251.1 355.8 1259.1 355.8 1259.1 356.8 1258.1 356.8"/>
  </g>
</svg>