<?xml version="1.0" encoding="UTF-8"?>
<svg id="Camada_1" xmlns="http://www.w3.org/2000/svg" width="90cm" height="54cm" version="1.1" viewBox="0 0 2551.2 1530.7">
  <!-- Generator: Adobe Illustrator 29.3.1, SVG Export Plug-In . SVG Version: 2.1.0 Build 151)  -->
  <defs>
    <style>
      .st0 {
        fill: none;
        stroke: #2e3191;
        stroke-miterlimit: 22.9;
        stroke-width: 1px;
      }
    </style>
  </defs>
  <polygon class="st0" points="1275.3 119.2 1275.3 527.1 1275 530.6 1273.9 533.8 1272.3 536.7 1270.2 539.2 1267.7 541.3 1264.7 543 1261.4 543.9 1257.9 544.3 96.4 544.3 93 543.9 89.6 543 86.7 541.3 84.2 539.2 82.1 536.7 80.5 533.8 79.4 530.6 79.1 527.1 79.1 119.2 79.4 115.8 80.5 112.6 82.1 109.6 84.2 107.1 86.7 105 89.6 103.4 93 102.4 96.4 102 1257.9 102 1261.4 102.4 1264.7 103.4 1267.7 105 1270.2 107.1 1272.3 109.6 1273.9 112.6 1275 115.8 1275.3 119.2"/>
  <polygon class="st0" points="1275.3 561.4 1275.3 969.3 1275 972.8 1273.9 976 1272.3 978.9 1270.2 981.4 1267.7 983.6 1264.7 985.2 1261.4 986.1 1257.9 986.5 96.4 986.5 93 986.1 89.6 985.2 86.7 983.6 84.2 981.4 82.1 978.9 80.5 976 79.4 972.8 79.1 969.3 79.1 561.4 79.4 558 80.5 554.8 82.1 551.8 84.2 549.4 86.7 547.2 89.6 545.6 93 544.6 96.4 544.3 1257.9 544.3 1261.4 544.6 1264.7 545.6 1267.7 547.2 1270.2 549.4 1272.3 551.8 1273.9 554.8 1275 558 1275.3 561.4"/>
  <polygon class="st0" points="2472.1 119.2 2472.1 527.1 2471.7 530.6 2470.7 533.8 2469.1 536.7 2467 539.2 2464.4 541.3 2461.5 543 2458.2 543.9 2454.7 544.3 1293.2 544.3 1289.8 543.9 1286.4 543 1283.5 541.3 1281 539.2 1278.9 536.7 1277.3 533.8 1276.2 530.6 1275.9 527.1 1275.9 119.2 1276.2 115.8 1277.3 112.6 1278.9 109.6 1281 107.1 1283.5 105 1286.4 103.4 1289.8 102.4 1293.2 102 2454.7 102 2458.2 102.4 2461.5 103.4 2464.4 105 2467 107.1 2469.1 109.6 2470.7 112.6 2471.7 115.8 2472.1 119.2"/>
  <polygon class="st0" points="2472.1 561.4 2472.1 969.3 2471.7 972.8 2470.7 976 2469.1 978.9 2467 981.4 2464.4 983.6 2461.5 985.2 2458.2 986.1 2454.7 986.5 1293.2 986.5 1289.8 986.1 1286.4 985.2 1283.5 983.6 1281 981.4 1278.9 978.9 1277.3 976 1276.2 972.8 1275.9 969.3 1275.9 561.4 1276.2 558 1277.3 554.8 1278.9 551.8 1281 549.4 1283.5 547.2 1286.4 545.6 1289.8 544.6 1293.2 544.3 2454.7 544.3 2458.2 544.6 2461.5 545.6 2464.4 547.2 2467 549.4 2469.1 551.8 2470.7 554.8 2471.7 558 2472.1 561.4"/>
  <polygon class="st0" points="1275.3 1003.6 1275.3 1411.5 1275 1415 1273.9 1418.2 1272.3 1421.2 1270.2 1423.6 1267.7 1425.8 1264.7 1427.4 1261.4 1428.3 1257.9 1428.7 96.4 1428.7 93 1428.3 89.6 1427.4 86.7 1425.8 84.2 1423.6 82.1 1421.2 80.5 1418.2 79.4 1415 79.1 1411.5 79.1 1003.6 79.4 1000.2 80.5 997 82.1 994 84.2 991.6 86.7 989.4 89.6 987.8 93 986.8 96.4 986.5 1257.9 986.5 1261.4 986.8 1264.7 987.8 1267.7 989.4 1270.2 991.6 1272.3 994 1273.9 997 1275 1000.2 1275.3 1003.6"/>
</svg>