<?xml version="1.0" encoding="UTF-8"?>
<svg id="Camada_1" xmlns="http://www.w3.org/2000/svg" width="90cm" height="54cm" version="1.1" viewBox="0 0 2551.2 1530.7">
  <!-- Generator: Adobe Illustrator 29.3.1, SVG Export Plug-In . SVG Version: 2.1.0 Build 151)  -->
  <defs>
    <style>
      .st0 {
        fill: none;
        stroke: #2e3191;
        stroke-miterlimit: 22.9;
        stroke-width: 1px;
      }
    </style>
  </defs>
  <polygon class="st0" points="1275.3 119.2 1275.3 527.1 1275 530.6 1273.9 533.8 1272.3 536.7 1270.2 539.2 1267.7 541.3 1264.7 543 1261.4 543.9 1257.9 544.3 96.4 544.3 93 543.9 89.6 543 86.7 541.3 84.2 539.2 82.1 536.7 80.5 533.8 79.4 530.6 79.1 527.1 79.1 119.2 79.4 115.8 80.5 112.6 82.1 109.6 84.2 107.1 86.7 105 89.6 103.4 93 102.4 96.4 102 1257.9 102 1261.4 102.4 1264.7 103.4 1267.7 105 1270.2 107.1 1272.3 109.6 1273.9 112.6 1275 115.8 1275.3 119.2"/>
</svg>