<?xml version="1.0" encoding="UTF-8"?>
<svg id="Camada_1" xmlns="http://www.w3.org/2000/svg" width="2551.2" height="1530.7" version="1.1" viewBox="0 0 2551.2 1530.7">
  <!-- Generator: Adobe Illustrator 29.3.1, SVG Export Plug-In . SVG Version: 2.1.0 Build 151)  -->
  <defs>
    <style>
      .st0 {
        fill: none;
        stroke: #2e3191;
        stroke-miterlimit: 22.9;
        stroke-width: 1px;
      }
    </style>
  </defs>
  <polygon class="st0" points="1275.3 119.2 1275.3 527.1 1275 530.6 1273.9 533.8 1272.3 536.7 1270.2 539.2 1267.7 541.3 1264.7 543 1261.4 543.9 1257.9 544.3 96.4 544.3 93 543.9 89.6 543 86.7 541.3 84.2 539.2 82.1 536.7 80.5 533.8 79.4 530.6 79.1 527.1 79.1 119.2 79.4 115.8 80.5 112.6 82.1 109.6 84.2 107.1 86.7 105 89.6 103.4 93 102.4 96.4 102 1257.9 102 1261.4 102.4 1264.7 103.4 1267.7 105 1270.2 107.1 1272.3 109.6 1273.9 112.6 1275 115.8 1275.3 119.2"/>
  <polygon class="st0" points="1275.3 561.4 1275.3 969.3 1275 972.8 1273.9 976 1272.3 978.9 1270.2 981.4 1267.7 983.6 1264.7 985.2 1261.4 986.1 1257.9 986.5 96.4 986.5 93 986.1 89.6 985.2 86.7 983.6 84.2 981.4 82.1 978.9 80.5 976 79.4 972.8 79.1 969.3 79.1 561.4 79.4 558 80.5 554.8 82.1 551.8 84.2 549.4 86.7 547.2 89.6 545.6 93 544.6 96.4 544.3 1257.9 544.3 1261.4 544.6 1264.7 545.6 1267.7 547.2 1270.2 549.4 1272.3 551.8 1273.9 554.8 1275 558 1275.3 561.4"/>
</svg>