<?xml version="1.0" encoding="UTF-8"?>
<svg id="Camada_1" xmlns="http://www.w3.org/2000/svg" width="54cm" height="90cm" xmlns:xlink="http://www.w3.org/1999/xlink" version="1.1" viewBox="0 0 1530.7 2551.2">
  <!-- Generator: Adobe Illustrator 29.3.0, SVG Export Plug-In . SVG Version: 2.1.0 Build 146)  -->
  <defs>
    <style>
      .st0 {
        fill: none;
        stroke: blue;
        stroke-miterlimit: 22.9;
        stroke-width: 1px;
      }
    </style>
  </defs>
  <polygon class="st0" points="69.4 1291.5 69.4 99.9 70 93.9 71.8 88.4 74.5 83.4 78.1 79 82.5 75.4 87.5 72.7 93 71 98.9 70.3 271.9 70.3 277.8 71 283.3 72.7 288.4 75.4 292.7 79 296.3 83.4 299.1 88.4 300.8 93.9 301.4 99.9 301.4 1291.5 300.8 1297.4 299.1 1302.9 296.3 1308 292.7 1312.3 288.4 1316 283.3 1318.7 277.8 1320.4 271.9 1321 98.9 1321 93 1320.4 87.5 1318.7 82.5 1316 78.1 1312.3 74.5 1308 71.8 1302.9 70 1297.4 69.4 1291.5"/>
  <polygon class="st0" points="765.4 1291.5 765.4 99.9 765.9 93.9 767.7 88.4 770.4 83.4 774 79 778.4 75.4 783.4 72.7 789 71 794.8 70.3 967.8 70.3 973.7 71 979.3 72.7 984.3 75.4 988.6 79 992.2 83.4 995 88.4 996.7 93.9 997.3 99.9 997.3 1291.5 996.7 1297.4 995 1302.9 992.2 1308 988.6 1312.3 984.3 1316 979.3 1318.7 973.7 1320.4 967.8 1321 794.8 1321 789 1320.4 783.4 1318.7 778.4 1316 774 1312.3 770.4 1308 767.7 1302.9 765.9 1297.4 765.4 1291.5"/>
  <polygon class="st0" points="533.4 1291.5 533.4 99.9 533.9 93.9 535.7 88.4 538.4 83.4 542 79 546.4 75.4 551.5 72.7 557 71 562.9 70.3 735.8 70.3 741.8 71 747.3 72.7 752.3 75.4 756.6 79 760.3 83.4 763 88.4 764.7 93.9 765.4 99.9 765.4 1291.5 764.7 1297.4 763 1302.9 760.3 1308 756.6 1312.3 752.3 1316 747.3 1318.7 741.8 1320.4 735.8 1321 562.9 1321 557 1320.4 551.5 1318.7 546.4 1316 542 1312.3 538.4 1308 535.7 1302.9 533.9 1297.4 533.4 1291.5"/>
  <polygon class="st0" points="301.4 1291.5 301.4 99.9 302 93.9 303.7 88.4 306.4 83.4 310.1 79 314.4 75.4 319.5 72.7 325 71 330.9 70.3 503.8 70.3 509.8 71 515.3 72.7 520.3 75.4 524.7 79 528.3 83.4 531 88.4 532.7 93.9 533.4 99.9 533.4 1291.5 532.7 1297.4 531 1302.9 528.3 1308 524.7 1312.3 520.3 1316 515.3 1318.7 509.8 1320.4 503.8 1321 330.9 1321 325 1320.4 319.5 1318.7 314.4 1316 310.1 1312.3 306.4 1308 303.7 1302.9 302 1297.4 301.4 1291.5"/>
  <polygon class="st0" points="997.3 1291.5 997.3 99.9 997.9 93.9 999.7 88.4 1002.4 83.4 1006 79 1010.4 75.4 1015.4 72.7 1020.9 71 1026.8 70.3 1199.7 70.3 1205.7 71 1211.2 72.7 1216.3 75.4 1220.6 79 1224.2 83.4 1227 88.4 1228.7 93.9 1229.3 99.9 1229.3 1291.5 1228.7 1297.4 1227 1302.9 1224.2 1308 1220.6 1312.3 1216.3 1316 1211.2 1318.7 1205.7 1320.4 1199.7 1321 1026.8 1321 1020.9 1320.4 1015.4 1318.7 1010.4 1316 1006 1312.3 1002.4 1308 999.7 1302.9 997.9 1297.4 997.3 1291.5"/>
  <polygon class="st0" points="1229.3 1291.5 1229.3 99.9 1229.9 93.9 1231.6 88.4 1234.3 83.4 1237.9 79 1242.3 75.4 1247.4 72.7 1252.9 71 1258.8 70.3 1431.7 70.3 1437.7 71 1443.2 72.7 1448.2 75.4 1452.6 79 1456.2 83.4 1458.9 88.4 1460.6 93.9 1461.3 99.9 1461.3 1291.5 1460.6 1297.4 1458.9 1302.9 1456.2 1308 1452.6 1312.3 1448.2 1316 1443.2 1318.7 1437.7 1320.4 1431.7 1321 1258.8 1321 1252.9 1320.4 1247.4 1318.7 1242.3 1316 1238 1312.3 1234.3 1308 1231.6 1302.9 1229.9 1297.4 1229.3 1291.5"/>
</svg>