<?xml version="1.0" encoding="UTF-8"?>
<svg id="Camada_1" xmlns="http://www.w3.org/2000/svg" width="54cm" height="90cm" xmlns:xlink="http://www.w3.org/1999/xlink" version="1.1" viewBox="0 0 1530.7 2551.2">
  <!-- Generator: Adobe Illustrator 29.3.0, SVG Export Plug-In . SVG Version: 2.1.0 Build 146)  -->
  <defs>
    <style>
      .st0 {
        fill: none;
        stroke: blue;
        stroke-miterlimit: 22.9;
        stroke-width: 1px;
      }
    </style>
  </defs>
  <polygon class="st0" points="69.4 1291.5 69.4 99.9 70 93.9 71.8 88.4 74.5 83.4 78.1 79 82.5 75.4 87.5 72.7 93 71 98.9 70.3 271.9 70.3 277.8 71 283.3 72.7 288.4 75.4 292.7 79 296.3 83.4 299.1 88.4 300.8 93.9 301.4 99.9 301.4 1291.5 300.8 1297.4 299.1 1302.9 296.3 1308 292.7 1312.3 288.4 1316 283.3 1318.7 277.8 1320.4 271.9 1321 98.9 1321 93 1320.4 87.5 1318.7 82.5 1316 78.1 1312.3 74.5 1308 71.8 1302.9 70 1297.4 69.4 1291.5"/>
</svg>