<?xml version="1.0" encoding="UTF-8"?>
<svg id="Camada_1" xmlns="http://www.w3.org/2000/svg" width="90cm" height="54cm" xmlns:xodm="http://www.corel.com/coreldraw/odm/2003" version="1.1" viewBox="0 0 2551.2 1530.7">
  <!-- Generator: Adobe Illustrator 29.3.1, SVG Export Plug-In . SVG Version: 2.1.0 Build 151)  -->
  <defs>
    <style>
      .st0 {
        stroke: #00a651;
      }

      .st0, .st1 {
        fill: none;
        stroke-miterlimit: 15.7;
        stroke-width: .5px;
      }

      .st1 {
        stroke: #2e3192;
      }
    </style>
  </defs>
  <polygon class="st0" points="135.4 697.7 135.4 697.1 136.3 696.3 138.5 694 139.2 692.2 138.8 691.2 137.6 690.7 136 691.3 135.6 690.6 137.8 689.8 139.7 690.5 140.2 692.1 139.5 694.1 137.5 696.3 136.9 696.8 136.9 696.8 140.4 696.8 140.4 697.7 135.4 697.7"/>
  <polygon class="st0" points="138.2 368.8 138.2 368.8 136.8 369.6 136.6 368.7 138.3 367.8 139.2 367.8 139.2 375.6 138.2 375.6 138.2 368.8"/>
  <polyline class="st1" points="444.3 199.1 444.3 266.5 451.3 266.5 451.3 324.6"/>
  <line class="st1" x1="444.3" y1="324.6" x2="451.3" y2="324.6"/>
  <polyline class="st1" points="450.8 471.8 444 471.8 444 437.4"/>
  <line class="st1" x1="444.1" y1="437.4" x2="444.1" y2="413.9"/>
  <polyline class="st1" points="444.1 413.9 444.1 401 444.2 324.4"/>
  <line class="st1" x1="450.8" y1="529.9" x2="450.8" y2="471.8"/>
  <line class="st1" x1="444.1" y1="529.9" x2="450.8" y2="529.9"/>
  <polyline class="st1" points="112.7 324.4 112.7 266.2 119.8 266.2 119.8 198.8"/>
  <line class="st1" x1="119.8" y1="198.8" x2="112.7" y2="198.8"/>
  <line class="st1" x1="252.1" y1="400.6" x2="250.2" y2="400.6"/>
  <polyline class="st1" points="252.1 724.5 191.8 724.5 191.8 731.5"/>
  <polyline class="st1" points="252.1 393.6 191.8 393.6 191.8 400.6"/>
  <polyline class="st1" points="375.4 400.6 375.4 393.6 315.4 393.6"/>
  <polyline class="st1" points="315.4 724.5 315.4 731.5 252.1 731.5 252.1 724.5"/>
  <polyline class="st1" points="315.4 393.6 315.4 400.6 252.1 400.6 252.1 393.6"/>
  <polyline class="st1" points="119.8 731.3 190.4 731.5 191.8 731.5"/>
  <polyline class="st1" points="119.6 400.4 190.4 400.6 191.8 400.6"/>
  <line class="st1" x1="375.5" y1="407.6" x2="308.6" y2="407.5"/>
  <line class="st1" x1="375.5" y1="76.7" x2="308.6" y2="76.7"/>
  <polyline class="st1" points="444.3 199.1 450.8 199.1 450.8 141 444.1 141 444.1 70.2"/>
  <polyline class="st1" points="315.4 724.5 375.4 724.5 375.4 731.5 444.2 731.8 444 655.4 450.8 655.4"/>
  <line class="st1" x1="781.9" y1="918.3" x2="782" y2="918.3"/>
  <line class="st1" x1="119.8" y1="529.6" x2="112.7" y2="529.6"/>
  <polyline class="st1" points="444.3 529.9 444.3 597.3 450.8 597.4 450.8 655.4"/>
  <line class="st1" x1="119.8" y1="724.5" x2="119.8" y2="731.5"/>
  <polyline class="st1" points="112.7 529.6 112.7 471.6 119.8 471.6 119.8 400.5 119.8 393.6"/>
  <polyline class="st1" points="112.7 655.3 112.7 597.1 119.8 597.1 119.8 529.6"/>
  <polyline class="st1" points="119.8 726.4 119.8 654.7 112.7 654.7"/>
  <polyline class="st1" points="119.8 395.6 119.8 323.9 112.7 323.9"/>
  <polyline class="st1" points="250.2 407.6 189 407.6 189 400.5"/>
  <polyline class="st1" points="250.2 76.7 189 76.7 189 69.7"/>
  <polyline class="st1" points="189 69.7 119.8 69.7 119.8 140.7 112.7 140.7 112.7 198.8"/>
  <line class="st1" x1="308.6" y1="400.5" x2="308.6" y2="407.5"/>
  <polyline class="st1" points="375.5 407.6 375.5 400.5 444.1 400.5"/>
  <polyline class="st1" points="375.5 76.7 375.5 69.7 444.1 69.7"/>
  <line class="st1" x1="250.2" y1="407.6" x2="250.2" y2="400.5"/>
  <polyline class="st1" points="250.2 76.7 250.2 69.7 308.6 69.7 308.6 76.7"/>
</svg>