<?xml version="1.0" encoding="UTF-8"?>
<svg id="Camada_1" xmlns="http://www.w3.org/2000/svg" width="90cm" height="54cm" version="1.1" viewBox="0 0 2551 1530">
  <!-- Generator: Adobe Illustrator 29.3.0, SVG Export Plug-In . SVG Version: 2.1.0 Build 146)  -->
  <defs>
    <style>
      .st0 {
        stroke: #2e3192;
        stroke-miterlimit: 10;
        stroke-width: .5px;
      }

      .st0, .st1 {
        fill: none;
      }

      .st1 {
        fill-rule: evenodd;
        stroke: #00a651;
        stroke-miterlimit: 22.9;
        stroke-width: .6px;
      }
    </style>
  </defs>
  <line class="st0" x1="775.4" y1="722.3" x2="782" y2="722.3"/>
  <line class="st0" x1="775.4" y1="663.8" x2="782" y2="663.8"/>
  <polyline class="st0" points="250.3 76 250.3 68.9 308.6 68.9 308.6 75.9"/>
  <polyline class="st0" points="581.3 143.8 581.3 136.7 639.6 136.7 639.6 143.7"/>
  <polyline class="st0" points="912.5 75.9 912.5 68.8 970.8 68.8 970.8 75.8"/>
  <polyline class="st0" points="1243.5 143.5 1243.5 136.4 1301.8 136.4 1301.8 143.4"/>
  <line class="st0" x1="250.2" y1="737.6" x2="250.2" y2="730.7"/>
  <line class="st0" x1="581.2" y1="805.4" x2="581.2" y2="798.4"/>
  <line class="st0" x1="912.4" y1="737.5" x2="912.4" y2="730.5"/>
  <line class="st0" x1="250.3" y1="406.9" x2="250.3" y2="399.8"/>
  <line class="st0" x1="581.3" y1="474.6" x2="581.3" y2="467.5"/>
  <line class="st0" x1="912.4" y1="406.7" x2="912.4" y2="399.6"/>
  <line class="st0" x1="250.2" y1="1068.5" x2="250.2" y2="1061.4"/>
  <line class="st0" x1="581.2" y1="1136.3" x2="581.2" y2="1129.2"/>
  <line class="st0" x1="912.4" y1="1068.3" x2="912.4" y2="1061.3"/>
  <polyline class="st0" points="375.6 76 375.6 68.9 444.2 68.9"/>
  <polyline class="st0" points="706.6 143.8 706.6 136.7 775.2 136.7 775.2 208 781.8 208 781.8 265.4 775.4 265.4 775.5 265.7 775.5 333.5 782 333.5"/>
  <polyline class="st0" points="1037.8 75.9 1037.8 68.8 1106.4 68.8 1106.4 140 1113.1 140.1"/>
  <polyline class="st0" points="1368.7 143.5 1368.7 136.4 1437.6 136.4 1437.6 208 1444.6 208"/>
  <polyline class="st0" points="375.5 737.6 375.5 730.5 444.1 730.5"/>
  <polyline class="st0" points="706.5 805.4 706.5 798.3 775.1 798.3"/>
  <polyline class="st0" points="1037.7 737.5 1037.7 730.4 1106.3 730.4"/>
  <polyline class="st0" points="375.6 406.9 375.6 399.8 444.2 399.8"/>
  <polyline class="st0" points="706.6 474.6 706.6 467.5 775.2 467.5"/>
  <polyline class="st0" points="1037.7 406.7 1037.7 399.6 1106.3 399.6"/>
  <line class="st0" x1="1368.7" y1="467.3" x2="1437.6" y2="467.3"/>
  <polyline class="st0" points="375.5 1068.5 375.5 1061.4 444.1 1061.4"/>
  <polyline class="st0" points="706.5 1136.3 706.5 1129.2 775.1 1129.2 775.1 1200.8 781.8 1200.7"/>
  <polyline class="st0" points="1037.7 1068.3 1037.7 1061.3 1106.3 1061.3"/>
  <line class="st0" x1="308.5" y1="730.5" x2="308.5" y2="737.5"/>
  <line class="st0" x1="639.5" y1="798.5" x2="639.5" y2="805.4"/>
  <line class="st0" x1="970.8" y1="730.3" x2="970.8" y2="737.4"/>
  <line class="st0" x1="308.6" y1="399.7" x2="308.6" y2="406.8"/>
  <line class="st0" x1="639.6" y1="467.5" x2="639.6" y2="474.6"/>
  <line class="st0" x1="970.8" y1="399.6" x2="970.8" y2="406.7"/>
  <line class="st0" x1="308.5" y1="1061.3" x2="308.5" y2="1068.4"/>
  <line class="st0" x1="639.5" y1="1129.1" x2="639.5" y2="1136.2"/>
  <line class="st0" x1="970.8" y1="1061.2" x2="970.8" y2="1068.3"/>
  <polyline class="st0" points="189 68.9 119.9 68.9 119.8 140 112.7 140 112.7 198"/>
  <polyline class="st0" points="851.3 69 782.1 69 782 139.9 775.2 139.9"/>
  <polyline class="st0" points="1182.2 136.6 1113.1 136.6 1113.1 207.5 1106.4 207.5"/>
  <polyline class="st0" points="583.1 791.5 522.8 791.5 522.8 798.3 450.9 798.3 450.8 721.7 444.2 721.9"/>
  <polyline class="st0" points="914.3 723.6 854 723.6 854 730.4 782 730.4 782 653.8 775.4 654"/>
  <polyline class="st0" points="189 1061.4 119.8 1061.4 119.7 1054.5"/>
  <polyline class="st0" points="520 1129.4 450.8 1129.4 450.7 1052.5 444.2 1052.5"/>
  <polyline class="st0" points="250.3 76 189 76 189 68.9"/>
  <polyline class="st0" points="581.3 143.8 520.1 143.8 520.1 136.7"/>
  <polyline class="st0" points="912.5 75.9 851.3 75.9 851.3 69"/>
  <polyline class="st0" points="1243.5 143.5 1182.2 143.5 1182.2 136.4"/>
  <polyline class="st0" points="250.2 737.6 189 737.6 189 730.5"/>
  <polyline class="st0" points="581.2 805.4 520 805.4 520 798.3"/>
  <polyline class="st0" points="912.4 737.5 851.2 737.5 851.2 730.4"/>
  <polyline class="st0" points="250.3 406.9 189 406.9 189 399.8"/>
  <polyline class="st0" points="581.3 474.6 520.1 474.6 520.1 467.5"/>
  <polyline class="st0" points="912.4 406.7 851.2 406.7 851.2 399.6"/>
  <polyline class="st0" points="250.2 1068.5 189 1068.5 189 1061.4 191.7 1061.4"/>
  <polyline class="st0" points="581.2 1136.3 520 1136.3 520 1129.2 522.7 1129.3"/>
  <polyline class="st0" points="912.4 1068.3 851.2 1068.3 851.2 1061.3 854 1061.4"/>
  <polyline class="st0" points="119.8 394.8 119.8 323.1 112.7 323.1"/>
  <line class="st0" x1="1444.7" y1="391.4" x2="1444.7" y2="333.2"/>
  <polyline class="st0" points="119.7 1056.4 119.7 984.7 112.6 984.7"/>
  <polyline class="st0" points="119.8 725.7 119.8 654 112.7 654"/>
  <polyline class="st0" points="119.7 1387.3 119.7 1315.6 112.6 1315.6"/>
  <polyline class="st0" points="450.9 1455.1 450.9 1383.4 444.1 1383.4"/>
  <polyline class="st0" points="782.1 1392.3 782.1 1315.5 775.4 1315.5"/>
  <polyline class="st0" points="1444.9 333.2 1437.6 333.2 1437.6 265.3 1444.7 265.3 1444.7 208"/>
  <polyline class="st0" points="112.6 985.3 112.6 927.1 119.7 927.1 119.7 859.6"/>
  <polyline class="st0" points="112.7 654.6 112.7 596.4 119.8 596.4 119.8 528.9"/>
  <polyline class="st0" points="112.6 1316.2 112.6 1258 119.7 1258 119.7 1190.5"/>
  <polyline class="st0" points="112.6 859.6 112.6 801.6 119.7 801.6 119.7 730.5"/>
  <polyline class="st0" points="112.7 528.9 112.7 470.9 119.8 470.9 119.8 399.7 119.8 392.8"/>
  <polyline class="st0" points="112.6 1190.5 112.6 1132.5 119.7 1132.5 119.7 1061.3"/>
  <polyline class="st0" points="775.2 801.5 782.3 801.5 782 730.3"/>
  <polyline class="st0" points="775.2 470.7 782 470.7 782 323.1 775.3 323.1"/>
  <polyline class="st0" points="775 1132.5 782.1 1132.5 782 1061.2"/>
  <line class="st0" x1="119.8" y1="723.7" x2="119.8" y2="730.8"/>
  <line class="st0" x1="119.7" y1="1385.3" x2="119.7" y2="1392.4"/>
  <line class="st0" x1="450.9" y1="1453.1" x2="450.9" y2="1460.2"/>
  <line class="st0" x1="1112.9" y1="801.8" x2="1113" y2="859.8"/>
  <polyline class="st0" points="1106.5 198.2 1106.5 265.6 1113.6 265.6 1113.6 333 1106.5 333"/>
  <polyline class="st0" points="444.2 859.9 444.2 927.3 450.7 927.5 450.7 994.9 444.2 994.9"/>
  <polyline class="st0" points="775.1 859.4 782 859.5 782 927 775.1 927 775.2 995.4"/>
  <polyline class="st0" points="1113 1132.5 1106.3 1132.6 1106.4 1061.7 1106.5 985.4 1113.6 985.4 1113.6 985.9 1113.6 994.7 1106.5 994.7"/>
  <polyline class="st0" points="1113.6 985.4 1113.6 927.2 1113.6 927.7"/>
  <polyline class="st0" points="444.3 529.2 444.3 596.6 450.8 596.7 450.8 664.1 444.2 664.1"/>
  <polyline class="st0" points="775.2 528.6 782 528.8 782 596.2 775.3 596.2 775.4 663.9"/>
  <polyline class="st0" points="1113.2 801.7 1106.5 801.7 1106.6 730.9 1106.6 654.5 1113.8 654.6"/>
  <polyline class="st0" points="1113.6 654.6 1113.6 596.4 1113.6 597.2"/>
  <polyline class="st0" points="444.2 1190.8 444.2 1258.2 450.7 1258.3 450.7 1325.8 444.1 1325.8"/>
  <polyline class="st0" points="775 1190.3 782 1190.4 782 1257.8 775.3 1257.8 775.4 1326 782.2 1326"/>
  <polyline class="st0" points="1106.3 1392.2 1106.5 1316.2 1113.6 1316.1"/>
  <line class="st0" x1="119.7" y1="859.6" x2="112.6" y2="859.6"/>
  <line class="st0" x1="119.8" y1="528.9" x2="112.7" y2="528.9"/>
  <line class="st0" x1="119.7" y1="1190.5" x2="112.6" y2="1190.5"/>
  <polyline class="st0" points="782 538.8 775.2 538.8 775.3 391.6 782.4 391.6"/>
  <polyline class="st0" points="1113 470.9 1106.3 471 1106.5 400.1 1106.4 323.5 1113.5 323.5"/>
  <polyline class="st0" points="450.7 1132.7 444.1 1132.8 444.2 1061.8 444.2 985.4 450.7 985.4"/>
  <line class="st0" x1="782" y1="917.5" x2="782" y2="917.5"/>
  <polyline class="st0" points="450.7 801.8 444.1 801.8 444.2 731.1 444.1 654.6 450.8 654.6"/>
  <polyline class="st0" points="444.2 1392.5 444.2 1316.4 450.7 1316.4"/>
  <polyline class="st0" points="775.2 1460.1 775.1 1384 782.2 1384"/>
  <polyline class="st0" points="1113.6 1316.2 1113.6 1258.1 1106.5 1258.1 1106.5 1190.7"/>
  <polyline class="st0" points="450.8 140.2 444.2 140.2 444.2 69.4"/>
  <polyline class="st0" points="782 869.8 775 869.8 775.2 722.3"/>
  <line class="st0" x1="775.2" y1="1054.3" x2="775.2" y2="1129.6"/>
  <line class="st0" x1="775.4" y1="722.1" x2="775.4" y2="722.5"/>
  <line class="st0" x1="1107.1" y1="663.6" x2="1107.1" y2="663.8"/>
  <polyline class="st0" points="775.2 197.8 781.9 197.8 781.8 208"/>
  <polyline class="st0" points="1105.9 859.8 1106.5 927.2 1113.6 927.2"/>
  <polyline class="st0" points="1106.5 529.1 1106.5 596.4 1113.6 596.4"/>
  <line class="st0" x1="1106.5" y1="198.2" x2="1113.1" y2="198.2"/>
  <line class="st0" x1="375.6" y1="76" x2="308.6" y2="75.9"/>
  <line class="st0" x1="706.6" y1="143.8" x2="639.6" y2="143.7"/>
  <line class="st0" x1="1037.8" y1="75.9" x2="970.8" y2="75.8"/>
  <line class="st0" x1="1368.7" y1="143.5" x2="1301.8" y2="143.4"/>
  <line class="st0" x1="375.5" y1="737.6" x2="308.5" y2="737.5"/>
  <line class="st0" x1="706.5" y1="805.4" x2="639.5" y2="805.4"/>
  <line class="st0" x1="1037.7" y1="737.5" x2="970.8" y2="737.4"/>
  <line class="st0" x1="375.6" y1="406.9" x2="308.6" y2="406.8"/>
  <line class="st0" x1="706.6" y1="474.6" x2="639.6" y2="474.6"/>
  <line class="st0" x1="1037.7" y1="406.7" x2="970.8" y2="406.7"/>
  <line class="st0" x1="375.5" y1="1068.5" x2="308.5" y2="1068.4"/>
  <line class="st0" x1="706.5" y1="1136.3" x2="639.5" y2="1136.2"/>
  <line class="st0" x1="1037.7" y1="1068.3" x2="970.8" y2="1068.3"/>
  <polyline class="st0" points="119.7 399.6 190.5 399.9 191.8 399.9"/>
  <polyline class="st0" points="119.8 730.5 190.5 730.7 191.8 730.7"/>
  <polyline class="st0" points="119.2 1392.1 190.4 1392.3 191.7 1392.3"/>
  <polyline class="st0" points="375.5 1392.3 443.9 1392.3 444 1392.3"/>
  <polyline class="st0" points="706.5 1460.2 775.1 1460.2 775.2 1460.2"/>
  <polyline class="st0" points="1037.7 1392.2 1106.3 1392.2 1106.3 1392.2"/>
  <line class="st0" x1="450.8" y1="467.6" x2="522.8" y2="467.6"/>
  <line class="st0" x1="782" y1="399.7" x2="854" y2="399.7"/>
  <line class="st0" x1="782.1" y1="1392.2" x2="854" y2="1392.2"/>
  <polyline class="st0" points="315.4 392.8 315.4 399.9 252.1 399.9 252.1 392.8"/>
  <polyline class="st0" points="646.4 460.6 646.4 467.6 583.1 467.6 583.1 460.6"/>
  <polyline class="st0" points="977.6 392.7 977.6 399.7 914.4 399.7 914.4 392.7"/>
  <polyline class="st0" points="1308.6 460.3 1308.6 467.3 1245.3 467.3 1245.3 460.3"/>
  <polyline class="st0" points="315.3 1054.5 315.3 1061.5 252 1061.5 252 1054.5"/>
  <polyline class="st0" points="646.3 1122.3 646.3 1129.3 583.1 1129.3 583.1 1122.3"/>
  <polyline class="st0" points="977.6 1054.3 977.6 1061.3 914.3 1061.3 914.3 1054.3"/>
  <polyline class="st0" points="315.4 723.7 315.4 730.7 252.1 730.7 252.1 723.7"/>
  <polyline class="st0" points="646.4 791.5 646.4 798.5 583.1 798.5 583.1 791.5"/>
  <polyline class="st0" points="977.6 723.6 977.6 730.6 914.3 730.6 914.3 723.6"/>
  <polyline class="st0" points="315.3 1385.3 315.3 1392.3 252 1392.3 252 1385.3"/>
  <polyline class="st0" points="646.3 1453.1 646.3 1460.2 583.1 1460.2 583.1 1453.1"/>
  <polyline class="st0" points="977.6 1385.2 977.6 1392.2 914.3 1392.2 914.3 1385.2"/>
  <polyline class="st0" points="375.5 399.9 375.5 392.8 315.5 392.8"/>
  <polyline class="st0" points="706.5 467.6 706.5 460.6 646.5 460.6"/>
  <polyline class="st0" points="1037.7 399.7 1037.7 392.7 977.7 392.7"/>
  <polyline class="st0" points="1368.7 467.3 1368.7 460.3 1308.6 460.3"/>
  <polyline class="st0" points="375.4 1061.5 375.4 1054.5 315.4 1054.5"/>
  <polyline class="st0" points="706.4 1129.3 706.4 1122.3 646.4 1122.3"/>
  <polyline class="st0" points="1037.7 1061.3 1037.7 1054.3 977.6 1054.3"/>
  <polyline class="st0" points="375.5 730.7 375.5 723.7 315.5 723.7"/>
  <polyline class="st0" points="706.5 798.5 706.5 791.5 646.5 791.5"/>
  <polyline class="st0" points="1037.7 730.6 1037.7 723.6 977.6 723.6"/>
  <polyline class="st0" points="375.4 1392.3 375.4 1385.3 315.4 1385.3"/>
  <polyline class="st0" points="706.4 1460.2 706.4 1453.1 646.4 1453.1"/>
  <polyline class="st0" points="1037.7 1392.2 1037.7 1385.2 977.6 1385.2"/>
  <polyline class="st0" points="252.1 392.8 191.8 392.8 191.8 399.9"/>
  <polyline class="st0" points="583.1 460.6 522.8 460.6 522.8 467.6"/>
  <polyline class="st0" points="914.4 392.7 854 392.7 854 399.7"/>
  <polyline class="st0" points="1245.3 460.3 1185 460.3 1185 467.3"/>
  <polyline class="st0" points="583.1 1122.3 522.7 1122.3 522.7 1129.3"/>
  <polyline class="st0" points="914.3 1054.3 854 1054.3 854 1061.3"/>
  <polyline class="st0" points="252.1 723.7 191.8 723.7 191.8 730.7"/>
  <polyline class="st0" points="252 1385.3 191.7 1385.3 191.7 1392.3"/>
  <polyline class="st0" points="583.1 1453.1 522.7 1453.1 522.7 1460.2"/>
  <polyline class="st0" points="914.3 1385.2 854 1385.2 854 1392.2"/>
  <line class="st0" x1="1185" y1="467.3" x2="1112.9" y2="467.3"/>
  <line class="st0" x1="912.4" y1="730.5" x2="914.3" y2="730.5"/>
  <line class="st0" x1="583.1" y1="798.5" x2="581.2" y2="798.5"/>
  <line class="st0" x1="252.1" y1="730.7" x2="250.2" y2="730.7"/>
  <line class="st0" x1="252.1" y1="399.9" x2="250.3" y2="399.9"/>
  <line class="st0" x1="583.1" y1="467.6" x2="581.3" y2="467.6"/>
  <line class="st0" x1="583.1" y1="1129.3" x2="581.2" y2="1129.3"/>
  <line class="st0" x1="914.3" y1="1061.3" x2="912.4" y2="1061.3"/>
  <line class="st0" x1="522.7" y1="1460.2" x2="450.9" y2="1460.2"/>
  <line class="st0" x1="914.4" y1="399.7" x2="912.4" y2="399.7"/>
  <line class="st0" x1="444.3" y1="198.3" x2="450.8" y2="198.3"/>
  <polyline class="st0" points="520.1 136.9 450.9 136.9 450.8 207.7 444.3 207.7"/>
  <line class="st0" x1="775.2" y1="995.4" x2="782" y2="995.4"/>
  <line class="st0" x1="775.2" y1="1054.3" x2="782" y2="1054.3"/>
  <polyline class="st0" points="851.2 1061.4 782 1061.4 782 984.5 775 984.5"/>
  <line class="st0" x1="1106.5" y1="1190.7" x2="1113" y2="1190.7"/>
  <line class="st0" x1="1113" y1="1190.7" x2="1112.9" y2="1132.5"/>
  <line class="st0" x1="119.8" y1="198" x2="112.7" y2="198"/>
  <polyline class="st0" points="112.7 323.7 112.7 265.5 119.8 265.5 119.8 198"/>
  <line class="st0" x1="444.2" y1="859.9" x2="450.7" y2="859.9"/>
  <polyline class="st0" points="444.2 869.4 450.7 869.4 450.7 798.3"/>
  <line class="st0" x1="1105.9" y1="859.8" x2="1113" y2="859.8"/>
  <line class="st0" x1="444.2" y1="529.2" x2="450.8" y2="529.2"/>
  <polyline class="st0" points="444.3 538.6 450.8 538.6 450.8 467.5 450.8 390.9"/>
  <line class="st0" x1="1106.5" y1="529.1" x2="1113" y2="529.1"/>
  <polyline class="st0" points="1113 467.3 1113 390.6 1106.4 390.6"/>
  <line class="st0" x1="1112.9" y1="529.1" x2="1113" y2="470.9"/>
  <line class="st0" x1="444.1" y1="391" x2="451.2" y2="391"/>
  <polyline class="st0" points="444.1 413.2 444.2 400.3 444.2 323.7"/>
  <line class="st0" x1="444.1" y1="436.7" x2="444.1" y2="413.2"/>
  <polyline class="st0" points="450.8 471.1 444.1 471.1 444.1 436.7"/>
  <line class="st0" x1="444.2" y1="1190.8" x2="450.7" y2="1190.8"/>
  <polyline class="st0" points="444.2 1200.2 450.7 1200.2 450.7 1129.1"/>
  <line class="st0" x1="444.3" y1="323.9" x2="451.4" y2="323.9"/>
  <polyline class="st0" points="444.3 198.3 444.3 265.7 451.4 265.8 451.4 323.9 451.4 333.2 444.3 333.2"/>
  <polyline class="st0" points="1437.7 467.3 1437.7 391.4 1444.8 391.4"/>
  <line class="st0" x1="252" y1="1061.5" x2="250.2" y2="1061.5"/>
  <polyline class="st0" points="252 1054.5 191.7 1054.5 191.7 1061.5"/>
  <polygon class="st1" points="138.2 368.1 138.2 368.1 136.8 368.8 136.6 368 138.3 367.1 139.2 367.1 139.2 374.9 138.2 374.9 138.2 368.1"/>
  <path class="st1" d="M135.5,697v-.6l.8-.8c2-1.9,2.9-2.9,2.9-4.1,0-.8-.4-1.5-1.5-1.5s-1.3.4-1.7.7l-.3-.7c.5-.5,1.3-.8,2.2-.8,1.7,0,2.4,1.2,2.4,2.3s-1,2.6-2.7,4.2l-.6.6h0s3.5,0,3.5,0v.9h-5Z"/>
  <path class="st1" d="M139.4,1027.6c.3.2,1,.5,1.7.5,1.4,0,1.8-.9,1.8-1.5,0-1.1-1-1.6-2-1.6h-.6v-.8h.6c.8,0,1.7-.4,1.7-1.3s-.4-1.2-1.4-1.2-1.2.3-1.6.5l-.3-.8c.4-.3,1.2-.6,2-.6,1.5,0,2.2.9,2.2,1.9s-.5,1.5-1.4,1.8h0c1,.2,1.7.9,1.7,2s-1,2.3-2.8,2.3-1.6-.3-2-.5l.3-.8Z"/>
  <path class="st1" d="M141.5,1350.2v-2.6c0-.4,0-.8,0-1.2h0c-.2.5-.4.8-.6,1.2l-1.9,2.7h0s2.6,0,2.6,0h0ZM141.5,1353.2v-2.1h-3.6v-.7l3.5-5h1.1v4.8h1.1v.8h-1.1v2.1h-1Z"/>
  <path class="st1" d="M471.9,424h-3l-.3,2c.2,0,.3,0,.6,0,.6,0,1.2.1,1.7.4.6.3,1.1,1,1.1,2,0,1.5-1.2,2.7-2.9,2.7s-1.6-.2-1.9-.5l.3-.8c.3.2,1,.4,1.7.4s1.8-.6,1.8-1.7c0-1-.7-1.7-2.2-1.7s-.8,0-1.1,0l.5-3.7h3.7v.9Z"/>
  <path class="st1" d="M472.7,772.2c0-1.1-.6-1.8-1.6-1.8s-1.2.4-1.5,1c0,.1-.1.3-.1.5,0,1.3.6,2.2,1.7,2.2s1.5-.8,1.5-1.9h0ZM473,767.7c-.2,0-.5,0-.8,0-1.7.3-2.5,1.5-2.7,2.8h0c.4-.5,1-.9,1.9-.9,1.4,0,2.3,1,2.3,2.5s-1,2.7-2.6,2.7-2.8-1.3-2.8-3.3.6-2.7,1.3-3.5c.6-.6,1.5-1,2.5-1.2.3,0,.6,0,.8,0v.9Z"/>
  <polygon class="st1" points="472.6 1095.4 472.6 1096.1 469.2 1103.2 468.1 1103.2 471.4 1096.3 471.4 1096.2 467.6 1096.2 467.6 1095.4 472.6 1095.4"/>
  <path class="st1" d="M469.8,1425.7c0,.8.6,1.2,1.5,1.4.7-.2,1.2-.7,1.2-1.4s-.4-1.3-1.3-1.3-1.4.6-1.4,1.2h0ZM472.7,1429.6c0-.9-.7-1.4-1.7-1.7-.9.3-1.4.9-1.4,1.6,0,.8.6,1.5,1.6,1.5s1.6-.6,1.6-1.4h0ZM468.5,1429.6c0-1,.6-1.7,1.5-2.1h0c-.9-.4-1.2-1.1-1.2-1.8,0-1.2,1-2.1,2.4-2.1s2.3.9,2.3,1.9-.3,1.4-1.3,1.8h0c1,.4,1.6,1.1,1.6,2.1,0,1.4-1.2,2.3-2.7,2.3s-2.6-1-2.6-2.1Z"/>
  <polygon class="st1" points="805.7 696.2 805.7 696.2 804.3 697 804.1 696.1 805.8 695.2 806.7 695.2 806.7 703 805.7 703 805.7 696.2"/>
  <path class="st1" d="M810.5,699.2c0,2,.6,3.2,1.6,3.2s1.6-1.3,1.6-3.2-.5-3.2-1.6-3.2-1.6,1.1-1.6,3.2h0ZM814.8,699c0,2.7-1,4.1-2.7,4.1s-2.6-1.4-2.6-4c0-2.6,1.1-4.1,2.7-4.1s2.6,1.5,2.6,3.9Z"/>
  <path class="st1" d="M804.2,365.1c0,1,.6,1.7,1.5,1.7s1.3-.3,1.5-.8c0,0,0-.2,0-.4,0-1.3-.5-2.4-1.6-2.4s-1.5.8-1.5,1.9h0ZM803.8,369.6c.2,0,.5,0,.9,0,.6,0,1.2-.3,1.6-.8.5-.5.9-1.2,1-2.1h0c-.4.5-1.1.8-1.8.8-1.4,0-2.3-1.1-2.3-2.4s1.1-2.8,2.7-2.8,2.6,1.3,2.6,3.3-.6,2.9-1.3,3.7c-.6.6-1.4.9-2.3,1-.4,0-.7,0-1,0v-.9Z"/>
  <polygon class="st1" points="812.3 1032.4 812.3 1032.4 811 1033.1 810.7 1032.3 812.5 1031.4 813.4 1031.4 813.4 1039.2 812.3 1039.2 812.3 1032.4"/>
  <polygon class="st1" points="818.5 1032.4 818.5 1032.4 817.1 1033.1 816.9 1032.3 818.6 1031.4 819.5 1031.4 819.5 1039.2 818.5 1039.2 818.5 1032.4"/>
  <polygon class="st1" points="809.3 1365.5 809.3 1365.5 807.9 1366.2 807.7 1365.4 809.4 1364.5 810.3 1364.5 810.3 1372.3 809.3 1372.3 809.3 1365.5"/>
  <path class="st1" d="M813.2,1372.3v-.6l.8-.8c2-1.9,2.9-2.9,2.9-4.1,0-.8-.4-1.5-1.5-1.5s-1.3.4-1.7.7l-.3-.7c.5-.5,1.3-.8,2.2-.8,1.7,0,2.4,1.2,2.4,2.3s-1,2.6-2.7,4.2l-.6.6h0s3.5,0,3.5,0v.9h-5Z"/>
  <polygon class="st1" points="1140.8 428.4 1140.8 428.4 1139.5 429.1 1139.3 428.3 1141 427.4 1141.9 427.4 1141.9 435.2 1140.8 435.2 1140.8 428.4"/>
  <path class="st1" d="M1145,434c.3.2,1,.5,1.7.5,1.4,0,1.8-.9,1.8-1.5,0-1.1-1-1.6-2-1.6h-.6v-.8h.6c.8,0,1.7-.4,1.7-1.3s-.4-1.2-1.4-1.2-1.2.3-1.6.5l-.3-.8c.4-.3,1.2-.6,2-.6,1.5,0,2.2.9,2.2,1.9s-.5,1.5-1.4,1.8h0c1,.2,1.7.9,1.7,2s-1,2.3-2.8,2.3-1.6-.3-2-.5l.3-.8Z"/>
</svg>