<?xml version="1.0" encoding="UTF-8"?>
<svg id="Camada_1" xmlns="http://www.w3.org/2000/svg" width="90cm" height="54cm" version="1.1" viewBox="0 0 2551.2 1530.7">
  <!-- Generator: Adobe Illustrator 29.3.1, SVG Export Plug-In . SVG Version: 2.1.0 Build 151)  -->
  <defs>
    <style>
      .st0 {
        stroke: #00a651;
        stroke-miterlimit: 22.9;
        stroke-width: .6px;
      }

      .st0, .st1 {
        fill: none;
      }

      .st1 {
        stroke: #2e3192;
        stroke-miterlimit: 10;
        stroke-width: .5px;
      }
    </style>
  </defs>
  <line class="st1" x1="775.5" y1="723.2" x2="782.1" y2="723.2"/>
  <line class="st1" x1="775.5" y1="664.7" x2="782.1" y2="664.7"/>
  <polyline class="st1" points="250.3 76.9 250.3 69.8 308.6 69.8 308.6 76.8"/>
  <polyline class="st1" points="1575.3 76.7 1575.3 69.6 1633.6 69.6 1633.6 76.6"/>
  <polyline class="st1" points="581.3 144.7 581.3 137.6 639.6 137.6 639.6 144.6"/>
  <polyline class="st1" points="1906.3 144.5 1906.3 137.4 1964.6 137.4 1964.6 144.4"/>
  <polyline class="st1" points="912.6 76.8 912.6 69.7 970.9 69.7 970.9 76.7"/>
  <polyline class="st1" points="1243.6 144.4 1243.6 137.3 1301.9 137.3 1301.9 144.3"/>
  <line class="st1" x1="250.2" y1="738.5" x2="250.2" y2="731.6"/>
  <line class="st1" x1="1575.3" y1="738.3" x2="1575.3" y2="731.4"/>
  <line class="st1" x1="581.2" y1="806.3" x2="581.2" y2="799.3"/>
  <line class="st1" x1="912.5" y1="738.4" x2="912.5" y2="731.4"/>
  <line class="st1" x1="1243.5" y1="806" x2="1243.5" y2="798.9"/>
  <line class="st1" x1="250.3" y1="407.8" x2="250.3" y2="400.7"/>
  <line class="st1" x1="1575.3" y1="407.6" x2="1575.3" y2="400.5"/>
  <line class="st1" x1="581.3" y1="475.5" x2="581.3" y2="468.4"/>
  <line class="st1" x1="912.5" y1="407.6" x2="912.5" y2="400.5"/>
  <line class="st1" x1="1243.5" y1="475.2" x2="1243.5" y2="468.2"/>
  <line class="st1" x1="250.2" y1="1069.4" x2="250.2" y2="1062.3"/>
  <line class="st1" x1="1575.3" y1="1069.2" x2="1575.3" y2="1062.1"/>
  <line class="st1" x1="581.2" y1="1137.2" x2="581.2" y2="1130.1"/>
  <line class="st1" x1="912.5" y1="1069.2" x2="912.5" y2="1062.2"/>
  <line class="st1" x1="1243.5" y1="1136.8" x2="1243.5" y2="1129.8"/>
  <polyline class="st1" points="375.6 76.9 375.6 69.8 444.2 69.8"/>
  <polyline class="st1" points="1700.6 76.7 1700.6 69.6 1769.2 69.6"/>
  <polyline class="st1" points="706.7 144.7 706.7 137.6 775.3 137.6 775.3 208.9 781.9 208.9 781.9 266.3 775.5 266.3 775.6 266.6 775.6 334.4 782.1 334.4"/>
  <polyline class="st1" points="2031.6 144.5 2031.6 137.4 2100.2 137.4 2100.2 208.8 2106.8 208.7 2106.8 266 2100.5 266 2100.5 266.4 2100.5 334.2 2107.1 334.2"/>
  <polyline class="st1" points="1037.9 76.8 1037.9 69.7 1106.5 69.7 1106.5 140.9 1113.2 141"/>
  <polyline class="st1" points="1368.8 144.4 1368.8 137.3 1437.7 137.3 1437.7 208.9 1444.7 208.9"/>
  <polyline class="st1" points="375.5 738.5 375.5 731.4 444.1 731.4"/>
  <polyline class="st1" points="1700.6 738.3 1700.6 731.2 1769.2 731.2"/>
  <polyline class="st1" points="706.6 806.3 706.6 799.2 775.2 799.2"/>
  <line class="st1" x1="2031.6" y1="799" x2="2100.2" y2="799"/>
  <polyline class="st1" points="1037.8 738.4 1037.8 731.3 1106.4 731.3"/>
  <polyline class="st1" points="1368.8 806 1368.8 798.9 1437.4 798.9"/>
  <polyline class="st1" points="375.6 407.8 375.6 400.7 444.2 400.7"/>
  <polyline class="st1" points="1700.6 407.6 1700.6 400.5 1769.2 400.5"/>
  <polyline class="st1" points="706.7 475.5 706.7 468.4 775.3 468.4"/>
  <polyline class="st1" points="2031.6 475.4 2031.6 468.3 2100.2 468.3"/>
  <polyline class="st1" points="1037.8 407.6 1037.8 400.5 1106.4 400.5"/>
  <polyline class="st1" points="1368.8 475.2 1368.8 468.2 1437.7 468.2"/>
  <polyline class="st1" points="375.5 1069.4 375.5 1062.3 444.1 1062.3"/>
  <polyline class="st1" points="1700.6 1069.2 1700.6 1062.1 1769.2 1062.1"/>
  <polyline class="st1" points="706.6 1137.2 706.6 1130.1 775.2 1130.1 775.2 1201.7 781.9 1201.6"/>
  <polyline class="st1" points="1037.8 1069.2 1037.8 1062.2 1106.4 1062.2"/>
  <polyline class="st1" points="1368.8 1136.8 1368.8 1129.8 1437.7 1129.8"/>
  <line class="st1" x1="308.5" y1="731.4" x2="308.5" y2="738.4"/>
  <line class="st1" x1="1633.6" y1="731.4" x2="1633.6" y2="738.2"/>
  <line class="st1" x1="639.5" y1="799.4" x2="639.5" y2="806.3"/>
  <line class="st1" x1="970.9" y1="731.2" x2="970.9" y2="738.3"/>
  <line class="st1" x1="1301.8" y1="798.8" x2="1301.8" y2="805.9"/>
  <line class="st1" x1="308.6" y1="400.6" x2="308.6" y2="407.7"/>
  <line class="st1" x1="1633.6" y1="400.4" x2="1633.6" y2="407.5"/>
  <line class="st1" x1="639.6" y1="468.4" x2="639.6" y2="475.5"/>
  <line class="st1" x1="1964.6" y1="468.2" x2="1964.6" y2="475.3"/>
  <line class="st1" x1="970.9" y1="400.5" x2="970.9" y2="407.6"/>
  <line class="st1" x1="1301.8" y1="468.1" x2="1301.8" y2="475.2"/>
  <line class="st1" x1="308.5" y1="1062.2" x2="308.5" y2="1069.3"/>
  <line class="st1" x1="1633.6" y1="1062" x2="1633.6" y2="1069.1"/>
  <line class="st1" x1="639.5" y1="1130" x2="639.5" y2="1137.1"/>
  <line class="st1" x1="970.9" y1="1062.1" x2="970.9" y2="1069.2"/>
  <line class="st1" x1="1301.8" y1="1129.7" x2="1301.8" y2="1136.8"/>
  <polyline class="st1" points="189 69.8 119.9 69.8 119.8 140.9 112.7 140.9 112.7 198.9"/>
  <polyline class="st1" points="1514 69.6 1444.9 69.6 1444.8 140.7 1437.7 140.7"/>
  <line class="st1" x1="1845.1" y1="137.6" x2="1776" y2="137.6"/>
  <polyline class="st1" points="851.4 69.9 782.2 69.9 782.1 140.8 775.3 140.8"/>
  <polyline class="st1" points="1182.3 137.5 1113.2 137.5 1113.2 208.4 1106.5 208.4"/>
  <polyline class="st1" points="1516.7 731.2 1444.9 731.2 1444.8 802.3 1437.7 802.3"/>
  <polyline class="st1" points="583.1 792.4 522.8 792.4 522.8 799.2 450.9 799.2 450.8 722.6 444.2 722.8"/>
  <polyline class="st1" points="1908.1 792.2 1847.8 792.2 1847.8 799 1775.9 799 1775.8 722.5 1769.2 722.5"/>
  <polyline class="st1" points="914.4 724.5 854.1 724.5 854.1 731.3 782.1 731.3 782.1 654.7 775.5 654.9"/>
  <line class="st1" x1="2107.1" y1="596.9" x2="2107.1" y2="539.6"/>
  <line class="st1" x1="2100.5" y1="596.9" x2="2107.1" y2="596.9"/>
  <line class="st1" x1="2100.3" y1="654.7" x2="2100.5" y2="596.9"/>
  <line class="st1" x1="2107.1" y1="723" x2="2107.1" y2="664.7"/>
  <polyline class="st1" points="1245.3 792.1 1185 792.1 1185 798.9 1113.2 798.9 1113 722.4 1106.6 722.5"/>
  <polyline class="st1" points="1577.1 393.5 1516.8 393.5 1516.8 400.5 1444.9 400.5"/>
  <polyline class="st1" points="189 1062.3 119.8 1062.3 119.7 1055.4"/>
  <polyline class="st1" points="1577.1 1055.1 1516.8 1055.1 1516.7 1062.1 1444.9 1062.1 1444.8 985.4 1437.7 985.4"/>
  <polyline class="st1" points="520 1130.3 450.8 1130.3 450.7 1053.4 444.2 1053.4"/>
  <line class="st1" x1="1182.3" y1="1129.9" x2="1113.1" y2="1129.9"/>
  <polyline class="st1" points="250.3 76.9 189 76.9 189 69.8"/>
  <polyline class="st1" points="1575.3 76.7 1514 76.7 1514 69.6"/>
  <polyline class="st1" points="581.3 144.7 520.1 144.7 520.1 137.6"/>
  <polyline class="st1" points="1906.3 144.5 1845.1 144.5 1845.1 137.4"/>
  <polyline class="st1" points="912.6 76.8 851.4 76.8 851.4 69.9"/>
  <polyline class="st1" points="1243.6 144.4 1182.3 144.4 1182.3 137.3"/>
  <polyline class="st1" points="250.2 738.5 189 738.5 189 731.4"/>
  <polyline class="st1" points="1575.3 738.3 1514 738.3 1514 731.2"/>
  <polyline class="st1" points="581.2 806.3 520 806.3 520 799.2"/>
  <polyline class="st1" points="912.5 738.4 851.3 738.4 851.3 731.3"/>
  <polyline class="st1" points="1243.5 806 1182.3 806 1182.3 798.9"/>
  <polyline class="st1" points="250.3 407.8 189 407.8 189 400.7"/>
  <polyline class="st1" points="1575.3 407.6 1514 407.6 1514 400.5"/>
  <polyline class="st1" points="581.3 475.5 520.1 475.5 520.1 468.4"/>
  <polyline class="st1" points="912.5 407.6 851.3 407.6 851.3 400.5"/>
  <polyline class="st1" points="1243.5 475.2 1182.3 475.2 1182.3 468.2"/>
  <polyline class="st1" points="250.2 1069.4 189 1069.4 189 1062.3 191.7 1062.3"/>
  <polyline class="st1" points="1575.3 1069.2 1514 1069.2 1514 1062.1"/>
  <polyline class="st1" points="581.2 1137.2 520 1137.2 520 1130.1 522.7 1130.2"/>
  <polyline class="st1" points="912.5 1069.2 851.3 1069.2 851.3 1062.2 854.1 1062.3"/>
  <polyline class="st1" points="1243.5 1136.8 1182.3 1136.8 1182.3 1129.8 1185 1129.8"/>
  <polyline class="st1" points="119.8 395.7 119.8 324 112.7 324"/>
  <polyline class="st1" points="1437.7 471.6 1444.8 471.5 1444.8 323.8 1437.7 323.8"/>
  <polyline class="st1" points="119.7 1057.3 119.7 985.6 112.6 985.6"/>
  <polyline class="st1" points="119.8 726.6 119.8 654.9 112.7 654.9"/>
  <polyline class="st1" points="1444.8 726.4 1444.8 654.7 1437.7 654.7"/>
  <polyline class="st1" points="119.7 1388.2 119.7 1316.5 112.6 1316.5"/>
  <polyline class="st1" points="1444.8 1388 1444.8 1316.3 1437.7 1316.3"/>
  <polyline class="st1" points="450.9 1456.1 450.9 1384.3 444.1 1384.3"/>
  <polyline class="st1" points="782.2 1393.2 782.2 1316.4 775.5 1316.4"/>
  <polyline class="st1" points="1113.2 1460.9 1113.2 1384 1106.4 1384"/>
  <polyline class="st1" points="1445 334.1 1437.7 334.1 1437.7 266.2 1444.8 266.2 1444.8 198.7"/>
  <polyline class="st1" points="112.6 986.2 112.6 928 119.7 928 119.7 860.5"/>
  <polyline class="st1" points="1444.8 995.7 1437.7 995.7 1437.7 927.8 1444.8 927.8 1444.8 860.3"/>
  <polyline class="st1" points="112.7 655.5 112.7 597.3 119.8 597.3 119.8 529.8"/>
  <polyline class="st1" points="1437.7 655.2 1437.7 597.1 1444.8 597.1 1444.8 529.6"/>
  <polyline class="st1" points="112.6 1317.1 112.6 1258.9 119.7 1258.9 119.7 1191.4"/>
  <polyline class="st1" points="1444.8 1326.6 1437.7 1326.5 1437.7 1258.7 1444.8 1258.7 1444.8 1191.2"/>
  <polyline class="st1" points="112.6 860.5 112.6 802.5 119.7 802.5 119.7 731.4"/>
  <polyline class="st1" points="112.7 529.8 112.7 471.8 119.8 471.8 119.8 400.6 119.8 393.7"/>
  <polyline class="st1" points="112.6 1191.4 112.6 1133.4 119.7 1133.4 119.7 1062.2"/>
  <polyline class="st1" points="775.3 802.4 782.4 802.4 782.1 731.2"/>
  <polyline class="st1" points="775.3 471.6 782.1 471.6 782.1 324 775.4 324"/>
  <polyline class="st1" points="1437.7 1133.2 1444.8 1133.2 1444.8 1062"/>
  <polyline class="st1" points="775.1 1133.4 782.2 1133.4 782.1 1062.1"/>
  <line class="st1" x1="119.8" y1="724.6" x2="119.8" y2="731.7"/>
  <line class="st1" x1="1444.8" y1="724.4" x2="1444.8" y2="731.5"/>
  <line class="st1" x1="119.7" y1="1386.2" x2="119.7" y2="1393.3"/>
  <line class="st1" x1="1444.8" y1="1386" x2="1444.8" y2="1392.8"/>
  <line class="st1" x1="450.9" y1="1454.1" x2="450.9" y2="1461.2"/>
  <polyline class="st1" points="1113 798.8 1113 802.7 1113.1 860.7"/>
  <polyline class="st1" points="1769.3 199 1769.3 266.4 1775.8 266.5 1775.8 334 1769.2 334"/>
  <polyline class="st1" points="1106.6 199.1 1106.6 266.5 1113.7 266.5 1113.7 333.9 1106.6 333.9"/>
  <polyline class="st1" points="444.2 860.8 444.2 928.2 450.7 928.4 450.7 995.8 444.2 995.8"/>
  <polyline class="st1" points="1769.3 860.6 1769.3 928 1775.8 928.1 1775.8 986.2"/>
  <polyline class="st1" points="775.2 860.3 782.1 860.4 782.1 927.9 775.2 927.9 775.3 996.3"/>
  <polyline class="st1" points="1113.1 1133.4 1106.4 1133.5 1106.5 1062.6 1106.6 986.3 1113.7 986.3 1113.7 986.8 1113.7 995.6 1106.6 995.6"/>
  <polyline class="st1" points="1113.7 986.3 1113.7 928.1 1113.7 928.6"/>
  <polyline class="st1" points="444.3 530.1 444.3 597.5 450.8 597.6 450.8 665 444.2 665"/>
  <polyline class="st1" points="1769.3 529.9 1769.3 597.3 1775.8 597.4 1775.8 664.9 1769.2 664.9"/>
  <polyline class="st1" points="775.3 529.5 782.1 529.7 782.1 597.1 775.4 597.1 775.5 664.8"/>
  <polyline class="st1" points="1113.1 802.6 1106.4 802.6 1106.5 731.8 1106.6 655.4 1113.7 655.5 1113.7 655.5 1113.7 664.8 1106.6 664.8"/>
  <polyline class="st1" points="1113.7 655.5 1113.7 597.3 1113.7 598.1"/>
  <polyline class="st1" points="444.2 1191.7 444.2 1259.1 450.7 1259.2 450.7 1326.7 444.1 1326.7"/>
  <polyline class="st1" points="1769.3 1191.5 1769.3 1258.9 1775.8 1259 1775.8 1317.1"/>
  <polyline class="st1" points="775.1 1191.2 782.1 1191.3 782.1 1258.7 775.4 1258.7 775.5 1326.9 782.3 1326.9"/>
  <polyline class="st1" points="1106.4 1393.1 1106.6 1317.1 1113.7 1317 1113.7 1326.4 1106.6 1326.4 1106.4 1326.5"/>
  <line class="st1" x1="1444.8" y1="198.7" x2="1437.7" y2="198.7"/>
  <line class="st1" x1="119.7" y1="860.5" x2="112.6" y2="860.5"/>
  <line class="st1" x1="119.8" y1="529.8" x2="112.7" y2="529.8"/>
  <line class="st1" x1="119.7" y1="1191.4" x2="112.6" y2="1191.4"/>
  <polyline class="st1" points="782.1 539.7 775.3 539.7 775.4 392.5 782.5 392.5"/>
  <polyline class="st1" points="1113.1 471.8 1106.4 471.9 1106.6 401 1106.5 324.4 1113.6 324.4"/>
  <polyline class="st1" points="450.7 1133.6 444.1 1133.7 444.2 1062.7 444.2 986.3 450.7 986.3"/>
  <polyline class="st1" points="1775.8 1133.4 1769.2 1133.4 1769.3 986.2 1775.8 986.2"/>
  <line class="st1" x1="782.1" y1="918.4" x2="782.1" y2="918.4"/>
  <polyline class="st1" points="450.7 802.7 444.1 802.7 444.2 732 444.1 655.5 450.8 655.5"/>
  <polyline class="st1" points="1775.8 802.5 1769.2 802.5 1769.3 655.5 1775.8 655.5"/>
  <polyline class="st1" points="444.2 1393.4 444.2 1317.3 450.7 1317.3"/>
  <polyline class="st1" points="1769.2 1393 1769.3 1317.1 1775.8 1317.1"/>
  <polyline class="st1" points="775.3 1461.1 775.2 1384.9 782.3 1384.9"/>
  <polyline class="st1" points="1437.4 1461.2 1437.4 1384.6 1444.7 1384.6"/>
  <polyline class="st1" points="1113.7 1317.1 1113.7 1259 1106.6 1259 1106.6 1191.6"/>
  <polyline class="st1" points="1775.8 199 1775.8 140.9 1769.3 140.9 1769.2 70.1"/>
  <polyline class="st1" points="450.8 141.1 444.2 141.1 444.2 70.3"/>
  <polyline class="st1" points="782.1 870.7 775.1 870.7 775.3 723.2"/>
  <polyline class="st1" points="2107.2 539.6 2100.2 539.6 2100.3 392.2"/>
  <line class="st1" x1="775.3" y1="1055.2" x2="775.3" y2="1130.5"/>
  <line class="st1" x1="775.5" y1="723" x2="775.5" y2="723.4"/>
  <line class="st1" x1="1106.4" y1="664.7" x2="1106.4" y2="665"/>
  <line class="st1" x1="2100.3" y1="654.7" x2="2100.3" y2="664.7"/>
  <polyline class="st1" points="775.3 198.7 782 198.7 781.9 208.9"/>
  <polyline class="st1" points="1106.6 860.7 1106.6 928.1 1113.7 928.1"/>
  <polyline class="st1" points="1106.6 530 1106.6 597.3 1113.7 597.3"/>
  <polyline class="st1" points="1437.5 654.9 1437.5 655 1437.5 665 1444.6 665"/>
  <line class="st1" x1="1106.6" y1="199.1" x2="1113.2" y2="199.1"/>
  <line class="st1" x1="375.6" y1="76.9" x2="308.6" y2="76.8"/>
  <line class="st1" x1="1700.6" y1="76.7" x2="1633.6" y2="76.6"/>
  <line class="st1" x1="706.7" y1="144.7" x2="639.6" y2="144.6"/>
  <line class="st1" x1="2031.6" y1="144.5" x2="1964.6" y2="144.4"/>
  <line class="st1" x1="1037.9" y1="76.8" x2="970.9" y2="76.7"/>
  <line class="st1" x1="1368.8" y1="144.4" x2="1301.9" y2="144.3"/>
  <line class="st1" x1="375.5" y1="738.5" x2="308.5" y2="738.4"/>
  <line class="st1" x1="1700.6" y1="738.3" x2="1633.6" y2="738.2"/>
  <line class="st1" x1="706.6" y1="806.3" x2="639.5" y2="806.3"/>
  <line class="st1" x1="1037.8" y1="738.4" x2="970.9" y2="738.3"/>
  <line class="st1" x1="1368.8" y1="806" x2="1301.8" y2="805.9"/>
  <line class="st1" x1="375.6" y1="407.8" x2="308.6" y2="407.7"/>
  <line class="st1" x1="1700.6" y1="407.6" x2="1633.6" y2="407.5"/>
  <line class="st1" x1="706.7" y1="475.5" x2="639.6" y2="475.5"/>
  <line class="st1" x1="2031.6" y1="475.4" x2="1964.6" y2="475.3"/>
  <line class="st1" x1="1037.8" y1="407.6" x2="970.9" y2="407.6"/>
  <line class="st1" x1="1368.8" y1="475.2" x2="1301.8" y2="475.2"/>
  <line class="st1" x1="375.5" y1="1069.4" x2="308.5" y2="1069.3"/>
  <line class="st1" x1="1700.6" y1="1069.2" x2="1633.6" y2="1069.1"/>
  <line class="st1" x1="706.6" y1="1137.2" x2="639.5" y2="1137.1"/>
  <line class="st1" x1="1037.8" y1="1069.2" x2="970.9" y2="1069.2"/>
  <line class="st1" x1="1368.8" y1="1136.8" x2="1301.8" y2="1136.8"/>
  <polyline class="st1" points="119.7 400.5 190.5 400.8 191.8 400.8"/>
  <polyline class="st1" points="119.8 731.4 190.5 731.6 191.8 731.6"/>
  <polyline class="st1" points="119.2 1393 190.4 1393.2 191.7 1393.2"/>
  <polyline class="st1" points="1444.8 1392.8 1515.5 1393 1516.8 1393"/>
  <polyline class="st1" points="1112.7 1460.6 1183.8 1460.8 1185 1460.8"/>
  <polyline class="st1" points="375.5 1393.2 443.9 1393.2 444 1393.2"/>
  <polyline class="st1" points="1700.6 1393 1769.2 1393 1769.2 1393"/>
  <polyline class="st1" points="706.6 1461.2 775.2 1461.2 775.3 1461.2"/>
  <polyline class="st1" points="1037.8 1393.1 1106.4 1393.1 1106.4 1393.1"/>
  <polyline class="st1" points="1368.8 1460.8 1436.5 1460.8 1436.6 1460.8"/>
  <line class="st1" x1="450.8" y1="468.5" x2="522.8" y2="468.5"/>
  <line class="st1" x1="1775.8" y1="468.4" x2="1847.8" y2="468.4"/>
  <line class="st1" x1="782.1" y1="400.6" x2="854.1" y2="400.6"/>
  <line class="st1" x1="782.2" y1="1393.1" x2="854.1" y2="1393.1"/>
  <polyline class="st1" points="315.4 393.7 315.4 400.8 252.1 400.8 252.1 393.7"/>
  <polyline class="st1" points="1640.4 393.5 1640.4 400.5 1577.1 400.5 1577.1 393.5"/>
  <polyline class="st1" points="646.4 461.5 646.4 468.5 583.1 468.5 583.1 461.5"/>
  <polyline class="st1" points="1971.4 461.4 1971.4 468.4 1908.1 468.4 1908.1 461.4"/>
  <polyline class="st1" points="977.7 393.6 977.7 400.6 914.5 400.6 914.5 393.6"/>
  <polyline class="st1" points="1308.7 461.2 1308.7 468.2 1245.4 468.2 1245.4 461.2"/>
  <polyline class="st1" points="315.3 1055.4 315.3 1062.4 252 1062.4 252 1055.4"/>
  <polyline class="st1" points="1640.4 1055.1 1640.4 1062.2 1577.1 1062.2 1577.1 1055.1"/>
  <polyline class="st1" points="646.3 1123.2 646.3 1130.2 583.1 1130.2 583.1 1123.2"/>
  <polyline class="st1" points="977.7 1055.2 977.7 1062.2 914.4 1062.2 914.4 1055.2"/>
  <polyline class="st1" points="1308.6 1122.8 1308.6 1129.8 1245.3 1129.8 1245.3 1122.8"/>
  <polyline class="st1" points="315.4 724.6 315.4 731.6 252.1 731.6 252.1 724.6"/>
  <polyline class="st1" points="1640.4 724.4 1640.4 731.4 1577.1 731.4 1577.1 724.4"/>
  <polyline class="st1" points="646.4 792.4 646.4 799.4 583.1 799.4 583.1 792.4"/>
  <polyline class="st1" points="1971.4 792.2 1971.4 799.2 1908.1 799.2 1908.1 792.2"/>
  <polyline class="st1" points="977.7 724.5 977.7 731.5 914.4 731.5 914.4 724.5"/>
  <polyline class="st1" points="1308.6 792.1 1308.6 799.1 1245.3 799.1 1245.3 792.1"/>
  <polyline class="st1" points="315.3 1386.2 315.3 1393.2 252 1393.2 252 1386.2"/>
  <polyline class="st1" points="1640.4 1386 1640.4 1393 1577.1 1393 1577.1 1386"/>
  <polyline class="st1" points="646.3 1454.1 646.3 1461.2 583.1 1461.2 583.1 1454.1"/>
  <polyline class="st1" points="977.7 1386.1 977.7 1393.1 914.4 1393.1 914.4 1386.1"/>
  <polyline class="st1" points="1308.6 1453.8 1308.6 1460.8 1245.3 1460.8 1245.3 1453.8"/>
  <polyline class="st1" points="375.5 400.8 375.5 393.7 315.5 393.7"/>
  <polyline class="st1" points="1700.5 400.5 1700.5 393.5 1640.5 393.5"/>
  <polyline class="st1" points="706.6 468.5 706.6 461.5 646.5 461.5"/>
  <polyline class="st1" points="2031.5 468.4 2031.5 461.4 1971.5 461.4"/>
  <polyline class="st1" points="1037.8 400.6 1037.8 393.6 977.8 393.6"/>
  <polyline class="st1" points="1368.8 468.2 1368.8 461.2 1308.7 461.2"/>
  <polyline class="st1" points="375.4 1062.4 375.4 1055.4 315.4 1055.4"/>
  <polyline class="st1" points="1700.5 1062.2 1700.5 1055.1 1640.5 1055.1"/>
  <polyline class="st1" points="706.5 1130.2 706.5 1123.2 646.4 1123.2"/>
  <polyline class="st1" points="1037.8 1062.2 1037.8 1055.2 977.7 1055.2"/>
  <polyline class="st1" points="1368.7 1129.8 1368.7 1122.8 1308.7 1122.8"/>
  <polyline class="st1" points="375.5 731.6 375.5 724.6 315.5 724.6"/>
  <polyline class="st1" points="1700.5 731.4 1700.5 724.4 1640.5 724.4"/>
  <polyline class="st1" points="706.6 799.4 706.6 792.4 646.5 792.4"/>
  <polyline class="st1" points="2031.5 799.2 2031.5 792.2 1971.5 792.2"/>
  <polyline class="st1" points="1037.8 731.5 1037.8 724.5 977.7 724.5"/>
  <polyline class="st1" points="1368.7 799.1 1368.7 792.1 1308.7 792.1"/>
  <polyline class="st1" points="375.4 1393.2 375.4 1386.2 315.4 1386.2"/>
  <polyline class="st1" points="1700.5 1393 1700.5 1386 1640.5 1386"/>
  <polyline class="st1" points="706.5 1461.2 706.5 1454.1 646.4 1454.1"/>
  <polyline class="st1" points="1037.8 1393.1 1037.8 1386.1 977.7 1386.1"/>
  <polyline class="st1" points="1368.7 1460.8 1368.7 1453.8 1308.7 1453.8"/>
  <polyline class="st1" points="252.1 393.7 191.8 393.7 191.8 400.8"/>
  <polyline class="st1" points="583.1 461.5 522.8 461.5 522.8 468.5"/>
  <polyline class="st1" points="1908.1 461.4 1847.8 461.4 1847.8 468.4"/>
  <polyline class="st1" points="914.5 393.6 854.1 393.6 854.1 400.6"/>
  <polyline class="st1" points="1245.4 461.2 1185.1 461.2 1185.1 468.2"/>
  <polyline class="st1" points="583.1 1123.2 522.7 1123.2 522.7 1130.2"/>
  <polyline class="st1" points="914.4 1055.2 854.1 1055.2 854.1 1062.2"/>
  <polyline class="st1" points="1245.3 1122.8 1185 1122.8 1185 1129.8"/>
  <polyline class="st1" points="252.1 724.6 191.8 724.6 191.8 731.6"/>
  <polyline class="st1" points="1577.1 724.4 1516.8 724.4 1516.8 731.4"/>
  <polyline class="st1" points="252 1386.2 191.7 1386.2 191.7 1393.2"/>
  <polyline class="st1" points="1577.1 1386 1516.8 1386 1516.8 1393"/>
  <polyline class="st1" points="583.1 1454.1 522.7 1454.1 522.7 1461.2"/>
  <polyline class="st1" points="914.4 1386.1 854.1 1386.1 854.1 1393.1"/>
  <polyline class="st1" points="1245.3 1453.8 1185 1453.8 1185 1460.8"/>
  <line class="st1" x1="1185.1" y1="468.2" x2="1113" y2="468.2"/>
  <line class="st1" x1="1577.1" y1="731.4" x2="1575.3" y2="731.4"/>
  <line class="st1" x1="1245.3" y1="799.1" x2="1243.5" y2="799.1"/>
  <line class="st1" x1="912.5" y1="731.4" x2="914.4" y2="731.4"/>
  <line class="st1" x1="583.1" y1="799.4" x2="581.2" y2="799.4"/>
  <line class="st1" x1="252.1" y1="731.6" x2="250.2" y2="731.6"/>
  <line class="st1" x1="252.1" y1="400.8" x2="250.3" y2="400.8"/>
  <line class="st1" x1="583.1" y1="468.5" x2="581.3" y2="468.5"/>
  <line class="st1" x1="583.1" y1="1130.2" x2="581.2" y2="1130.2"/>
  <line class="st1" x1="914.4" y1="1062.2" x2="912.5" y2="1062.2"/>
  <line class="st1" x1="522.7" y1="1461.2" x2="450.9" y2="1461.2"/>
  <line class="st1" x1="914.5" y1="400.6" x2="912.5" y2="400.6"/>
  <line class="st1" x1="1245.3" y1="1129.8" x2="1243.5" y2="1129.8"/>
  <line class="st1" x1="1245.4" y1="468.2" x2="1243.5" y2="468.2"/>
  <line class="st1" x1="1577.1" y1="1062.2" x2="1575.3" y2="1062.2"/>
  <line class="st1" x1="2100.3" y1="664.7" x2="2107.1" y2="664.7"/>
  <line class="st1" x1="1908.1" y1="468.4" x2="1906.3" y2="468.4"/>
  <line class="st1" x1="1577.1" y1="400.5" x2="1575.3" y2="400.5"/>
  <line class="st1" x1="1906.3" y1="475.4" x2="1906.3" y2="468.3"/>
  <polyline class="st1" points="1906.3 475.4 1845.1 475.4 1845.1 468.3"/>
  <line class="st1" x1="444.3" y1="199.2" x2="450.8" y2="199.2"/>
  <polyline class="st1" points="520.1 137.8 450.9 137.8 450.8 208.6 444.3 208.6"/>
  <line class="st1" x1="775.3" y1="996.3" x2="782.1" y2="996.3"/>
  <line class="st1" x1="775.3" y1="1055.2" x2="782.1" y2="1055.2"/>
  <polyline class="st1" points="851.3 1062.3 782.1 1062.3 782.1 985.4 775.1 985.4"/>
  <line class="st1" x1="1769.3" y1="1191.5" x2="1775.8" y2="1191.5"/>
  <line class="st1" x1="1775.8" y1="1191.5" x2="1775.8" y2="1133.4"/>
  <line class="st1" x1="1106.6" y1="1191.6" x2="1113.1" y2="1191.6"/>
  <polyline class="st1" points="1106.6 1201 1113.1 1201 1113 1133.4 1113 1053.2 1106.5 1053.2"/>
  <line class="st1" x1="119.8" y1="198.9" x2="112.7" y2="198.9"/>
  <polyline class="st1" points="112.7 324.6 112.7 266.4 119.8 266.4 119.8 198.9"/>
  <line class="st1" x1="1444.8" y1="1191.2" x2="1437.7" y2="1191.2"/>
  <polyline class="st1" points="1444.9 1201.1 1437.7 1201.1 1437.7 1053.9 1444.7 1053.9"/>
  <line class="st1" x1="1769.2" y1="199" x2="1775.8" y2="199"/>
  <polyline class="st1" points="1769.2 208.5 1775.8 208.5 1775.8 137.4"/>
  <line class="st1" x1="444.2" y1="860.8" x2="450.7" y2="860.8"/>
  <polyline class="st1" points="444.2 870.3 450.7 870.3 450.7 799.2"/>
  <line class="st1" x1="1769.2" y1="860.6" x2="1775.8" y2="860.6"/>
  <line class="st1" x1="1775.8" y1="860.6" x2="1775.8" y2="802.5"/>
  <line class="st1" x1="1106" y1="860.7" x2="1113.1" y2="860.7"/>
  <polyline class="st1" points="1106.2 870 1113.3 870 1113 859.6 1113 859.3"/>
  <line class="st1" x1="444.2" y1="530.1" x2="450.8" y2="530.1"/>
  <polyline class="st1" points="444.3 539.5 450.8 539.5 450.8 468.4 450.8 391.8"/>
  <line class="st1" x1="1775.8" y1="471.8" x2="1768.7" y2="471.8"/>
  <line class="st1" x1="1769.3" y1="529.9" x2="1775.8" y2="529.9"/>
  <polyline class="st1" points="1769.3 539.4 1775.8 539.4 1775.8 468.2 1775.8 391.6"/>
  <line class="st1" x1="2100.3" y1="392.4" x2="2107.1" y2="392.4"/>
  <line class="st1" x1="2107.1" y1="392.4" x2="2107.1" y2="334.2"/>
  <line class="st1" x1="1106.6" y1="530" x2="1113.1" y2="530"/>
  <polyline class="st1" points="1106.5 539.2 1113 539.2 1113.1 471.8 1113.1 391.5 1106.5 391.5"/>
  <line class="st1" x1="444.1" y1="391.9" x2="451.2" y2="391.9"/>
  <polyline class="st1" points="444.1 414.1 444.2 401.2 444.2 324.6"/>
  <line class="st1" x1="444.1" y1="437.6" x2="444.1" y2="414.1"/>
  <polyline class="st1" points="450.8 472 444.1 472 444.1 437.6"/>
  <line class="st1" x1="1769.2" y1="391.8" x2="1776" y2="391.8"/>
  <polyline class="st1" points="1769.2 471.8 1769.3 324.6 1775.8 324.6"/>
  <line class="st1" x1="444.2" y1="1191.7" x2="450.7" y2="1191.7"/>
  <polyline class="st1" points="444.2 1201.1 450.7 1201.1 450.7 1130"/>
  <line class="st1" x1="444.3" y1="324.8" x2="451.4" y2="324.8"/>
  <polyline class="st1" points="444.3 199.2 444.3 266.6 451.4 266.7 451.4 324.8 451.4 334.1 444.3 334.1"/>
  <line class="st1" x1="1444.8" y1="860.3" x2="1437.6" y2="860.3"/>
  <polyline class="st1" points="1444.8 870.2 1437.4 870.2 1437.4 723 1444.7 723"/>
  <line class="st1" x1="1444.8" y1="529.6" x2="1437.7" y2="529.6"/>
  <polyline class="st1" points="1444.9 539.4 1437.7 539.4 1437.8 392.3 1444.9 392.3"/>
  <line class="st1" x1="2100.3" y1="723" x2="2107.1" y2="723"/>
  <line class="st1" x1="2100.3" y1="799" x2="2100.3" y2="723"/>
  <line class="st1" x1="252" y1="1062.4" x2="250.2" y2="1062.4"/>
  <polyline class="st1" points="252 1055.4 191.7 1055.4 191.7 1062.4"/>
  <polygon class="st0" points="138.2 369 138.2 369 136.8 369.7 136.6 368.9 138.3 368 139.2 368 139.2 375.8 138.2 375.8 138.2 369"/>
  <path class="st0" d="M135.5,697.9v-.6l.8-.8c2-1.9,2.9-2.9,2.9-4.1s-.4-1.5-1.5-1.5-1.3.4-1.7.7l-.3-.7c.5-.5,1.3-.8,2.2-.8,1.7,0,2.4,1.2,2.4,2.3s-1,2.6-2.7,4.2l-.6.6h3.5v.9h-5v-.2Z"/>
  <path class="st0" d="M139.4,1028.5c.3.2,1,.5,1.7.5,1.4,0,1.8-.9,1.8-1.5,0-1.1-1-1.6-2-1.6h-.6v-.8h.6c.8,0,1.7-.4,1.7-1.3s-.4-1.2-1.4-1.2-1.2.3-1.6.5l-.3-.8c.4-.3,1.2-.6,2-.6,1.5,0,2.2.9,2.2,1.9s-.5,1.5-1.4,1.8h0c1,.2,1.7.9,1.7,2s-1,2.3-2.8,2.3-1.6-.3-2-.5l.3-.8h.1Z"/>
  <path class="st0" d="M141.5,1351.1v-3.8h0c-.2.5-.4.8-.6,1.2l-1.9,2.7h2.6-.1ZM141.5,1354.1v-2.1h-3.6v-.7l3.5-5h1.1v4.8h1.1v.8h-1.1v2.1h-1Z"/>
  <path class="st0" d="M471.9,424.9h-3l-.3,2h.6c.6,0,1.2.1,1.7.4.6.3,1.1,1,1.1,2,0,1.5-1.2,2.7-2.9,2.7s-1.6-.2-1.9-.5l.3-.8c.3.2,1,.4,1.7.4s1.8-.6,1.8-1.7-.7-1.7-2.2-1.7-.8,0-1.1,0l.5-3.7h3.7v.9h0Z"/>
  <path class="st0" d="M472.7,773.1c0-1.1-.6-1.8-1.6-1.8s-1.2.4-1.5,1c0,0-.1.3-.1.5,0,1.3.6,2.2,1.7,2.2s1.5-.8,1.5-1.9h0ZM473,768.6h-.8c-1.7.3-2.5,1.5-2.7,2.8h0c.4-.5,1-.9,1.9-.9,1.4,0,2.3,1,2.3,2.5s-1,2.7-2.6,2.7-2.8-1.3-2.8-3.3.6-2.7,1.3-3.5c.6-.6,1.5-1,2.5-1.2h.8v.9h.1Z"/>
  <polygon class="st0" points="472.6 1096.3 472.6 1097 469.2 1104.1 468.1 1104.1 471.4 1097.2 471.4 1097.1 467.6 1097.1 467.6 1096.3 472.6 1096.3"/>
  <path class="st0" d="M469.8,1426.7c0,.8.6,1.2,1.5,1.4.7-.2,1.2-.7,1.2-1.4s-.4-1.3-1.3-1.3-1.4.6-1.4,1.2h0ZM472.7,1430.6c0-.9-.7-1.4-1.7-1.7-.9.3-1.4.9-1.4,1.6s.6,1.5,1.6,1.5,1.6-.6,1.6-1.4h-.1ZM468.5,1430.6c0-1,.6-1.7,1.5-2.1h0c-.9-.4-1.2-1.1-1.2-1.8,0-1.2,1-2.1,2.4-2.1s2.3.9,2.3,1.9-.3,1.4-1.3,1.8h0c1,.4,1.6,1.1,1.6,2.1s-1.2,2.3-2.7,2.3-2.6-1-2.6-2.1h0Z"/>
  <polygon class="st0" points="805.8 697.1 805.8 697.1 804.4 697.9 804.2 697 805.9 696.1 806.8 696.1 806.8 703.9 805.8 703.9 805.8 697.1"/>
  <path class="st0" d="M810.6,700.1c0,2,.6,3.2,1.6,3.2s1.6-1.3,1.6-3.2-.5-3.2-1.6-3.2-1.6,1.1-1.6,3.2h0ZM814.9,699.9c0,2.7-1,4.1-2.7,4.1s-2.6-1.4-2.6-4,1.1-4.1,2.7-4.1,2.6,1.5,2.6,3.9h0Z"/>
  <path class="st0" d="M793.8,366c0,1,.6,1.7,1.5,1.7s1.3-.3,1.5-.8v-.4c0-1.3-.5-2.4-1.6-2.4s-1.5.8-1.5,1.9h0ZM793.4,370.5h.9c.6,0,1.2-.3,1.6-.8.5-.5.9-1.2,1-2.1h0c-.4.5-1.1.8-1.8.8-1.4,0-2.3-1.1-2.3-2.4s1.1-2.8,2.7-2.8,2.6,1.3,2.6,3.3-.6,2.9-1.3,3.7c-.6.6-1.4.9-2.3,1h-1v-.9.2Z"/>
  <polygon class="st0" points="812.4 1033.3 812.4 1033.3 811.1 1034 810.8 1033.2 812.6 1032.3 813.5 1032.3 813.5 1040.1 812.4 1040.1 812.4 1033.3"/>
  <polygon class="st0" points="818.6 1033.3 818.6 1033.3 817.2 1034 817 1033.2 818.7 1032.3 819.6 1032.3 819.6 1040.1 818.6 1040.1 818.6 1033.3"/>
  <polygon class="st0" points="809.4 1366.4 809.4 1366.4 808 1367.1 807.8 1366.3 809.5 1365.4 810.4 1365.4 810.4 1373.2 809.4 1373.2 809.4 1366.4"/>
  <path class="st0" d="M813.3,1373.2v-.6l.8-.8c2-1.9,2.9-2.9,2.9-4.1s-.4-1.5-1.5-1.5-1.3.4-1.7.7l-.3-.7c.5-.5,1.3-.8,2.2-.8,1.7,0,2.4,1.2,2.4,2.3s-1,2.6-2.7,4.2l-.6.6h3.5v.9h-5v-.2Z"/>
  <polygon class="st0" points="1140.9 429.3 1140.9 429.3 1139.6 430 1139.4 429.2 1141.1 428.3 1142 428.3 1142 436.1 1140.9 436.1 1140.9 429.3"/>
  <path class="st0" d="M1145.1,434.9c.3.2,1,.5,1.7.5,1.4,0,1.8-.9,1.8-1.5,0-1.1-1-1.6-2-1.6h-.6v-.8h.6c.8,0,1.7-.4,1.7-1.3s-.4-1.2-1.4-1.2-1.2.3-1.6.5l-.3-.8c.4-.3,1.2-.6,2-.6,1.5,0,2.2.9,2.2,1.9s-.5,1.5-1.4,1.8h0c1,.2,1.7.9,1.7,2s-1,2.3-2.8,2.3-1.6-.3-2-.5l.3-.8h.1Z"/>
  <polygon class="st0" points="1139.4 765.4 1139.4 765.4 1138.1 766.1 1137.8 765.3 1139.5 764.4 1140.4 764.4 1140.4 772.2 1139.4 772.2 1139.4 765.4"/>
  <path class="st0" d="M1146.6,769.2v-3.8h0c-.2.5-.4.8-.6,1.2l-1.9,2.7h2.6,0ZM1146.6,772.2v-2.1h-3.6v-.7l3.5-5h1.1v4.8h1.1v.8h-1.1v2.1h-1Z"/>
  <polygon class="st0" points="1136.4 1096.9 1136.4 1096.9 1135 1097.6 1134.8 1096.8 1136.5 1095.9 1137.4 1095.9 1137.4 1103.7 1136.4 1103.7 1136.4 1096.9"/>
  <path class="st0" d="M1144.9,1096.8h-3l-.3,2h.6c.6,0,1.2,0,1.7.4.6.3,1.1,1,1.1,2,0,1.5-1.2,2.7-2.9,2.7s-1.6-.2-1.9-.5l.3-.8c.3.2,1,.4,1.7.4s1.8-.6,1.8-1.7-.7-1.7-2.2-1.7-.8,0-1.1,0l.5-3.7h3.7v.9h0Z"/>
  <polygon class="st0" points="1140.9 1427 1140.9 1427 1139.6 1427.7 1139.4 1426.9 1141.1 1426 1142 1426 1142 1433.8 1140.9 1433.8 1140.9 1427"/>
  <path class="st0" d="M1149,1431.3c0-1.1-.6-1.8-1.6-1.8s-1.2.4-1.5,1c0,0,0,.3,0,.5,0,1.3.6,2.2,1.7,2.2s1.5-.8,1.5-1.9h0ZM1149.3,1426.8h-.8c-1.7.3-2.5,1.5-2.7,2.8h0c.4-.5,1-.9,1.9-.9,1.4,0,2.4,1,2.4,2.5s-1,2.7-2.6,2.7-2.8-1.3-2.8-3.3.6-2.7,1.3-3.5c.6-.6,1.5-1,2.5-1.2h.8v.9h0Z"/>
  <polygon class="st0" points="1472.5 361.1 1472.5 361.1 1471.1 361.9 1470.9 361.1 1472.6 360.2 1473.5 360.2 1473.5 368 1472.5 368 1472.5 361.1"/>
  <polygon class="st0" points="1481.4 360.2 1481.4 360.9 1478 368 1476.9 368 1480.3 361.1 1480.3 361 1476.5 361 1476.5 360.2 1481.4 360.2"/>
  <polygon class="st0" points="1467.9 692.7 1467.9 692.7 1466.6 693.4 1466.4 692.6 1468.1 691.7 1469 691.7 1469 699.5 1467.9 699.5 1467.9 692.7"/>
  <path class="st0" d="M1473,693.6c0,.8.6,1.2,1.5,1.4.7-.2,1.2-.7,1.2-1.4s-.4-1.3-1.3-1.3-1.4.6-1.4,1.2h0ZM1475.9,697.5c0-.9-.7-1.4-1.7-1.7-.9.3-1.4.9-1.4,1.6s.6,1.5,1.6,1.5,1.6-.6,1.6-1.4h0ZM1471.7,697.5c0-1,.6-1.7,1.5-2.1h0c-.9-.4-1.2-1.1-1.2-1.8,0-1.2,1-2.1,2.4-2.1s2.3.9,2.3,1.9-.3,1.4-1.3,1.8h0c1,.4,1.6,1.1,1.6,2.1s-1.2,2.3-2.7,2.3-2.6-1-2.6-2.1h0Z"/>
  <polygon class="st0" points="1467.9 1024.2 1467.9 1024.2 1466.6 1025 1466.4 1024.2 1468.1 1023.2 1469 1023.2 1469 1031 1467.9 1031 1467.9 1024.2"/>
  <path class="st0" d="M1472.8,1025.8c0,1,.6,1.7,1.5,1.7s1.3-.3,1.5-.8v-.4c0-1.3-.5-2.4-1.6-2.4s-1.5.8-1.5,1.9h0ZM1472.4,1030.3h.9c.6,0,1.2-.3,1.6-.8.5-.5.9-1.2,1-2.1h0c-.4.5-1.1.8-1.8.8-1.4,0-2.3-1.1-2.3-2.4s1.1-2.8,2.7-2.8,2.6,1.3,2.6,3.3-.6,2.9-1.3,3.7c-.6.6-1.4.9-2.3,1h-1v-.9.2Z"/>
  <path class="st0" d="M1471.7,1364.1v-.6l.8-.8c2-1.9,2.9-2.9,2.9-4.1s-.4-1.5-1.5-1.5-1.3.4-1.7.7l-.3-.7c.5-.5,1.3-.8,2.2-.8,1.7,0,2.4,1.2,2.4,2.3s-1,2.6-2.7,4.2l-.6.6h3.5v.9h-5v-.2Z"/>
  <path class="st0" d="M1478.8,1360.2c0,2,.6,3.2,1.6,3.2s1.6-1.3,1.6-3.3-.5-3.2-1.6-3.2-1.6,1.1-1.6,3.2h0ZM1483,1360.1c0,2.7-1,4.1-2.7,4.1s-2.6-1.4-2.6-4,1.1-4.1,2.7-4.1,2.6,1.5,2.6,3.9h0Z"/>
  <path class="st0" d="M1797.2,440.6v-.6l.8-.8c2-1.9,2.9-2.9,2.9-4.1s-.4-1.5-1.5-1.5-1.3.4-1.7.7l-.3-.7c.5-.5,1.3-.8,2.2-.8,1.7,0,2.4,1.2,2.4,2.3s-1,2.6-2.7,4.2l-.6.6h3.5v.9h-5v-.2Z"/>
  <polygon class="st0" points="1805.6 433.8 1805.6 433.8 1804.3 434.5 1804.1 433.7 1805.8 432.8 1806.7 432.8 1806.7 440.6 1805.6 440.6 1805.6 433.8"/>
  <path class="st0" d="M1801.7,766.1v-.6l.8-.8c2-1.9,2.9-2.9,2.9-4.1s-.4-1.5-1.5-1.5-1.3.4-1.7.7l-.3-.7c.5-.5,1.3-.8,2.2-.8,1.7,0,2.4,1.2,2.4,2.3s-1,2.6-2.7,4.2l-.6.6h3.5v.9h-5v-.2Z"/>
  <path class="st0" d="M1807.9,766.1v-.6l.8-.8c2-1.9,2.9-2.9,2.9-4.1s-.4-1.5-1.5-1.5-1.3.4-1.7.7l-.3-.7c.5-.5,1.3-.8,2.2-.8,1.7,0,2.4,1.2,2.4,2.3s-1,2.6-2.7,4.2l-.6.6h3.5v.9h-5v-.2Z"/>
</svg>