<?xml version="1.0" encoding="UTF-8"?>
<svg id="Camada_1" xmlns="http://www.w3.org/2000/svg" width="90cm" height="54cm" xmlns:xodm="http://www.corel.com/coreldraw/odm/2003" version="1.1" viewBox="0 0 2551.2 1530.7">
  <!-- Generator: Adobe Illustrator 29.3.1, SVG Export Plug-In . SVG Version: 2.1.0 Build 151)  -->
  <defs>
    <style>
      .st0 {
        stroke: #00a651;
      }

      .st0, .st1 {
        fill: none;
        stroke-miterlimit: 15.7;
        stroke-width: .5px;
      }

      .st1 {
        stroke: #2e3192;
      }
    </style>
  </defs>
  <polygon class="st0" points="1814 1425.9 1814 1423.4 1814.1 1422.1 1814 1422.1 1813.4 1423.3 1811.5 1425.9 1811.5 1425.9 1814 1425.9"/>
  <polygon class="st0" points="1814 1428.9 1814 1426.8 1810.4 1426.8 1810.4 1426.1 1813.9 1421.1 1815 1421.1 1815 1425.9 1816.2 1425.9 1816.2 1426.8 1815 1426.8 1815 1428.9 1814 1428.9"/>
  <polygon class="st0" points="1804.6 1428.9 1804.6 1428.3 1805.5 1427.5 1807.7 1425.2 1808.4 1423.4 1808 1422.3 1806.8 1421.8 1805.2 1422.5 1804.8 1421.8 1807 1421 1808.9 1421.7 1809.4 1423.2 1808.7 1425.3 1806.7 1427.4 1806.1 1428 1806.1 1428.1 1809.6 1428.1 1809.6 1428.9 1804.6 1428.9"/>
  <polygon class="st0" points="1815.6 1100.7 1817.3 1101.2 1818.7 1100.7 1819.1 1099.7 1818.4 1098.5 1817.1 1098.1 1816.4 1098.1 1816.4 1097.3 1817.1 1097.3 1818.2 1097 1818.8 1096 1818.5 1095.2 1817.4 1094.8 1815.9 1095.3 1815.6 1094.6 1817.6 1094 1819.3 1094.6 1819.8 1095.8 1819.5 1096.9 1818.4 1097.7 1818.4 1097.7 1819.6 1098.4 1820.1 1099.7 1819.4 1101.4 1817.3 1102.1 1815.3 1101.5 1815.6 1100.7"/>
  <polygon class="st0" points="1809.1 1101.9 1809.1 1101.3 1810 1100.4 1812.2 1098.2 1812.9 1096.4 1812.5 1095.3 1811.3 1094.8 1809.7 1095.5 1809.3 1094.8 1811.5 1094 1813.4 1094.7 1814 1096.3 1813.2 1098.3 1811.3 1100.4 1810.6 1101 1810.6 1101 1814.2 1101 1814.2 1101.9 1809.1 1101.9"/>
  <polygon class="st0" points="1807.7 765.8 1807.7 765.2 1808.6 764.4 1810.8 762.1 1811.5 760.3 1811.1 759.2 1809.9 758.8 1808.3 759.4 1807.9 758.7 1810.1 757.9 1812 758.6 1812.5 760.1 1811.8 762.2 1809.8 764.3 1809.2 765 1809.2 765 1812.7 765 1812.7 765.8 1807.7 765.8"/>
  <polygon class="st0" points="1801.6 765.8 1801.6 765.2 1802.4 764.4 1804.6 762.1 1805.3 760.3 1805 759.2 1803.8 758.8 1802.1 759.4 1801.8 758.7 1804 757.9 1805.8 758.6 1806.4 760.1 1805.7 762.2 1803.7 764.3 1803 765 1803 765 1806.6 765 1806.6 765.8 1801.6 765.8"/>
  <polygon class="st0" points="1805.5 433.5 1805.5 433.5 1804.1 434.2 1803.9 433.5 1805.6 432.5 1806.5 432.5 1806.5 440.3 1805.5 440.3 1805.5 433.5"/>
  <polygon class="st0" points="1797 440.3 1797 439.7 1797.9 438.9 1800.1 436.6 1800.8 434.8 1800.4 433.7 1799.2 433.3 1797.6 434 1797.2 433.2 1799.4 432.4 1801.3 433.2 1801.8 434.7 1801.1 436.7 1799.1 438.8 1798.5 439.5 1798.5 439.5 1802.1 439.5 1802.1 440.3 1797 440.3"/>
  <polygon class="st0" points="1478.7 1360 1479.1 1362.3 1480.3 1363.1 1481.5 1362.2 1481.9 1359.9 1481.5 1357.5 1480.3 1356.7 1479.1 1357.5 1478.7 1360"/>
  <polygon class="st0" points="1482.9 1359.8 1482.2 1362.9 1480.2 1363.9 1478.3 1362.9 1477.6 1360 1478.4 1356.9 1480.3 1355.9 1482.2 1356.9 1482.9 1359.8"/>
  <polygon class="st0" points="1471.6 1363.8 1471.6 1363.1 1472.4 1362.4 1474.6 1360 1475.3 1358.3 1474.9 1357.2 1473.7 1356.8 1472.1 1357.4 1471.7 1356.7 1473.9 1355.9 1475.8 1356.6 1476.4 1358.2 1475.6 1360.2 1473.7 1362.4 1473 1362.9 1473 1362.9 1476.6 1362.9 1476.6 1363.8 1471.6 1363.8"/>
  <polygon class="st0" points="1472.7 1025.5 1473.1 1026.7 1474.2 1027.2 1475.7 1026.4 1475.8 1026 1475.4 1024.3 1474.2 1023.6 1473.1 1024.2 1472.7 1025.5"/>
  <polygon class="st0" points="1472.3 1030 1473.2 1030 1474.8 1029.2 1475.8 1027.2 1475.8 1027.2 1473.9 1028 1472.2 1027.3 1471.6 1025.6 1472.4 1023.7 1474.3 1022.8 1476.1 1023.7 1476.8 1026.1 1476.5 1028.3 1475.5 1029.8 1473.2 1030.9 1472.3 1030.9 1472.3 1030"/>
  <polygon class="st0" points="1467.8 1024 1467.8 1024 1466.4 1024.7 1466.2 1023.9 1467.9 1023 1468.8 1023 1468.8 1030.8 1467.8 1030.8 1467.8 1024"/>
  <polygon class="st0" points="1472.9 693.3 1473.3 694.2 1474.4 694.7 1475.2 694.2 1475.6 693.3 1475.2 692.5 1474.2 692 1473.2 692.4 1472.9 693.3"/>
  <polygon class="st0" points="1475.8 697.2 1475.3 696.1 1474.1 695.5 1473 696.1 1472.7 697.1 1473 698.1 1474.2 698.6 1475.4 698.2 1475.8 697.2"/>
  <polygon class="st0" points="1471.6 697.2 1472 696 1473.1 695.2 1473.1 695.1 1472.2 694.3 1471.9 693.4 1472.6 691.9 1474.3 691.3 1476 691.9 1476.6 693.2 1476.3 694.2 1475.3 695 1475.3 695.1 1476.4 695.9 1476.8 697.1 1476.1 698.7 1474.2 699.3 1472.2 698.7 1471.6 697.2"/>
  <polygon class="st0" points="1467.8 692.4 1467.8 692.4 1466.4 693.1 1466.2 692.3 1467.9 691.4 1468.8 691.4 1468.8 699.2 1467.8 699.2 1467.8 692.4"/>
  <polygon class="st0" points="1481.2 359.9 1481.2 360.6 1477.9 367.7 1476.8 367.7 1480.2 360.8 1480.2 360.7 1476.4 360.7 1476.4 359.9 1481.2 359.9"/>
  <polygon class="st0" points="1472.3 360.9 1472.3 360.9 1471 361.6 1470.8 360.8 1472.5 359.9 1473.4 359.9 1473.4 367.7 1472.3 367.7 1472.3 360.9"/>
  <polygon class="st0" points="1148.8 1430.9 1148.4 1429.6 1147.2 1429.1 1145.7 1430 1145.6 1430.5 1146 1432.1 1147.3 1432.7 1148.4 1432.2 1148.8 1430.9"/>
  <polygon class="st0" points="1149.1 1426.4 1148.3 1426.4 1146.4 1427.4 1145.6 1429.2 1145.6 1429.2 1147.5 1428.3 1149.2 1429 1149.9 1430.8 1149.2 1432.7 1147.3 1433.6 1145.3 1432.7 1144.6 1430.3 1144.9 1428.2 1145.8 1426.7 1148.4 1425.6 1149.1 1425.5 1149.1 1426.4"/>
  <polygon class="st0" points="1140.8 1426.6 1140.8 1426.6 1139.5 1427.4 1139.2 1426.6 1140.9 1425.7 1141.8 1425.7 1141.8 1433.4 1140.8 1433.4 1140.8 1426.6"/>
  <polygon class="st0" points="1144.8 1096.6 1141.8 1096.6 1141.5 1098.5 1142.1 1098.5 1143.8 1098.9 1144.6 1099.7 1144.9 1100.9 1144.1 1102.8 1142 1103.6 1140.1 1103.1 1140.4 1102.3 1142 1102.7 1143.4 1102.2 1143.8 1101 1143.4 1099.8 1141.7 1099.3 1140.5 1099.4 1141.1 1095.6 1144.8 1095.6 1144.8 1096.6"/>
  <polygon class="st0" points="1136.3 1096.6 1136.3 1096.6 1134.9 1097.3 1134.7 1096.6 1136.4 1095.6 1137.3 1095.6 1137.3 1103.4 1136.3 1103.4 1136.3 1096.6"/>
  <polygon class="st0" points="1146.4 768.9 1146.4 766.3 1146.5 765.1 1146.4 765.1 1145.8 766.2 1143.8 768.9 1143.8 768.9 1146.4 768.9"/>
  <polygon class="st0" points="1146.4 771.9 1146.4 769.8 1142.8 769.8 1142.8 769.1 1146.3 764.1 1147.4 764.1 1147.4 768.9 1148.5 768.9 1148.5 769.8 1147.4 769.8 1147.4 771.9 1146.4 771.9"/>
  <polygon class="st0" points="1139.3 765.1 1139.2 765.1 1137.9 765.8 1137.7 765 1139.4 764.1 1140.3 764.1 1140.3 771.9 1139.3 771.9 1139.3 765.1"/>
  <polygon class="st0" points="1144.9 434.6 1146.7 435.1 1148 434.6 1148.4 433.6 1147.8 432.4 1146.4 432 1145.8 432 1145.8 431.3 1146.4 431.3 1147.5 430.9 1148.2 429.9 1147.8 429.1 1146.8 428.7 1145.2 429.3 1144.9 428.5 1147 427.9 1148.7 428.4 1149.2 429.8 1148.9 430.8 1147.7 431.5 1147.7 431.6 1149 432.2 1149.5 433.6 1148.8 435.2 1146.7 435.9 1144.6 435.4 1144.9 434.6"/>
  <polygon class="st0" points="1140.8 429 1140.8 429 1139.5 429.7 1139.2 428.9 1140.9 428 1141.8 428 1141.8 435.8 1140.8 435.8 1140.8 429"/>
  <polygon class="st0" points="813.1 1372.9 813.1 1372.2 814 1371.4 816.2 1369.2 816.9 1367.4 816.5 1366.3 815.3 1365.8 813.7 1366.5 813.3 1365.8 815.5 1365 817.4 1365.7 817.9 1367.3 817.2 1369.2 815.2 1371.4 814.6 1372 814.6 1372 818.1 1372 818.1 1372.9 813.1 1372.9"/>
  <polygon class="st0" points="809.3 1366.1 809.2 1366.1 807.9 1366.8 807.7 1366 809.4 1365.1 810.3 1365.1 810.3 1372.9 809.3 1372.9 809.3 1366.1"/>
  <polygon class="st0" points="818.4 1033.1 818.4 1033.1 817.1 1033.8 816.9 1033 818.6 1032.1 819.5 1032.1 819.5 1039.9 818.4 1039.9 818.4 1033.1"/>
  <polygon class="st0" points="812.3 1033.1 812.3 1033.1 810.9 1033.8 810.7 1033 812.4 1032.1 813.3 1032.1 813.3 1039.9 812.3 1039.9 812.3 1033.1"/>
  <polygon class="st0" points="793.7 365.7 794.1 366.9 795.2 367.3 796.7 366.6 796.8 366.1 796.5 364.5 795.2 363.8 794.1 364.4 793.7 365.7"/>
  <polygon class="st0" points="793.3 370.2 794.1 370.2 795.8 369.4 796.8 367.3 796.7 367.3 795 368.2 793.3 367.5 792.6 365.8 793.3 363.9 795.3 363 797.2 363.9 797.9 366.3 797.5 368.5 796.5 370 794.3 371 793.3 371 793.3 370.2"/>
  <polygon class="st0" points="810.5 699.8 810.9 702.1 812.1 703 813.3 702.1 813.7 699.7 813.3 697.4 812.1 696.5 810.9 697.4 810.5 699.8"/>
  <polygon class="st0" points="814.7 699.7 814 702.7 812 703.8 810.1 702.7 809.4 699.8 810.2 696.8 812.1 695.7 814 696.8 814.7 699.7"/>
  <polygon class="st0" points="805.7 696.9 805.7 696.9 804.3 697.6 804.1 696.8 805.8 695.9 806.7 695.9 806.7 703.7 805.7 703.7 805.7 696.9"/>
  <polygon class="st0" points="469.7 1426.3 470.1 1427.2 471.2 1427.7 472 1427.2 472.4 1426.3 472.1 1425.4 471 1425.1 470.1 1425.4 469.7 1426.3"/>
  <polygon class="st0" points="472.6 1430.2 472.2 1429.1 470.9 1428.5 469.8 1429.1 469.5 1430.1 469.9 1431.1 471 1431.6 472.2 1431.2 472.6 1430.2"/>
  <polygon class="st0" points="468.4 1430.3 468.8 1429 470 1428.1 470 1428.1 469 1427.4 468.7 1426.4 469.4 1424.9 471.1 1424.3 472.8 1424.9 473.4 1426.2 473.1 1427.2 472.1 1428.1 472.1 1428.1 473.2 1428.8 473.7 1430.1 473 1431.7 471 1432.4 469.1 1431.7 468.4 1430.3"/>
  <polygon class="st0" points="472.5 1096 472.5 1096.7 469.1 1103.8 468 1103.8 471.4 1096.9 471.4 1096.8 467.6 1096.8 467.6 1096 472.5 1096"/>
  <polygon class="st0" points="472.7 772.8 472.2 771.5 471 771 469.6 772 469.4 772.4 469.9 774 471.1 774.7 472.2 774.1 472.7 772.8"/>
  <polygon class="st0" points="473 768.3 472.2 768.3 470.3 769.4 469.5 771.1 469.5 771.1 471.4 770.2 473.1 770.9 473.7 772.7 473 774.6 471.1 775.5 469.1 774.5 468.4 772.1 468.8 770.1 469.7 768.7 472.2 767.4 473 767.4 473 768.3"/>
  <polygon class="st0" points="471.9 424.7 468.9 424.7 468.6 426.7 469.3 426.6 470.9 427 471.7 427.8 472 429 471.3 430.9 469.1 431.7 467.2 431.2 467.4 430.4 469.1 430.8 470.4 430.3 471 429.1 470.4 427.9 468.7 427.4 467.6 427.5 468.1 423.8 471.9 423.8 471.9 424.7"/>
  <polygon class="st0" points="141.4 1350.8 141.4 1348.3 141.5 1347 141.4 1347 140.8 1348.2 138.9 1350.8 138.9 1350.8 141.4 1350.8"/>
  <polygon class="st0" points="141.4 1353.8 141.4 1351.7 137.8 1351.7 137.8 1351 141.3 1346 142.5 1346 142.5 1350.8 143.6 1350.8 143.6 1351.7 142.5 1351.7 142.5 1353.8 141.4 1353.8"/>
  <polygon class="st0" points="139.4 1028.2 141.1 1028.7 142.5 1028.2 142.9 1027.2 142.2 1026 140.9 1025.6 140.3 1025.6 140.3 1024.8 140.9 1024.8 142 1024.6 142.6 1023.5 142.3 1022.7 141.2 1022.4 139.7 1022.8 139.4 1022.1 141.4 1021.5 143.1 1022.1 143.6 1023.3 143.3 1024.4 142.2 1025.2 142.2 1025.2 143.5 1025.9 144 1027.2 143.3 1028.9 141.2 1029.5 139.1 1029 139.4 1028.2"/>
  <polygon class="st0" points="135.4 697.6 135.4 697 136.3 696.2 138.5 693.9 139.2 692.1 138.8 691.1 137.6 690.6 136 691.2 135.6 690.5 137.8 689.7 139.7 690.4 140.2 692 139.5 694 137.5 696.2 136.9 696.7 136.9 696.7 140.4 696.7 140.4 697.6 135.4 697.6"/>
  <polygon class="st0" points="138.2 368.7 138.2 368.7 136.8 369.5 136.6 368.6 138.3 367.7 139.2 367.7 139.2 375.5 138.2 375.5 138.2 368.7"/>
  <polyline class="st1" points="252 1055.1 191.7 1055.1 191.7 1062.1"/>
  <line class="st1" x1="252" y1="1062.1" x2="250.2" y2="1062.1"/>
  <polyline class="st1" points="2100.1 985 2100 918 2106.9 918 2107 870.1 2100.1 870.1 2100.1 722.7"/>
  <polyline class="st1" points="1444.7 539.2 1437.6 539.2 1437.7 392.1 1444.7 392.1"/>
  <line class="st1" x1="1444.7" y1="529.3" x2="1437.6" y2="529.3"/>
  <polyline class="st1" points="1444.7 869.9 1437.3 869.9 1437.3 722.7 1444.6 722.7"/>
  <line class="st1" x1="1444.7" y1="860.1" x2="1437.4" y2="860.1"/>
  <polyline class="st1" points="444.3 199 444.3 266.4 451.3 266.4 451.3 324.5 451.3 333.9 444.3 333.9"/>
  <line class="st1" x1="444.3" y1="324.5" x2="451.3" y2="324.5"/>
  <polyline class="st1" points="444.2 1200.9 450.7 1200.9 450.7 1129.8"/>
  <line class="st1" x1="444.2" y1="1191.4" x2="450.7" y2="1191.4"/>
  <polyline class="st1" points="1769.1 471.5 1769.2 324.3 1775.7 324.3"/>
  <line class="st1" x1="1769" y1="391.5" x2="1775.8" y2="391.5"/>
  <polyline class="st1" points="450.8 471.7 444 471.7 444 437.3"/>
  <line class="st1" x1="444.1" y1="437.3" x2="444.1" y2="413.8"/>
  <polyline class="st1" points="444.1 413.8 444.1 400.9 444.2 324.3"/>
  <line class="st1" x1="444" y1="391.6" x2="451.1" y2="391.6"/>
  <polyline class="st1" points="1106.4 539 1112.9 539 1112.9 471.6 1112.9 391.2 1106.4 391.3"/>
  <line class="st1" x1="1106.4" y1="529.7" x2="1112.9" y2="529.7"/>
  <polyline class="st1" points="1769.2 539.1 1775.7 539.1 1775.7 468 1775.7 391.4"/>
  <line class="st1" x1="1769.2" y1="529.6" x2="1775.7" y2="529.6"/>
  <line class="st1" x1="1775.7" y1="471.5" x2="1768.6" y2="471.5"/>
  <polyline class="st1" points="444.3 539.3 450.8 539.3 450.8 468.1 450.8 391.5"/>
  <line class="st1" x1="444.1" y1="529.8" x2="450.8" y2="529.8"/>
  <polyline class="st1" points="1106.1 869.7 1113.2 869.7 1112.9 859.4 1112.9 859.1"/>
  <line class="st1" x1="1105.9" y1="860.4" x2="1112.9" y2="860.4"/>
  <polyline class="st1" points="1769.2 869.8 1775.7 869.8 1775.7 798.7"/>
  <line class="st1" x1="1769" y1="860.4" x2="1775.7" y2="860.4"/>
  <polyline class="st1" points="444.2 870 450.7 870 450.7 798.9"/>
  <line class="st1" x1="444.1" y1="860.6" x2="450.7" y2="860.6"/>
  <polyline class="st1" points="1769.1 208.2 1775.7 208.2 1775.7 137.1"/>
  <line class="st1" x1="1769" y1="198.7" x2="1775.7" y2="198.7"/>
  <polyline class="st1" points="1444.7 1200.8 1437.6 1200.8 1437.6 1053.6 1444.5 1053.6"/>
  <line class="st1" x1="1444.7" y1="1190.9" x2="1437.6" y2="1190.9"/>
  <polyline class="st1" points="112.7 324.3 112.7 266.1 119.8 266.1 119.8 198.7"/>
  <line class="st1" x1="119.8" y1="198.7" x2="112.7" y2="198.7"/>
  <polyline class="st1" points="1106.5 1200.7 1112.9 1200.7 1112.9 1133.1 1112.9 1052.9 1106.4 1052.9"/>
  <line class="st1" x1="1106.4" y1="1191.3" x2="1112.9" y2="1191.3"/>
  <polyline class="st1" points="1769.2 1200.9 1775.7 1200.7 1775.7 1129.6 1775.8 1052.9 1769.1 1052.9"/>
  <line class="st1" x1="1769.2" y1="1191.2" x2="1775.7" y2="1191.2"/>
  <polyline class="st1" points="851.2 1062 782 1062 781.9 985.1 775 985.1"/>
  <line class="st1" x1="775.1" y1="1055" x2="781.9" y2="1055"/>
  <line class="st1" x1="775.1" y1="996.1" x2="781.9" y2="996.1"/>
  <polyline class="st1" points="520 137.5 450.8 137.5 450.8 208.4 444.3 208.4"/>
  <line class="st1" x1="444.3" y1="199" x2="450.8" y2="199"/>
  <polyline class="st1" points="1906.2 1136.7 1844.9 1136.7 1844.9 1129.6"/>
  <line class="st1" x1="1906.2" y1="1136.7" x2="1906.2" y2="1129.6"/>
  <polyline class="st1" points="1906.2 475.1 1844.9 475.1 1844.9 468"/>
  <line class="st1" x1="1906.2" y1="475.1" x2="1906.2" y2="468"/>
  <line class="st1" x1="1577" y1="400.3" x2="1575.1" y2="400.3"/>
  <line class="st1" x1="1908" y1="468.1" x2="1906.2" y2="468.1"/>
  <polyline class="st1" points="2100.1 722.7 2106.9 722.7 2106.9 664.5 2100.1 664.5"/>
  <line class="st1" x1="1908" y1="799" x2="1906.2" y2="799"/>
  <line class="st1" x1="1908" y1="1129.7" x2="1906.2" y2="1129.7"/>
  <line class="st1" x1="1577" y1="1061.9" x2="1575.1" y2="1061.9"/>
  <line class="st1" x1="1245.3" y1="468" x2="1243.3" y2="468"/>
  <line class="st1" x1="1245.2" y1="1129.6" x2="1243.3" y2="1129.6"/>
  <line class="st1" x1="914.3" y1="400.4" x2="912.4" y2="400.4"/>
  <line class="st1" x1="522.7" y1="1460.8" x2="450.8" y2="1460.8"/>
  <line class="st1" x1="914.2" y1="1061.9" x2="912.3" y2="1061.9"/>
  <line class="st1" x1="583" y1="1129.9" x2="581.2" y2="1129.9"/>
  <line class="st1" x1="583.1" y1="468.3" x2="581.2" y2="468.3"/>
  <line class="st1" x1="252.1" y1="400.5" x2="250.2" y2="400.5"/>
  <line class="st1" x1="252.1" y1="731.4" x2="250.2" y2="731.4"/>
  <line class="st1" x1="583.1" y1="799.1" x2="581.2" y2="799.1"/>
  <line class="st1" x1="912.4" y1="731.2" x2="914.2" y2="731.2"/>
  <line class="st1" x1="1245.2" y1="798.8" x2="1243.3" y2="798.8"/>
  <line class="st1" x1="1577" y1="731.2" x2="1575.1" y2="731.2"/>
  <line class="st1" x1="1184.9" y1="468" x2="1112.9" y2="468"/>
  <polyline class="st1" points="1245.2 1453.4 1184.9 1453.4 1184.9 1460.5"/>
  <polyline class="st1" points="914.2 1385.8 853.9 1385.8 853.9 1392.8"/>
  <polyline class="st1" points="1908.1 1454.4 1847.8 1454.4 1847.8 1461.4"/>
  <polyline class="st1" points="583 1453.8 522.7 1453.8 522.7 1460.8"/>
  <polyline class="st1" points="1577 1385.8 1516.7 1385.8 1516.7 1392.8"/>
  <polyline class="st1" points="252 1386 191.7 1386 191.7 1393"/>
  <polyline class="st1" points="1577 724.2 1516.7 724.2 1516.7 731.2"/>
  <polyline class="st1" points="252.1 724.4 191.8 724.4 191.8 731.4"/>
  <polyline class="st1" points="1245.2 1122.6 1184.9 1122.6 1184.9 1129.6"/>
  <polyline class="st1" points="914.2 1055 853.9 1055 853.9 1062"/>
  <polyline class="st1" points="1908 1122.7 1847.7 1122.7 1847.7 1129.7"/>
  <polyline class="st1" points="583 1122.9 522.7 1122.9 522.7 1129.9"/>
  <polyline class="st1" points="1245.3 461 1184.9 461 1184.9 468"/>
  <polyline class="st1" points="914.3 393.3 854 393.3 854 400.4"/>
  <polyline class="st1" points="1908 461.1 1847.7 461.1 1847.7 468.1"/>
  <polyline class="st1" points="583.1 461.2 522.8 461.2 522.8 468.3"/>
  <polyline class="st1" points="252.1 393.5 191.8 393.5 191.8 400.5"/>
  <polyline class="st1" points="1368.6 1460.5 1368.6 1453.4 1308.5 1453.4"/>
  <polyline class="st1" points="1037.6 1392.8 1037.6 1385.8 977.6 1385.8"/>
  <polyline class="st1" points="2031.4 1461.4 2031.4 1454.4 1971.4 1454.4"/>
  <polyline class="st1" points="706.4 1460.8 706.4 1453.8 646.4 1453.8"/>
  <polyline class="st1" points="1700.4 1392.8 1700.4 1385.8 1640.3 1385.8"/>
  <polyline class="st1" points="375.4 1393 375.4 1386 315.4 1386"/>
  <polyline class="st1" points="1368.6 798.8 1368.6 791.8 1308.5 791.8"/>
  <polyline class="st1" points="1037.6 731.2 1037.6 724.2 977.6 724.2"/>
  <polyline class="st1" points="2031.4 799 2031.4 792 1971.3 792"/>
  <polyline class="st1" points="706.5 799.1 706.5 792.1 646.4 792.1"/>
  <polyline class="st1" points="1700.4 731.2 1700.4 724.2 1640.3 724.2"/>
  <polyline class="st1" points="375.4 731.4 375.4 724.4 315.4 724.4"/>
  <polyline class="st1" points="1368.6 1129.6 1368.6 1122.6 1308.5 1122.6"/>
  <polyline class="st1" points="1037.6 1062 1037.6 1055 977.6 1055"/>
  <polyline class="st1" points="2031.4 1129.7 2031.4 1122.7 1971.3 1122.7"/>
  <polyline class="st1" points="706.4 1129.9 706.4 1122.9 646.4 1122.9"/>
  <polyline class="st1" points="1700.4 1061.9 1700.4 1054.9 1640.3 1054.9"/>
  <polyline class="st1" points="375.4 1062.1 375.4 1055.1 315.4 1055.1"/>
  <polyline class="st1" points="1368.6 468 1368.6 461 1308.6 461"/>
  <polyline class="st1" points="1037.7 400.4 1037.7 393.3 977.7 393.3"/>
  <polyline class="st1" points="2031.4 468.1 2031.4 461.1 1971.3 461.1"/>
  <polyline class="st1" points="706.5 468.3 706.5 461.2 646.4 461.2"/>
  <polyline class="st1" points="1700.4 400.3 1700.4 393.3 1640.3 393.3"/>
  <polyline class="st1" points="375.4 400.5 375.4 393.5 315.4 393.5"/>
  <polyline class="st1" points="1308.5 1453.4 1308.5 1460.5 1245.2 1460.5 1245.2 1453.4"/>
  <polyline class="st1" points="977.5 1385.8 977.5 1392.8 914.2 1392.8 914.2 1385.8"/>
  <polyline class="st1" points="1971.3 1454.4 1971.3 1461.4 1908.1 1461.4 1908.1 1454.4"/>
  <polyline class="st1" points="646.3 1453.8 646.3 1460.8 583 1460.8 583 1453.8"/>
  <polyline class="st1" points="1640.3 1385.8 1640.3 1392.8 1577 1392.8 1577 1385.8"/>
  <polyline class="st1" points="315.3 1386 315.3 1393 252 1393 252 1386"/>
  <polyline class="st1" points="1308.5 791.8 1308.5 798.8 1245.2 798.8 1245.2 791.8"/>
  <polyline class="st1" points="977.5 724.2 977.5 731.2 914.2 731.2 914.2 724.2"/>
  <polyline class="st1" points="1971.3 792 1971.3 799 1908 799 1908 792"/>
  <polyline class="st1" points="646.4 792.1 646.4 799.1 583.1 799.1 583.1 792.1"/>
  <polyline class="st1" points="1640.3 724.2 1640.3 731.2 1577 731.2 1577 724.2"/>
  <polyline class="st1" points="315.4 724.4 315.4 731.4 252.1 731.4 252.1 724.4"/>
  <polyline class="st1" points="1308.5 1122.6 1308.5 1129.6 1245.2 1129.6 1245.2 1122.6"/>
  <polyline class="st1" points="977.5 1055 977.5 1062 914.2 1062 914.2 1055"/>
  <polyline class="st1" points="1971.3 1122.7 1971.3 1129.7 1908 1129.7 1908 1122.7"/>
  <polyline class="st1" points="646.3 1122.9 646.3 1129.9 583 1129.9 583 1122.9"/>
  <polyline class="st1" points="1640.3 1054.9 1640.3 1061.9 1577 1061.9 1577 1054.9"/>
  <polyline class="st1" points="315.3 1055.1 315.3 1062.1 252 1062.1 252 1055.1"/>
  <polyline class="st1" points="1308.5 461 1308.5 468 1245.3 468 1245.3 461"/>
  <polyline class="st1" points="977.6 393.3 977.6 400.4 914.3 400.4 914.3 393.3"/>
  <polyline class="st1" points="1971.3 461.1 1971.3 468.1 1908 468.1 1908 461.1"/>
  <polyline class="st1" points="646.4 461.2 646.4 468.3 583.1 468.3 583.1 461.2"/>
  <polyline class="st1" points="1640.3 393.3 1640.3 400.3 1577 400.3 1577 393.3"/>
  <polyline class="st1" points="315.4 393.5 315.4 400.5 252.1 400.5 252.1 393.5"/>
  <line class="st1" x1="782.1" y1="1392.8" x2="853.9" y2="1392.8"/>
  <line class="st1" x1="1775.7" y1="1129.7" x2="1847.7" y2="1129.7"/>
  <line class="st1" x1="781.9" y1="400.4" x2="854" y2="400.4"/>
  <line class="st1" x1="1775.7" y1="468.1" x2="1847.7" y2="468.1"/>
  <line class="st1" x1="450.8" y1="468.3" x2="522.8" y2="468.3"/>
  <polyline class="st1" points="1368.6 1460.5 1436.4 1460.5 1436.5 1460.5"/>
  <polyline class="st1" points="1037.7 1392.8 1106.2 1392.8 1106.3 1392.8"/>
  <polyline class="st1" points="2031.5 1461.4 2100.1 1461.4 2100.2 1461.4"/>
  <polyline class="st1" points="706.5 1460.8 775.1 1460.8 775.1 1460.8"/>
  <polyline class="st1" points="1700.4 1392.8 1769 1392.8 1769.1 1392.8"/>
  <polyline class="st1" points="375.4 1393 443.9 1393 444 1393"/>
  <polyline class="st1" points="1112.5 1460.2 1183.7 1460.5 1184.9 1460.5"/>
  <polyline class="st1" points="1775.7 1461.2 1846.5 1461.4 1847.8 1461.4"/>
  <polyline class="st1" points="1444.7 1392.6 1515.3 1392.8 1516.7 1392.8"/>
  <polyline class="st1" points="119.2 1392.8 190.3 1393 191.7 1393"/>
  <polyline class="st1" points="119.8 731.2 190.4 731.4 191.8 731.4"/>
  <polyline class="st1" points="119.6 400.3 190.4 400.5 191.8 400.5"/>
  <line class="st1" x1="1368.6" y1="1136.6" x2="1301.7" y2="1136.5"/>
  <line class="st1" x1="1037.7" y1="1069" x2="970.7" y2="1068.9"/>
  <line class="st1" x1="2031.4" y1="1136.7" x2="1964.5" y2="1136.7"/>
  <line class="st1" x1="706.5" y1="1136.9" x2="639.5" y2="1136.9"/>
  <line class="st1" x1="1700.4" y1="1068.9" x2="1633.5" y2="1068.8"/>
  <line class="st1" x1="375.4" y1="1069.1" x2="308.5" y2="1069.1"/>
  <line class="st1" x1="1368.6" y1="475" x2="1301.7" y2="474.9"/>
  <line class="st1" x1="1037.7" y1="407.4" x2="970.7" y2="407.3"/>
  <line class="st1" x1="2031.4" y1="475.1" x2="1964.5" y2="475.1"/>
  <line class="st1" x1="706.5" y1="475.3" x2="639.6" y2="475.2"/>
  <line class="st1" x1="1700.4" y1="407.3" x2="1633.5" y2="407.2"/>
  <line class="st1" x1="375.5" y1="407.5" x2="308.6" y2="407.4"/>
  <line class="st1" x1="1368.6" y1="805.7" x2="1301.7" y2="805.6"/>
  <line class="st1" x1="1037.7" y1="738.1" x2="970.7" y2="738"/>
  <line class="st1" x1="2031.4" y1="805.9" x2="1964.5" y2="805.8"/>
  <line class="st1" x1="706.5" y1="806.1" x2="639.5" y2="806"/>
  <line class="st1" x1="1700.4" y1="738" x2="1633.5" y2="738"/>
  <line class="st1" x1="375.4" y1="738.3" x2="308.5" y2="738.2"/>
  <line class="st1" x1="1368.7" y1="144.1" x2="1301.7" y2="144"/>
  <line class="st1" x1="1037.8" y1="76.5" x2="970.8" y2="76.4"/>
  <line class="st1" x1="2031.4" y1="144.3" x2="1964.5" y2="144.2"/>
  <line class="st1" x1="706.5" y1="144.4" x2="639.6" y2="144.3"/>
  <line class="st1" x1="1700.4" y1="76.4" x2="1633.5" y2="76.4"/>
  <line class="st1" x1="375.5" y1="76.6" x2="308.6" y2="76.6"/>
  <line class="st1" x1="1106.4" y1="198.8" x2="1113" y2="198.8"/>
  <polyline class="st1" points="1437.4 654.6 1437.4 654.8 1437.4 664.7 1444.5 664.7"/>
  <polyline class="st1" points="1106.4 529.7 1106.4 597.1 1113.5 597.1"/>
  <polyline class="st1" points="1106.4 860.4 1106.4 927.8 1113.5 927.8"/>
  <polyline class="st1" points="775.2 198.4 781.9 198.4 781.8 208.6"/>
  <line class="st1" x1="2100.1" y1="654.4" x2="2100.1" y2="664.5"/>
  <line class="st1" x1="1106.3" y1="664.5" x2="1106.3" y2="664.7"/>
  <line class="st1" x1="775.3" y1="722.7" x2="775.3" y2="723.2"/>
  <line class="st1" x1="775.1" y1="1055" x2="775.1" y2="1130.3"/>
  <polyline class="st1" points="2107 1201.1 2099.9 1201.1 2100.1 1053.7"/>
  <polyline class="st1" points="2100.1 654.4 2100.3 596.7 2106.9 596.7 2107.1 539.3 2100 539.3 2100.1 391.9"/>
  <polyline class="st1" points="782 870.5 775 870.5 775.2 722.9"/>
  <polyline class="st1" points="450.8 140.9 444.1 140.9 444.1 70.1"/>
  <polyline class="st1" points="1775.7 198.7 1775.7 140.6 1769.2 140.6 1769 69.8"/>
  <polyline class="st1" points="1113.5 1316.9 1113.5 1258.7 1106.4 1258.7 1106.4 1191.3"/>
  <polyline class="st1" points="1437.3 1460.8 1437.3 1384.3 1444.6 1384.3"/>
  <polyline class="st1" points="775.1 1460.7 775.1 1384.6 782.1 1384.6"/>
  <line class="st1" x1="2106.8" y1="1248.9" x2="2107" y2="1248.9"/>
  <polyline class="st1" points="1769.1 1392.8 1769.2 1316.8 1775.7 1316.8"/>
  <polyline class="st1" points="444.1 1393.1 444.2 1317 450.7 1317"/>
  <polyline class="st1" points="1775.7 802.2 1769.1 802.2 1769.2 655.2 1775.7 655.2"/>
  <polyline class="st1" points="450.7 802.5 444 802.5 444.2 731.7 444 655.3 450.8 655.3"/>
  <line class="st1" x1="781.9" y1="918.2" x2="782" y2="918.2"/>
  <polyline class="st1" points="1775.7 1133.1 1769.1 1133.2 1769.2 985.9 1775.7 985.9"/>
  <polyline class="st1" points="450.7 1133.3 444 1133.4 444.1 1062.5 444.1 986 450.7 986"/>
  <polyline class="st1" points="1112.9 471.6 1106.3 471.7 1106.4 400.7 1106.4 324.2 1113.4 324.2"/>
  <polyline class="st1" points="781.9 539.5 775.2 539.5 775.3 392.3 782.4 392.3"/>
  <line class="st1" x1="119.7" y1="1191.2" x2="112.6" y2="1191.2"/>
  <line class="st1" x1="119.8" y1="529.5" x2="112.7" y2="529.5"/>
  <line class="st1" x1="119.7" y1="860.3" x2="112.6" y2="860.3"/>
  <line class="st1" x1="1444.7" y1="198.5" x2="1437.6" y2="198.5"/>
  <polyline class="st1" points="1106.3 1392.8 1106.4 1316.9 1113.5 1316.7 1113.5 1326.2 1106.4 1326.2 1106.3 1326.2"/>
  <polyline class="st1" points="2100.2 1461.4 2100.2 1384.6 2107 1384.6 2107 1326.4 2100.3 1326.4 2100.2 1258.3 2106.8 1258.3 2106.8 1201.1"/>
  <polyline class="st1" points="775 1190.9 781.9 1191 781.9 1258.5 775.3 1258.5 775.3 1326.7 782.1 1326.7"/>
  <polyline class="st1" points="1769.2 1191.2 1769.2 1258.6 1775.7 1258.8 1775.7 1326.2 1769.1 1326.2"/>
  <polyline class="st1" points="444.2 1191.4 444.2 1258.8 450.7 1259 450.7 1326.4 444 1326.4"/>
  <polyline class="st1" points="1113.5 655.3 1113.6 597.1 1113.6 597.8"/>
  <polyline class="st1" points="1112.9 802.3 1106.3 802.3 1106.4 731.6 1106.4 655.1 1113.6 655.2 1113.6 655.3 1113.6 664.5 1106.5 664.5"/>
  <polyline class="st1" points="775.2 529.3 781.9 529.4 781.9 596.9 775.3 596.9 775.3 664.5"/>
  <polyline class="st1" points="1769.2 529.6 1769.2 597 1775.7 597.2 1775.7 664.6 1769 664.6"/>
  <polyline class="st1" points="444.3 529.8 444.3 597.2 450.8 597.3 450.8 664.8 444.2 664.8"/>
  <polyline class="st1" points="1113.5 986 1113.5 927.9 1113.5 928.4"/>
  <polyline class="st1" points="1112.9 1133.2 1106.3 1133.3 1106.4 1062.3 1106.4 986 1113.5 986 1113.5 986.5 1113.5 995.4 1106.4 995.4"/>
  <polyline class="st1" points="775.1 860.1 781.9 860.1 781.9 927.6 775.1 927.6 775.1 996.1"/>
  <polyline class="st1" points="1769.2 860.4 1769.2 927.7 1775.7 927.9 1775.7 986"/>
  <polyline class="st1" points="1775.7 986 1775.7 995.4 1769 995.4"/>
  <polyline class="st1" points="444.2 860.6 444.2 928 450.7 928.1 450.7 995.6 444.1 995.6"/>
  <polyline class="st1" points="1106.5 198.8 1106.5 266.2 1113.6 266.2 1113.5 333.6 1106.4 333.6"/>
  <polyline class="st1" points="1769.2 198.7 1769.2 266.1 1775.7 266.3 1775.7 333.7 1769.1 333.7"/>
  <polyline class="st1" points="1112.9 798.6 1112.9 802.5 1112.9 860.4"/>
  <line class="st1" x1="450.8" y1="1453.8" x2="450.8" y2="1460.9"/>
  <line class="st1" x1="1444.7" y1="1385.8" x2="1444.7" y2="1392.6"/>
  <line class="st1" x1="119.7" y1="1386" x2="119.7" y2="1393.1"/>
  <line class="st1" x1="1444.7" y1="724.2" x2="1444.7" y2="731.2"/>
  <line class="st1" x1="119.8" y1="724.4" x2="119.8" y2="731.4"/>
  <polyline class="st1" points="775 1133.1 782.1 1133.1 781.9 1061.8"/>
  <polyline class="st1" points="1437.6 1132.9 1444.7 1132.9 1444.7 1061.8"/>
  <polyline class="st1" points="775.2 471.4 781.9 471.4 781.9 323.8 775.3 323.8"/>
  <polyline class="st1" points="775.1 802.1 782.2 802.1 781.9 731"/>
  <polyline class="st1" points="112.6 1191.2 112.6 1133.1 119.7 1133.1 119.7 1062"/>
  <polyline class="st1" points="112.7 529.5 112.7 471.5 119.8 471.5 119.8 400.4 119.8 393.5"/>
  <polyline class="st1" points="112.6 860.3 112.6 802.2 119.7 802.2 119.7 731.1"/>
  <polyline class="st1" points="1444.7 1326.3 1437.6 1326.2 1437.6 1258.4 1444.7 1258.4 1444.7 1190.9"/>
  <polyline class="st1" points="112.6 1316.8 112.6 1258.6 119.7 1258.6 119.7 1191.2"/>
  <polyline class="st1" points="1437.6 655 1437.6 596.8 1444.7 596.8 1444.7 529.3"/>
  <polyline class="st1" points="112.7 655.2 112.7 597 119.8 597 119.8 529.5"/>
  <polyline class="st1" points="1444.7 995.4 1437.6 995.4 1437.6 927.5 1444.7 927.5 1444.7 860.1"/>
  <polyline class="st1" points="112.6 985.9 112.6 927.7 119.7 927.7 119.7 860.3"/>
  <polyline class="st1" points="1444.8 333.8 1437.6 333.8 1437.6 265.9 1444.7 265.9 1444.7 198.5"/>
  <polyline class="st1" points="1113 1460.5 1113 1383.7 1106.3 1383.7"/>
  <polyline class="st1" points="782.1 1392.9 782.1 1316.1 775.3 1316.1"/>
  <polyline class="st1" points="1775.8 1461.2 1776 1384.6 1769 1384.6"/>
  <polyline class="st1" points="450.8 1455.8 450.8 1384.1 444 1384.1"/>
  <polyline class="st1" points="1444.7 1387.7 1444.7 1316 1437.6 1316"/>
  <polyline class="st1" points="119.7 1387.9 119.7 1316.2 112.6 1316.2"/>
  <polyline class="st1" points="1444.7 726.1 1444.7 654.4 1437.6 654.4"/>
  <polyline class="st1" points="119.8 726.3 119.8 654.6 112.7 654.6"/>
  <polyline class="st1" points="119.7 1057.1 119.7 985.4 112.6 985.4"/>
  <polyline class="st1" points="1437.6 471.3 1444.7 471.2 1444.7 323.5 1437.6 323.5"/>
  <polyline class="st1" points="119.8 395.5 119.8 323.8 112.7 323.8"/>
  <polyline class="st1" points="1243.3 1136.6 1182.1 1136.6 1182.1 1129.5 1184.9 1129.6"/>
  <polyline class="st1" points="912.4 1069 851.2 1069 851.2 1061.9 854 1062"/>
  <polyline class="st1" points="581.2 1136.9 519.9 1136.9 519.9 1129.9 522.7 1129.9"/>
  <polyline class="st1" points="1575.1 1068.9 1513.9 1068.9 1513.9 1061.8"/>
  <polyline class="st1" points="250.2 1069.1 188.9 1069.1 188.9 1062 191.7 1062"/>
  <polyline class="st1" points="1243.3 475 1182.1 475 1182.1 467.9"/>
  <polyline class="st1" points="912.4 407.4 851.2 407.4 851.2 400.3"/>
  <polyline class="st1" points="581.2 475.3 520 475.3 520 468.2"/>
  <polyline class="st1" points="1575.1 407.3 1513.9 407.3 1513.9 400.2"/>
  <polyline class="st1" points="250.2 407.5 189 407.5 189 400.4"/>
  <polyline class="st1" points="1243.3 805.7 1182.1 805.7 1182.1 798.6"/>
  <polyline class="st1" points="912.4 738.1 851.2 738.1 851.2 731"/>
  <polyline class="st1" points="1906.2 805.9 1844.9 805.9 1844.9 798.8"/>
  <polyline class="st1" points="581.2 806.1 519.9 806.1 519.9 799"/>
  <polyline class="st1" points="1575.1 738 1513.9 738 1513.9 731"/>
  <polyline class="st1" points="250.2 738.3 188.9 738.3 188.9 731.2"/>
  <polyline class="st1" points="1243.4 144.1 1182.2 144.1 1182.2 137"/>
  <polyline class="st1" points="912.5 76.5 851.2 76.5 851.2 69.6"/>
  <polyline class="st1" points="1906.2 144.3 1844.9 144.3 1844.9 137.2"/>
  <polyline class="st1" points="581.2 144.4 520 144.4 520 137.3"/>
  <polyline class="st1" points="1575.1 76.4 1513.9 76.4 1513.9 69.3"/>
  <polyline class="st1" points="250.2 76.6 189 76.6 189 69.6"/>
  <line class="st1" x1="1182.1" y1="1129.6" x2="1112.9" y2="1129.6"/>
  <polyline class="st1" points="519.9 1130 450.8 1130 450.7 1053.2 444.2 1053.1"/>
  <polyline class="st1" points="1577 1054.9 1516.7 1054.9 1516.6 1061.8 1444.7 1061.8 1444.7 995.4"/>
  <polyline class="st1" points="2100.1 1053.7 2106.9 1053.7 2107.1 995.3 2100 995.3 2100 984.9"/>
  <polyline class="st1" points="1444.7 995.4 1444.7 985.1 1437.6 985.1"/>
  <polyline class="st1" points="188.9 1062 119.8 1062 119.7 1055.1"/>
  <polyline class="st1" points="1577 393.3 1516.7 393.3 1516.7 400.2 1444.7 400.2"/>
  <polyline class="st1" points="1245.2 791.8 1184.9 791.8 1184.9 798.6 1113 798.6 1112.9 722.1 1106.5 722.2"/>
  <polyline class="st1" points="914.2 724.2 853.9 724.2 853.9 731 781.9 731 781.9 654.5 775.3 654.6"/>
  <polyline class="st1" points="1908 792 1847.7 792 1847.7 798.8 1775.8 798.8 1775.7 722.2 1769.1 722.2"/>
  <polyline class="st1" points="583.1 792.1 522.8 792.1 522.8 799 450.8 799 450.8 722.4 444.2 722.5"/>
  <polyline class="st1" points="1516.6 731 1444.7 731 1444.7 802 1437.6 802"/>
  <polyline class="st1" points="1182.2 137.2 1113 137.2 1113 208.1 1106.4 208.1"/>
  <polyline class="st1" points="851.2 69.6 782.1 69.6 782 140.5 775.1 140.5"/>
  <line class="st1" x1="1845" y1="137.3" x2="1775.8" y2="137.3"/>
  <polyline class="st1" points="1513.9 69.3 1444.7 69.3 1444.7 140.4 1437.6 140.4"/>
  <polyline class="st1" points="189 69.6 119.8 69.6 119.8 140.6 112.7 140.6 112.7 198.7"/>
  <line class="st1" x1="1301.7" y1="1129.4" x2="1301.7" y2="1136.5"/>
  <line class="st1" x1="970.7" y1="1061.8" x2="970.7" y2="1068.9"/>
  <line class="st1" x1="1964.5" y1="1129.6" x2="1964.5" y2="1136.7"/>
  <line class="st1" x1="639.5" y1="1129.8" x2="639.5" y2="1136.9"/>
  <line class="st1" x1="1633.5" y1="1061.8" x2="1633.5" y2="1068.8"/>
  <line class="st1" x1="308.5" y1="1062" x2="308.5" y2="1069.1"/>
  <line class="st1" x1="1301.7" y1="467.8" x2="1301.7" y2="474.9"/>
  <line class="st1" x1="970.7" y1="400.2" x2="970.7" y2="407.3"/>
  <line class="st1" x1="1964.5" y1="468" x2="1964.5" y2="475.1"/>
  <line class="st1" x1="639.6" y1="468.1" x2="639.6" y2="475.2"/>
  <line class="st1" x1="1633.5" y1="400.2" x2="1633.5" y2="407.2"/>
  <line class="st1" x1="308.6" y1="400.4" x2="308.6" y2="407.4"/>
  <line class="st1" x1="1301.7" y1="798.6" x2="1301.7" y2="805.6"/>
  <line class="st1" x1="970.7" y1="731" x2="970.7" y2="738"/>
  <line class="st1" x1="1964.5" y1="799.1" x2="1964.5" y2="805.8"/>
  <line class="st1" x1="639.5" y1="799.1" x2="639.5" y2="806"/>
  <line class="st1" x1="1633.5" y1="731.2" x2="1633.5" y2="738"/>
  <line class="st1" x1="308.5" y1="731.1" x2="308.5" y2="738.2"/>
  <polyline class="st1" points="1368.6 1136.6 1368.6 1129.5 1437.6 1129.5"/>
  <polyline class="st1" points="1037.7 1069 1037.7 1061.9 1106.3 1061.9"/>
  <polyline class="st1" points="2031.4 1136.7 2031.4 1129.6 2100 1129.6"/>
  <polyline class="st1" points="706.5 1136.9 706.5 1129.9 775.1 1129.9 775.1 1201.4 781.8 1201.4"/>
  <polyline class="st1" points="1700.4 1068.9 1700.4 1061.8 1769 1061.8"/>
  <polyline class="st1" points="375.4 1069.1 375.4 1062 444 1062"/>
  <polyline class="st1" points="1368.6 475 1368.6 467.9 1437.5 467.9"/>
  <polyline class="st1" points="1037.7 407.4 1037.7 400.3 1106.3 400.3"/>
  <polyline class="st1" points="2031.4 475.1 2031.4 468 2100 468"/>
  <polyline class="st1" points="706.5 475.3 706.5 468.2 775.1 468.2"/>
  <polyline class="st1" points="1700.4 407.3 1700.4 400.2 1769 400.2"/>
  <polyline class="st1" points="375.5 407.5 375.5 400.4 444.1 400.4"/>
  <polyline class="st1" points="1368.6 805.7 1368.6 798.6 1437.2 798.6"/>
  <polyline class="st1" points="1037.7 738.1 1037.7 731 1106.3 731"/>
  <polyline class="st1" points="2031.4 805.9 2031.4 798.8 2100 798.8"/>
  <polyline class="st1" points="706.5 806.1 706.5 799 775.1 799"/>
  <polyline class="st1" points="1700.4 738 1700.4 731 1769 731"/>
  <polyline class="st1" points="375.4 738.3 375.4 731.2 444 731.2"/>
  <polyline class="st1" points="1368.7 144.1 1368.7 137 1437.6 137 1437.6 208.6 1444.6 208.6"/>
  <polyline class="st1" points="1037.8 76.5 1037.8 69.4 1106.4 69.4 1106.4 140.6 1113 140.7"/>
  <polyline class="st1" points="2100.2 392.1 2106.9 392.1 2106.9 334 2100.3 334"/>
  <polyline class="st1" points="2100.3 265.8 2100.3 266.1 2100.3 334"/>
  <line class="st1" x1="2106.7" y1="265.8" x2="2100.3" y2="265.8"/>
  <line class="st1" x1="2106.7" y1="208.5" x2="2106.7" y2="265.8"/>
  <line class="st1" x1="2100" y1="208.5" x2="2106.7" y2="208.5"/>
  <polyline class="st1" points="2031.4 144.3 2031.4 137.2 2100 137.2 2100 208.5"/>
  <polyline class="st1" points="706.5 144.4 706.5 137.3 775.1 137.3 775.1 208.7 781.8 208.6 781.8 266 775.3 266 775.4 266.4 775.4 334.1 782 334.1"/>
  <polyline class="st1" points="1700.4 76.4 1700.4 69.3 1769 69.3"/>
  <polyline class="st1" points="375.5 76.6 375.5 69.6 444.1 69.6"/>
  <line class="st1" x1="1243.3" y1="1136.6" x2="1243.3" y2="1129.5"/>
  <line class="st1" x1="912.4" y1="1069" x2="912.4" y2="1061.9"/>
  <line class="st1" x1="581.2" y1="1136.9" x2="581.2" y2="1129.9"/>
  <line class="st1" x1="1575.1" y1="1068.9" x2="1575.1" y2="1061.8"/>
  <line class="st1" x1="250.2" y1="1069.1" x2="250.2" y2="1062"/>
  <line class="st1" x1="1243.3" y1="475" x2="1243.3" y2="467.9"/>
  <line class="st1" x1="912.4" y1="407.4" x2="912.4" y2="400.3"/>
  <line class="st1" x1="581.2" y1="475.3" x2="581.2" y2="468.2"/>
  <line class="st1" x1="1575.1" y1="407.3" x2="1575.1" y2="400.2"/>
  <line class="st1" x1="250.2" y1="407.5" x2="250.2" y2="400.4"/>
  <line class="st1" x1="1243.3" y1="805.7" x2="1243.3" y2="798.6"/>
  <line class="st1" x1="912.4" y1="738.1" x2="912.4" y2="731.2"/>
  <line class="st1" x1="1906.2" y1="805.9" x2="1906.2" y2="798.8"/>
  <line class="st1" x1="581.2" y1="806.1" x2="581.2" y2="799.1"/>
  <line class="st1" x1="1575.1" y1="738" x2="1575.1" y2="731.2"/>
  <line class="st1" x1="250.2" y1="738.3" x2="250.2" y2="731.3"/>
  <polyline class="st1" points="1243.4 144.1 1243.4 137 1301.7 137 1301.7 144"/>
  <polyline class="st1" points="912.5 76.5 912.5 69.4 970.8 69.4 970.8 76.4"/>
  <polyline class="st1" points="1906.2 144.3 1906.2 137.2 1964.5 137.2 1964.5 144.2"/>
  <polyline class="st1" points="581.2 144.4 581.2 137.3 639.6 137.3 639.6 144.3"/>
  <polyline class="st1" points="1575.1 76.4 1575.1 69.3 1633.5 69.3 1633.5 76.4"/>
  <polyline class="st1" points="250.2 76.6 250.2 69.6 308.6 69.6 308.6 76.6"/>
  <line class="st1" x1="775.3" y1="664.5" x2="781.9" y2="664.5"/>
  <line class="st1" x1="775.3" y1="722.9" x2="781.9" y2="722.9"/>
</svg>