<?xml version="1.0" encoding="UTF-8"?>
<svg id="Camada_1" xmlns="http://www.w3.org/2000/svg" width="90cm" height="54cm" version="1.1" viewBox="0 0 2551 1530">
  <!-- Generator: Adobe Illustrator 29.3.0, SVG Export Plug-In . SVG Version: 2.1.0 Build 146)  -->
  <defs>
    <style>
      .st0 {
        stroke: #2e3192;
        stroke-miterlimit: 10;
        stroke-width: .5px;
      }

      .st0, .st1 {
        fill: none;
      }

      .st1 {
        fill-rule: evenodd;
        stroke: #00a651;
        stroke-miterlimit: 22.9;
        stroke-width: .6px;
      }
    </style>
  </defs>
  <line class="st0" x1="775.4" y1="722.3" x2="782" y2="722.3"/>
  <line class="st0" x1="775.4" y1="663.8" x2="782" y2="663.8"/>
  <polyline class="st0" points="250.3 76 250.3 68.9 308.6 68.9 308.6 75.9"/>
  <polyline class="st0" points="581.3 143.8 581.3 136.7 639.6 136.7 639.6 143.7"/>
  <line class="st0" x1="250.2" y1="737.6" x2="250.2" y2="730.7"/>
  <line class="st0" x1="581.2" y1="805.4" x2="581.2" y2="798.4"/>
  <line class="st0" x1="250.3" y1="406.9" x2="250.3" y2="399.8"/>
  <line class="st0" x1="581.3" y1="474.6" x2="581.3" y2="467.5"/>
  <line class="st0" x1="250.2" y1="1068.5" x2="250.2" y2="1061.4"/>
  <polyline class="st0" points="375.6 76 375.6 68.9 444.2 68.9"/>
  <polyline class="st0" points="706.6 143.8 706.6 136.7 775.2 136.7 775.2 208 781.8 208 781.8 265.4 775.4 265.4 775.5 265.7 775.5 333.5 782 333.5"/>
  <polyline class="st0" points="375.5 737.6 375.5 730.5 444.1 730.5"/>
  <polyline class="st0" points="706.5 805.4 706.5 798.3 775.1 798.3"/>
  <polyline class="st0" points="375.6 406.9 375.6 399.8 444.2 399.8"/>
  <polyline class="st0" points="706.6 474.6 706.6 467.5 775.2 467.5"/>
  <polyline class="st0" points="375.5 1068.5 375.5 1061.4 444.1 1061.4"/>
  <line class="st0" x1="706.5" y1="1129.2" x2="775.1" y2="1129.2"/>
  <line class="st0" x1="308.5" y1="730.5" x2="308.5" y2="737.5"/>
  <line class="st0" x1="639.5" y1="798.5" x2="639.5" y2="805.4"/>
  <line class="st0" x1="308.6" y1="399.7" x2="308.6" y2="406.8"/>
  <line class="st0" x1="639.6" y1="467.5" x2="639.6" y2="474.6"/>
  <line class="st0" x1="308.5" y1="1061.3" x2="308.5" y2="1068.4"/>
  <polyline class="st0" points="189 68.9 119.9 68.9 119.8 140 112.7 140 112.7 198"/>
  <polyline class="st0" points="583.1 791.5 522.8 791.5 522.8 798.3 450.9 798.3 450.8 721.7 444.2 721.9"/>
  <line class="st0" x1="782" y1="722.3" x2="782" y2="663.8"/>
  <polyline class="st0" points="189 1061.4 119.8 1061.4 119.7 1054.5"/>
  <polyline class="st0" points="522.7 1129.3 450.8 1129.4 450.7 1052.5 444.2 1052.5"/>
  <polyline class="st0" points="250.3 76 189 76 189 68.9"/>
  <polyline class="st0" points="581.3 143.8 520.1 143.8 520.1 136.7"/>
  <polyline class="st0" points="250.2 737.6 189 737.6 189 730.5"/>
  <polyline class="st0" points="581.2 805.4 520 805.4 520 798.3"/>
  <polyline class="st0" points="250.3 406.9 189 406.9 189 399.8"/>
  <polyline class="st0" points="581.3 474.6 520.1 474.6 520.1 467.5"/>
  <polyline class="st0" points="250.2 1068.5 189 1068.5 189 1061.4 191.7 1061.4"/>
  <polyline class="st0" points="119.8 394.8 119.8 323.1 112.7 323.1"/>
  <polyline class="st0" points="119.7 1056.4 119.7 984.7 112.6 984.7"/>
  <polyline class="st0" points="119.8 725.7 119.8 654 112.7 654"/>
  <polyline class="st0" points="119.7 1387.3 119.7 1315.6 112.6 1315.6"/>
  <polyline class="st0" points="112.6 985.3 112.6 927.1 119.7 927.1 119.7 859.6"/>
  <polyline class="st0" points="112.7 654.6 112.7 596.4 119.8 596.4 119.8 528.9"/>
  <polyline class="st0" points="112.6 1316.2 112.6 1258 119.7 1258 119.7 1190.5"/>
  <polyline class="st0" points="112.6 859.6 112.6 801.6 119.7 801.6 119.7 730.5"/>
  <polyline class="st0" points="112.7 528.9 112.7 470.9 119.8 470.9 119.8 399.7 119.8 392.8"/>
  <polyline class="st0" points="112.6 1190.5 112.6 1132.5 119.7 1132.5 119.7 1061.3"/>
  <line class="st0" x1="782" y1="391.6" x2="782" y2="333.5"/>
  <line class="st0" x1="119.8" y1="723.7" x2="119.8" y2="730.8"/>
  <line class="st0" x1="119.7" y1="1385.3" x2="119.7" y2="1392.4"/>
  <polyline class="st0" points="444.2 859.9 444.2 927.3 450.7 927.5 450.7 994.9 444.2 994.9"/>
  <polyline class="st0" points="782 869.8 782 927 775.1 927 775.2 995.4"/>
  <polyline class="st0" points="444.3 529.2 444.3 596.6 450.8 596.7 450.8 664.1 444.2 664.1"/>
  <polyline class="st0" points="782 538.8 782 596.2 775.3 596.2 775.4 663.9"/>
  <polyline class="st0" points="444.2 1190.8 444.2 1258.2 450.7 1258.3 450.7 1316.4"/>
  <line class="st0" x1="119.7" y1="859.6" x2="112.6" y2="859.6"/>
  <line class="st0" x1="119.8" y1="528.9" x2="112.7" y2="528.9"/>
  <line class="st0" x1="119.7" y1="1190.5" x2="112.6" y2="1190.5"/>
  <polyline class="st0" points="782 538.8 775.2 538.8 775.3 391.6 782.4 391.6"/>
  <polyline class="st0" points="450.7 1132.7 444.1 1132.8 444.2 1061.8 444.2 985.4 450.7 985.4"/>
  <line class="st0" x1="782" y1="917.5" x2="782" y2="917.5"/>
  <polyline class="st0" points="450.7 801.8 444.1 801.8 444.2 731.1 444.1 654.6 450.8 654.6"/>
  <polyline class="st0" points="444.2 1392.5 444.2 1316.4 450.7 1316.4"/>
  <polyline class="st0" points="450.8 140.2 444.2 140.2 444.2 69.4"/>
  <polyline class="st0" points="782 869.8 775 869.8 775.2 722.3"/>
  <line class="st0" x1="775.2" y1="1054.3" x2="775.2" y2="1129.6"/>
  <line class="st0" x1="775.4" y1="722.1" x2="775.4" y2="722.5"/>
  <line class="st0" x1="375.6" y1="76" x2="308.6" y2="75.9"/>
  <line class="st0" x1="706.6" y1="143.8" x2="639.6" y2="143.7"/>
  <line class="st0" x1="375.5" y1="737.6" x2="308.5" y2="737.5"/>
  <line class="st0" x1="706.5" y1="805.4" x2="639.5" y2="805.4"/>
  <line class="st0" x1="375.6" y1="406.9" x2="308.6" y2="406.8"/>
  <line class="st0" x1="706.6" y1="474.6" x2="639.6" y2="474.6"/>
  <line class="st0" x1="375.5" y1="1068.5" x2="308.5" y2="1068.4"/>
  <polyline class="st0" points="119.7 399.6 190.5 399.9 191.8 399.9"/>
  <polyline class="st0" points="119.8 730.5 190.5 730.7 191.8 730.7"/>
  <polyline class="st0" points="119.2 1392.1 190.4 1392.3 191.7 1392.3"/>
  <polyline class="st0" points="375.5 1392.3 443.9 1392.3 444 1392.3"/>
  <line class="st0" x1="450.8" y1="467.6" x2="522.8" y2="467.6"/>
  <polyline class="st0" points="315.4 392.8 315.4 399.9 252.1 399.9 252.1 392.8"/>
  <polyline class="st0" points="646.4 460.6 646.4 467.6 583.1 467.6 583.1 460.6"/>
  <polyline class="st0" points="315.3 1054.5 315.3 1061.5 252 1061.5 252 1054.5"/>
  <polyline class="st0" points="646.3 1122.3 646.3 1129.3 583.1 1129.3 583.1 1122.3"/>
  <polyline class="st0" points="315.4 723.7 315.4 730.7 252.1 730.7 252.1 723.7"/>
  <polyline class="st0" points="646.4 791.5 646.4 798.5 583.1 798.5 583.1 791.5"/>
  <polyline class="st0" points="315.3 1385.3 315.3 1392.3 252 1392.3 252 1385.3"/>
  <polyline class="st0" points="375.5 399.9 375.5 392.8 315.5 392.8"/>
  <polyline class="st0" points="706.5 467.6 706.5 460.6 646.5 460.6"/>
  <polyline class="st0" points="375.4 1061.5 375.4 1054.5 315.4 1054.5"/>
  <polyline class="st0" points="706.4 1129.3 706.4 1122.3 646.4 1122.3"/>
  <polyline class="st0" points="375.5 730.7 375.5 723.7 315.5 723.7"/>
  <polyline class="st0" points="706.5 798.5 706.5 791.5 646.5 791.5"/>
  <polyline class="st0" points="375.4 1392.3 375.4 1385.3 315.4 1385.3"/>
  <polyline class="st0" points="252.1 392.8 191.8 392.8 191.8 399.9"/>
  <polyline class="st0" points="583.1 460.6 522.8 460.6 522.8 467.6"/>
  <polyline class="st0" points="583.1 1122.3 522.7 1122.3 522.7 1129.3"/>
  <polyline class="st0" points="252.1 723.7 191.8 723.7 191.8 730.7"/>
  <polyline class="st0" points="252 1385.3 191.7 1385.3 191.7 1392.3"/>
  <line class="st0" x1="583.1" y1="798.5" x2="581.2" y2="798.5"/>
  <line class="st0" x1="252.1" y1="730.7" x2="250.2" y2="730.7"/>
  <line class="st0" x1="252.1" y1="399.9" x2="250.3" y2="399.9"/>
  <line class="st0" x1="583.1" y1="467.6" x2="581.3" y2="467.6"/>
  <line class="st0" x1="444.3" y1="198.3" x2="450.8" y2="198.3"/>
  <polyline class="st0" points="520.1 136.9 450.9 136.9 450.8 207.7 444.3 207.7"/>
  <line class="st0" x1="775.2" y1="995.4" x2="782" y2="995.4"/>
  <line class="st0" x1="775.2" y1="1054.3" x2="782" y2="1054.3"/>
  <line class="st0" x1="782" y1="1054.3" x2="782" y2="995.4"/>
  <line class="st0" x1="119.8" y1="198" x2="112.7" y2="198"/>
  <polyline class="st0" points="112.7 323.7 112.7 265.5 119.8 265.5 119.8 198"/>
  <line class="st0" x1="444.2" y1="859.9" x2="450.7" y2="859.9"/>
  <polyline class="st0" points="444.2 869.4 450.7 869.4 450.7 798.3"/>
  <line class="st0" x1="444.2" y1="529.2" x2="450.8" y2="529.2"/>
  <polyline class="st0" points="444.3 538.6 450.8 538.6 450.8 467.5 450.8 390.9"/>
  <line class="st0" x1="444.1" y1="391" x2="451.2" y2="391"/>
  <polyline class="st0" points="444.1 413.2 444.2 400.3 444.2 323.7"/>
  <line class="st0" x1="444.1" y1="436.7" x2="444.1" y2="413.2"/>
  <polyline class="st0" points="450.8 471.1 444.1 471.1 444.1 436.7"/>
  <line class="st0" x1="444.2" y1="1190.8" x2="450.7" y2="1190.8"/>
  <line class="st0" x1="450.7" y1="1190.8" x2="450.7" y2="1132.7"/>
  <line class="st0" x1="444.3" y1="323.9" x2="451.4" y2="323.9"/>
  <polyline class="st0" points="444.3 198.3 444.3 265.7 451.4 265.8 451.4 323.9 451.4 333.2 444.3 333.2"/>
  <line class="st0" x1="252" y1="1061.5" x2="250.2" y2="1061.5"/>
  <polyline class="st0" points="252 1054.5 191.7 1054.5 191.7 1061.5"/>
  <polygon class="st1" points="138.2 368.1 138.2 368.1 136.8 368.8 136.6 368 138.3 367.1 139.2 367.1 139.2 374.9 138.2 374.9 138.2 368.1"/>
  <path class="st1" d="M135.5,697v-.6l.8-.8c2-1.9,2.9-2.9,2.9-4.1,0-.8-.4-1.5-1.5-1.5s-1.3.4-1.7.7l-.3-.7c.5-.5,1.3-.8,2.2-.8,1.7,0,2.4,1.2,2.4,2.3s-1,2.6-2.7,4.2l-.6.6h0s3.5,0,3.5,0v.9h-5Z"/>
  <path class="st1" d="M139.4,1027.6c.3.2,1,.5,1.7.5,1.4,0,1.8-.9,1.8-1.5,0-1.1-1-1.6-2-1.6h-.6v-.8h.6c.8,0,1.7-.4,1.7-1.3s-.4-1.2-1.4-1.2-1.2.3-1.6.5l-.3-.8c.4-.3,1.2-.6,2-.6,1.5,0,2.2.9,2.2,1.9s-.5,1.5-1.4,1.8h0c1,.2,1.7.9,1.7,2s-1,2.3-2.8,2.3-1.6-.3-2-.5l.3-.8Z"/>
  <path class="st1" d="M141.5,1350.2v-2.6c0-.4,0-.8,0-1.2h0c-.2.5-.4.8-.6,1.2l-1.9,2.7h0s2.6,0,2.6,0h0ZM141.5,1353.2v-2.1h-3.6v-.7l3.5-5h1.1v4.8h1.1v.8h-1.1v2.1h-1Z"/>
  <path class="st1" d="M471.9,424h-3l-.3,2c.2,0,.3,0,.6,0,.6,0,1.2.1,1.7.4.6.3,1.1,1,1.1,2,0,1.5-1.2,2.7-2.9,2.7s-1.6-.2-1.9-.5l.3-.8c.3.2,1,.4,1.7.4s1.8-.6,1.8-1.7c0-1-.7-1.7-2.2-1.7s-.8,0-1.1,0l.5-3.7h3.7v.9Z"/>
  <path class="st1" d="M472.7,772.2c0-1.1-.6-1.8-1.6-1.8s-1.2.4-1.5,1c0,.1-.1.3-.1.5,0,1.3.6,2.2,1.7,2.2s1.5-.8,1.5-1.9h0ZM473,767.7c-.2,0-.5,0-.8,0-1.7.3-2.5,1.5-2.7,2.8h0c.4-.5,1-.9,1.9-.9,1.4,0,2.3,1,2.3,2.5s-1,2.7-2.6,2.7-2.8-1.3-2.8-3.3.6-2.7,1.3-3.5c.6-.6,1.5-1,2.5-1.2.3,0,.6,0,.8,0v.9Z"/>
  <polygon class="st1" points="472.6 1095.4 472.6 1096.1 469.2 1103.2 468.1 1103.2 471.4 1096.3 471.4 1096.2 467.6 1096.2 467.6 1095.4 472.6 1095.4"/>
</svg>