<?xml version="1.0" encoding="UTF-8"?>
<svg id="Camada_1" xmlns="http://www.w3.org/2000/svg" width="90cm" height="54cm" xmlns:xodm="http://www.corel.com/coreldraw/odm/2003" version="1.1" viewBox="0 0 2551.2 1530.7">
  <!-- Generator: Adobe Illustrator 29.3.1, SVG Export Plug-In . SVG Version: 2.1.0 Build 151)  -->
  <defs>
    <style>
      .st0 {
        stroke: #00a651;
      }

      .st0, .st1 {
        fill: none;
        stroke-miterlimit: 15.7;
        stroke-width: .5px;
      }

      .st1 {
        stroke: #2e3192;
      }
    </style>
  </defs>
  <polygon class="st0" points="2140.5 1361 2140.9 1362 2142 1362.5 2142.8 1361.9 2143.1 1361 2142.8 1360.2 2141.9 1359.8 2140.9 1360.1 2140.5 1361"/>
  <polygon class="st0" points="2143.4 1364.9 2142.9 1363.8 2141.6 1363.2 2140.6 1363.8 2140.3 1364.8 2140.6 1365.9 2141.9 1366.3 2143 1365.9 2143.4 1364.9"/>
  <polygon class="st0" points="2139.2 1364.9 2139.6 1363.7 2140.7 1362.9 2140.7 1362.8 2139.8 1362 2139.5 1361.1 2140.2 1359.6 2141.9 1359 2143.6 1359.6 2144.2 1360.9 2143.9 1361.9 2142.9 1362.8 2142.9 1362.8 2144 1363.6 2144.5 1364.8 2143.7 1366.4 2141.8 1367.1 2139.9 1366.4 2139.2 1364.9"/>
  <polygon class="st0" points="2133.1 1366.9 2133.1 1366.3 2134 1365.5 2136.2 1363.2 2136.9 1361.4 2136.5 1360.3 2135.3 1359.9 2133.6 1360.6 2133.3 1359.8 2135.5 1359 2137.3 1359.7 2137.9 1361.3 2137.2 1363.3 2135.3 1365.4 2134.6 1366 2134.6 1366.1 2138.1 1366.1 2138.1 1366.9 2133.1 1366.9"/>
  <polygon class="st0" points="2142.8 1023.1 2142.8 1023.7 2139.4 1030.9 2138.4 1030.9 2141.7 1023.9 2141.7 1023.9 2137.9 1023.9 2137.9 1023.1 2142.8 1023.1"/>
  <polygon class="st0" points="2131.7 1030.9 2131.7 1030.2 2132.4 1029.4 2134.6 1027.1 2135.3 1025.4 2135 1024.3 2133.8 1023.8 2132.1 1024.4 2131.8 1023.7 2134 1022.9 2135.8 1023.7 2136.4 1025.2 2135.7 1027.3 2133.7 1029.4 2133.1 1030 2133.1 1030 2136.6 1030 2136.6 1030.9 2131.7 1030.9"/>
  <polygon class="st0" points="2141.9 696.8 2141.5 695.5 2140.3 695 2138.8 696 2138.7 696.4 2139.2 698 2140.4 698.7 2141.5 698.1 2141.9 696.8"/>
  <polygon class="st0" points="2142.2 692.3 2141.4 692.3 2139.5 693.4 2138.7 695.1 2138.7 695.1 2140.6 694.2 2142.4 694.9 2143 696.7 2142.3 698.6 2140.4 699.4 2138.4 698.5 2137.7 696.1 2138 694.1 2139 692.6 2141.4 691.4 2142.2 691.4 2142.2 692.3"/>
  <polygon class="st0" points="2131.7 699.3 2131.7 698.7 2132.4 697.9 2134.6 695.5 2135.3 693.8 2135 692.7 2133.8 692.3 2132.1 692.9 2131.8 692.2 2134 691.4 2135.8 692.1 2136.4 693.6 2135.7 695.7 2133.7 697.8 2133.1 698.5 2133.1 698.5 2136.6 698.5 2136.6 699.3 2131.7 699.3"/>
  <g>
    <polygon class="st0" points="2143.9 365.4 2140.9 365.4 2140.6 367.4 2141.3 367.4 2143 367.8 2143.8 368.6 2144.1 369.8 2143.3 371.7 2141.2 372.5 2139.2 372 2139.5 371.2 2141.2 371.6 2142.5 371.1 2143.1 369.9 2142.5 368.6 2140.8 368.2 2139.7 368.3 2140.2 364.5 2143.9 364.5 2143.9 365.4"/>
    <polygon class="st0" points="2133.1 372.3 2133.1 371.7 2134 370.8 2136.2 368.6 2136.9 366.8 2136.5 365.7 2135.3 365.2 2133.6 366 2133.3 365.2 2135.5 364.4 2137.3 365.1 2137.9 366.7 2137.2 368.7 2135.3 370.8 2134.6 371.4 2134.6 371.5 2138.1 371.5 2138.1 372.3 2133.1 372.3"/>
  </g>
  <polygon class="st0" points="1814 1426 1814 1423.5 1814.1 1422.2 1814 1422.2 1813.4 1423.4 1811.5 1426 1811.5 1426 1814 1426"/>
  <polygon class="st0" points="1814 1429 1814 1426.9 1810.4 1426.9 1810.4 1426.2 1813.9 1421.2 1815 1421.2 1815 1426 1816.2 1426 1816.2 1426.9 1815 1426.9 1815 1429 1814 1429"/>
  <polygon class="st0" points="1804.6 1429 1804.6 1428.4 1805.5 1427.6 1807.7 1425.3 1808.4 1423.5 1808 1422.4 1806.8 1421.9 1805.2 1422.6 1804.8 1421.9 1807 1421.1 1808.9 1421.8 1809.4 1423.3 1808.7 1425.4 1806.7 1427.5 1806.1 1428.1 1806.1 1428.2 1809.6 1428.2 1809.6 1429 1804.6 1429"/>
  <polygon class="st0" points="1815.6 1100.8 1817.3 1101.3 1818.7 1100.8 1819.1 1099.8 1818.4 1098.6 1817.1 1098.2 1816.4 1098.2 1816.4 1097.4 1817.1 1097.4 1818.2 1097.1 1818.8 1096.1 1818.5 1095.3 1817.4 1094.9 1815.9 1095.4 1815.6 1094.7 1817.6 1094.1 1819.3 1094.7 1819.8 1095.9 1819.5 1097 1818.4 1097.8 1818.4 1097.8 1819.6 1098.5 1820.1 1099.8 1819.4 1101.5 1817.3 1102.2 1815.3 1101.6 1815.6 1100.8"/>
  <polygon class="st0" points="1809.1 1102 1809.1 1101.4 1810 1100.5 1812.2 1098.3 1812.9 1096.5 1812.5 1095.4 1811.3 1094.9 1809.7 1095.6 1809.3 1094.9 1811.5 1094.1 1813.4 1094.8 1814 1096.4 1813.2 1098.4 1811.3 1100.5 1810.6 1101.1 1810.6 1101.1 1814.2 1101.1 1814.2 1102 1809.1 1102"/>
  <polygon class="st0" points="1807.7 765.9 1807.7 765.3 1808.6 764.5 1810.8 762.2 1811.5 760.4 1811.1 759.3 1809.9 758.9 1808.3 759.5 1807.9 758.8 1810.1 758 1812 758.7 1812.5 760.2 1811.8 762.3 1809.8 764.4 1809.2 765.1 1809.2 765.1 1812.7 765.1 1812.7 765.9 1807.7 765.9"/>
  <polygon class="st0" points="1801.6 765.9 1801.6 765.3 1802.4 764.5 1804.6 762.2 1805.3 760.4 1805 759.3 1803.8 758.9 1802.1 759.5 1801.8 758.8 1804 758 1805.8 758.7 1806.4 760.2 1805.7 762.3 1803.7 764.4 1803 765.1 1803 765.1 1806.6 765.1 1806.6 765.9 1801.6 765.9"/>
  <polygon class="st0" points="1805.5 433.6 1805.5 433.6 1804.1 434.3 1803.9 433.6 1805.6 432.6 1806.5 432.6 1806.5 440.4 1805.5 440.4 1805.5 433.6"/>
  <polygon class="st0" points="1797 440.4 1797 439.8 1797.9 439 1800.1 436.7 1800.8 434.9 1800.4 433.8 1799.2 433.4 1797.6 434.1 1797.2 433.3 1799.4 432.5 1801.3 433.3 1801.8 434.8 1801.1 436.8 1799.1 438.9 1798.5 439.6 1798.5 439.6 1802.1 439.6 1802.1 440.4 1797 440.4"/>
  <polygon class="st0" points="1478.7 1360.1 1479.1 1362.4 1480.3 1363.2 1481.5 1362.3 1481.9 1360 1481.5 1357.6 1480.3 1356.8 1479.1 1357.6 1478.7 1360.1"/>
  <polygon class="st0" points="1482.9 1359.9 1482.2 1363 1480.2 1364 1478.3 1363 1477.6 1360.1 1478.4 1357 1480.3 1356 1482.2 1357 1482.9 1359.9"/>
  <polygon class="st0" points="1471.6 1363.9 1471.6 1363.2 1472.4 1362.5 1474.6 1360.1 1475.3 1358.4 1474.9 1357.3 1473.7 1356.9 1472.1 1357.5 1471.7 1356.8 1473.9 1356 1475.8 1356.7 1476.4 1358.3 1475.6 1360.3 1473.7 1362.5 1473 1363 1473 1363 1476.6 1363 1476.6 1363.9 1471.6 1363.9"/>
  <polygon class="st0" points="1472.7 1025.6 1473.1 1026.8 1474.2 1027.3 1475.7 1026.5 1475.8 1026.1 1475.4 1024.4 1474.2 1023.7 1473.1 1024.3 1472.7 1025.6"/>
  <polygon class="st0" points="1472.3 1030.1 1473.2 1030.1 1474.8 1029.3 1475.8 1027.3 1475.8 1027.3 1473.9 1028.1 1472.2 1027.4 1471.6 1025.7 1472.4 1023.8 1474.3 1022.9 1476.1 1023.8 1476.8 1026.2 1476.5 1028.4 1475.5 1029.9 1473.2 1031 1472.3 1031 1472.3 1030.1"/>
  <polygon class="st0" points="1467.8 1024.1 1467.8 1024.1 1466.4 1024.8 1466.2 1024 1467.9 1023.1 1468.8 1023.1 1468.8 1030.9 1467.8 1030.9 1467.8 1024.1"/>
  <polygon class="st0" points="1472.9 693.4 1473.3 694.3 1474.4 694.8 1475.2 694.3 1475.6 693.4 1475.2 692.6 1474.2 692.1 1473.2 692.5 1472.9 693.4"/>
  <polygon class="st0" points="1475.8 697.3 1475.3 696.2 1474.1 695.6 1473 696.2 1472.7 697.2 1473 698.2 1474.2 698.7 1475.4 698.3 1475.8 697.3"/>
  <polygon class="st0" points="1471.6 697.3 1472 696.1 1473.1 695.3 1473.1 695.2 1472.2 694.4 1471.9 693.5 1472.6 692 1474.3 691.4 1476 692 1476.6 693.3 1476.3 694.3 1475.3 695.1 1475.3 695.2 1476.4 696 1476.8 697.2 1476.1 698.8 1474.2 699.4 1472.2 698.8 1471.6 697.3"/>
  <polygon class="st0" points="1467.8 692.5 1467.8 692.5 1466.4 693.2 1466.2 692.4 1467.9 691.5 1468.8 691.5 1468.8 699.3 1467.8 699.3 1467.8 692.5"/>
  <polygon class="st0" points="1481.2 360 1481.2 360.7 1477.9 367.8 1476.8 367.8 1480.2 360.9 1480.2 360.8 1476.4 360.8 1476.4 360 1481.2 360"/>
  <polygon class="st0" points="1472.3 361 1472.3 361 1471 361.7 1470.8 360.9 1472.5 360 1473.4 360 1473.4 367.8 1472.3 367.8 1472.3 361"/>
  <polygon class="st0" points="1148.8 1431 1148.4 1429.7 1147.2 1429.2 1145.7 1430.1 1145.6 1430.6 1146 1432.2 1147.3 1432.8 1148.4 1432.3 1148.8 1431"/>
  <polygon class="st0" points="1149.1 1426.5 1148.3 1426.5 1146.4 1427.5 1145.6 1429.3 1145.6 1429.3 1147.5 1428.4 1149.2 1429.1 1149.9 1430.9 1149.2 1432.8 1147.3 1433.7 1145.3 1432.8 1144.6 1430.4 1144.9 1428.3 1145.8 1426.8 1148.4 1425.7 1149.1 1425.6 1149.1 1426.5"/>
  <polygon class="st0" points="1140.8 1426.7 1140.8 1426.7 1139.5 1427.5 1139.2 1426.7 1140.9 1425.8 1141.8 1425.8 1141.8 1433.5 1140.8 1433.5 1140.8 1426.7"/>
  <polygon class="st0" points="1144.8 1096.7 1141.8 1096.7 1141.5 1098.6 1142.1 1098.6 1143.8 1099 1144.6 1099.8 1144.9 1101 1144.1 1102.9 1142 1103.7 1140.1 1103.2 1140.4 1102.4 1142 1102.8 1143.4 1102.3 1143.8 1101.1 1143.4 1099.9 1141.7 1099.4 1140.5 1099.5 1141.1 1095.7 1144.8 1095.7 1144.8 1096.7"/>
  <polygon class="st0" points="1136.3 1096.7 1136.3 1096.7 1134.9 1097.4 1134.7 1096.7 1136.4 1095.7 1137.3 1095.7 1137.3 1103.5 1136.3 1103.5 1136.3 1096.7"/>
  <polygon class="st0" points="1146.4 769 1146.4 766.4 1146.5 765.2 1146.4 765.2 1145.8 766.3 1143.8 769 1143.8 769 1146.4 769"/>
  <polygon class="st0" points="1146.4 772 1146.4 769.9 1142.8 769.9 1142.8 769.2 1146.3 764.2 1147.4 764.2 1147.4 769 1148.5 769 1148.5 769.9 1147.4 769.9 1147.4 772 1146.4 772"/>
  <polygon class="st0" points="1139.3 765.2 1139.2 765.2 1137.9 765.9 1137.7 765.1 1139.4 764.2 1140.3 764.2 1140.3 772 1139.3 772 1139.3 765.2"/>
  <polygon class="st0" points="1144.9 434.7 1146.7 435.2 1148 434.7 1148.4 433.7 1147.8 432.5 1146.4 432.1 1145.8 432.1 1145.8 431.4 1146.4 431.4 1147.5 431 1148.2 430 1147.8 429.2 1146.8 428.8 1145.2 429.4 1144.9 428.6 1147 428 1148.7 428.5 1149.2 429.9 1148.9 430.9 1147.7 431.6 1147.7 431.7 1149 432.3 1149.5 433.7 1148.8 435.3 1146.7 436 1144.6 435.5 1144.9 434.7"/>
  <polygon class="st0" points="1140.8 429.1 1140.8 429.1 1139.5 429.8 1139.2 429 1140.9 428.1 1141.8 428.1 1141.8 435.9 1140.8 435.9 1140.8 429.1"/>
  <polygon class="st0" points="813.1 1373 813.1 1372.3 814 1371.5 816.2 1369.3 816.9 1367.5 816.5 1366.4 815.3 1365.9 813.7 1366.6 813.3 1365.9 815.5 1365.1 817.4 1365.8 817.9 1367.4 817.2 1369.3 815.2 1371.5 814.6 1372.1 814.6 1372.1 818.1 1372.1 818.1 1373 813.1 1373"/>
  <polygon class="st0" points="809.3 1366.2 809.2 1366.2 807.9 1366.9 807.7 1366.1 809.4 1365.2 810.3 1365.2 810.3 1373 809.3 1373 809.3 1366.2"/>
  <polygon class="st0" points="818.4 1033.2 818.4 1033.2 817.1 1033.9 816.9 1033.1 818.6 1032.2 819.5 1032.2 819.5 1040 818.4 1040 818.4 1033.2"/>
  <polygon class="st0" points="812.3 1033.2 812.3 1033.2 810.9 1033.9 810.7 1033.1 812.4 1032.2 813.3 1032.2 813.3 1040 812.3 1040 812.3 1033.2"/>
  <polygon class="st0" points="793.7 365.8 794.1 367 795.2 367.4 796.7 366.7 796.8 366.2 796.5 364.6 795.2 363.9 794.1 364.5 793.7 365.8"/>
  <polygon class="st0" points="793.3 370.3 794.1 370.3 795.8 369.5 796.8 367.4 796.7 367.4 795 368.3 793.3 367.6 792.6 365.9 793.3 364 795.3 363.1 797.2 364 797.9 366.4 797.5 368.6 796.5 370.1 794.3 371.1 793.3 371.1 793.3 370.3"/>
  <polygon class="st0" points="810.5 699.9 810.9 702.2 812.1 703.1 813.3 702.2 813.7 699.8 813.3 697.5 812.1 696.6 810.9 697.5 810.5 699.9"/>
  <polygon class="st0" points="814.7 699.8 814 702.8 812 703.9 810.1 702.8 809.4 699.9 810.2 696.9 812.1 695.8 814 696.9 814.7 699.8"/>
  <polygon class="st0" points="805.7 697 805.7 697 804.3 697.7 804.1 696.9 805.8 696 806.7 696 806.7 703.8 805.7 703.8 805.7 697"/>
  <polygon class="st0" points="469.7 1426.4 470.1 1427.3 471.2 1427.8 472 1427.3 472.4 1426.4 472.1 1425.5 471 1425.2 470.1 1425.5 469.7 1426.4"/>
  <polygon class="st0" points="472.6 1430.3 472.2 1429.2 470.9 1428.6 469.8 1429.2 469.5 1430.2 469.9 1431.2 471 1431.7 472.2 1431.3 472.6 1430.3"/>
  <polygon class="st0" points="468.4 1430.4 468.8 1429.1 470 1428.2 470 1428.2 469 1427.5 468.7 1426.5 469.4 1425 471.1 1424.4 472.8 1425 473.4 1426.3 473.1 1427.3 472.1 1428.2 472.1 1428.2 473.2 1428.9 473.7 1430.2 473 1431.8 471 1432.5 469.1 1431.8 468.4 1430.4"/>
  <polygon class="st0" points="472.5 1096.1 472.5 1096.8 469.1 1103.9 468 1103.9 471.4 1097 471.4 1096.9 467.6 1096.9 467.6 1096.1 472.5 1096.1"/>
  <polygon class="st0" points="472.7 772.9 472.2 771.6 471 771.1 469.6 772.1 469.4 772.5 469.9 774.1 471.1 774.8 472.2 774.2 472.7 772.9"/>
  <polygon class="st0" points="473 768.4 472.2 768.4 470.3 769.5 469.5 771.2 469.5 771.2 471.4 770.3 473.1 771 473.7 772.8 473 774.7 471.1 775.6 469.1 774.6 468.4 772.2 468.8 770.2 469.7 768.8 472.2 767.5 473 767.5 473 768.4"/>
  <polygon class="st0" points="471.9 424.8 468.9 424.8 468.6 426.8 469.3 426.7 470.9 427.1 471.7 427.9 472 429.1 471.3 431 469.1 431.8 467.2 431.3 467.4 430.5 469.1 430.9 470.4 430.4 471 429.2 470.4 428 468.7 427.5 467.6 427.6 468.1 423.9 471.9 423.9 471.9 424.8"/>
  <polygon class="st0" points="141.4 1350.9 141.4 1348.4 141.5 1347.1 141.4 1347.1 140.8 1348.3 138.9 1350.9 138.9 1350.9 141.4 1350.9"/>
  <polygon class="st0" points="141.4 1353.9 141.4 1351.8 137.8 1351.8 137.8 1351.1 141.3 1346.1 142.5 1346.1 142.5 1350.9 143.6 1350.9 143.6 1351.8 142.5 1351.8 142.5 1353.9 141.4 1353.9"/>
  <polygon class="st0" points="139.4 1028.3 141.1 1028.8 142.5 1028.3 142.9 1027.3 142.2 1026.1 140.9 1025.7 140.3 1025.7 140.3 1024.9 140.9 1024.9 142 1024.7 142.6 1023.6 142.3 1022.8 141.2 1022.5 139.7 1022.9 139.4 1022.2 141.4 1021.6 143.1 1022.2 143.6 1023.4 143.3 1024.5 142.2 1025.3 142.2 1025.3 143.5 1026 144 1027.3 143.3 1029 141.2 1029.6 139.1 1029.1 139.4 1028.3"/>
  <polygon class="st0" points="135.4 697.7 135.4 697.1 136.3 696.3 138.5 694 139.2 692.2 138.8 691.2 137.6 690.7 136 691.3 135.6 690.6 137.8 689.8 139.7 690.5 140.2 692.1 139.5 694.1 137.5 696.3 136.9 696.8 136.9 696.8 140.4 696.8 140.4 697.7 135.4 697.7"/>
  <polygon class="st0" points="138.2 368.8 138.2 368.8 136.8 369.6 136.6 368.7 138.3 367.8 139.2 367.8 139.2 375.6 138.2 375.6 138.2 368.8"/>
  <polyline class="st1" points="252 1055.2 191.7 1055.2 191.7 1062.2"/>
  <line class="st1" x1="252" y1="1062.2" x2="250.2" y2="1062.2"/>
  <polyline class="st1" points="2239.2 393.2 2178.9 393.2 2178.9 400.3"/>
  <line class="st1" x1="2237.4" y1="400.2" x2="2239.2" y2="400.2"/>
  <polyline class="st1" points="2107 870.2 2100.1 870.2 2100.1 722.8"/>
  <line class="st1" x1="2100.1" y1="722.8" x2="2106.9" y2="722.8"/>
  <polyline class="st1" points="1444.7 539.3 1437.6 539.3 1437.7 392.2 1444.7 392.2"/>
  <line class="st1" x1="1444.7" y1="529.4" x2="1437.6" y2="529.4"/>
  <polyline class="st1" points="1444.7 870 1437.3 870 1437.3 722.8 1444.6 722.8"/>
  <line class="st1" x1="1444.7" y1="860.2" x2="1437.4" y2="860.2"/>
  <polyline class="st1" points="444.3 199.1 444.3 266.5 451.3 266.5 451.3 324.6 451.3 334 444.3 334"/>
  <line class="st1" x1="444.3" y1="324.6" x2="451.3" y2="324.6"/>
  <polyline class="st1" points="444.2 1201 450.7 1201 450.7 1129.9"/>
  <line class="st1" x1="444.2" y1="1191.5" x2="450.7" y2="1191.5"/>
  <polyline class="st1" points="1769.1 471.6 1769.2 324.4 1775.7 324.4"/>
  <line class="st1" x1="1769" y1="391.6" x2="1775.8" y2="391.6"/>
  <polyline class="st1" points="450.8 471.8 444 471.8 444 437.4"/>
  <line class="st1" x1="444.1" y1="437.4" x2="444.1" y2="413.9"/>
  <polyline class="st1" points="444.1 413.9 444.1 401 444.2 324.4"/>
  <line class="st1" x1="444" y1="391.7" x2="451.1" y2="391.7"/>
  <polyline class="st1" points="1106.4 539.1 1112.9 539.1 1112.9 471.7 1112.9 391.3 1106.4 391.4"/>
  <line class="st1" x1="1106.4" y1="529.8" x2="1112.9" y2="529.8"/>
  <polyline class="st1" points="2100.1 471.3 2106.9 471.3 2106.9 400.1 2106.9 323.5 2100.2 323.6"/>
  <line class="st1" x1="2100.2" y1="392.2" x2="2106.9" y2="392.2"/>
  <polyline class="st1" points="1769.2 539.2 1775.7 539.2 1775.7 468.1 1775.7 391.5"/>
  <line class="st1" x1="1769.2" y1="529.7" x2="1775.7" y2="529.7"/>
  <line class="st1" x1="1775.7" y1="471.6" x2="1768.6" y2="471.6"/>
  <polyline class="st1" points="444.3 539.4 450.8 539.4 450.8 468.2 450.8 391.6"/>
  <line class="st1" x1="444.1" y1="529.9" x2="450.8" y2="529.9"/>
  <polyline class="st1" points="1106.1 869.8 1113.2 869.8 1112.9 859.5 1112.9 859.2"/>
  <line class="st1" x1="1105.9" y1="860.5" x2="1112.9" y2="860.5"/>
  <polyline class="st1" points="1769.2 869.9 1775.7 869.9 1775.7 798.8"/>
  <line class="st1" x1="1769" y1="860.5" x2="1775.7" y2="860.5"/>
  <polyline class="st1" points="444.2 870.1 450.7 870.1 450.7 799"/>
  <line class="st1" x1="444.1" y1="860.7" x2="450.7" y2="860.7"/>
  <polyline class="st1" points="1769.1 208.3 1775.7 208.3 1775.7 137.2"/>
  <line class="st1" x1="1769" y1="198.8" x2="1775.7" y2="198.8"/>
  <polyline class="st1" points="1444.7 1200.9 1437.6 1200.9 1437.6 1053.7 1444.5 1053.7"/>
  <line class="st1" x1="1444.7" y1="1191" x2="1437.6" y2="1191"/>
  <polyline class="st1" points="112.7 324.4 112.7 266.2 119.8 266.2 119.8 198.8"/>
  <line class="st1" x1="119.8" y1="198.8" x2="112.7" y2="198.8"/>
  <polyline class="st1" points="1106.5 1200.8 1112.9 1200.8 1112.9 1133.2 1112.9 1053 1106.4 1053"/>
  <line class="st1" x1="1106.4" y1="1191.4" x2="1112.9" y2="1191.4"/>
  <polyline class="st1" points="2100 1133 2106.9 1132.9 2106.7 985.1 2099.6 985.1"/>
  <line class="st1" x1="2100.1" y1="1053.8" x2="2106.9" y2="1053.8"/>
  <polyline class="st1" points="1769.2 1201 1775.7 1200.8 1775.7 1129.7 1775.8 1053 1769.1 1053"/>
  <line class="st1" x1="1769.2" y1="1191.3" x2="1775.7" y2="1191.3"/>
  <polyline class="st1" points="851.2 1062.1 782 1062.1 781.9 985.2 775 985.2"/>
  <line class="st1" x1="775.1" y1="1055.1" x2="781.9" y2="1055.1"/>
  <line class="st1" x1="775.1" y1="996.2" x2="781.9" y2="996.2"/>
  <polyline class="st1" points="520 137.6 450.8 137.6 450.8 208.5 444.3 208.5"/>
  <line class="st1" x1="444.3" y1="199.1" x2="450.8" y2="199.1"/>
  <polyline class="st1" points="1906.2 1136.8 1844.9 1136.8 1844.9 1129.7"/>
  <line class="st1" x1="1906.2" y1="1136.8" x2="1906.2" y2="1129.7"/>
  <polyline class="st1" points="2237.4 407.3 2176.2 407.3 2176.2 400.2"/>
  <line class="st1" x1="2237.4" y1="407.3" x2="2237.4" y2="400.2"/>
  <polyline class="st1" points="1906.2 475.2 1844.9 475.2 1844.9 468.1"/>
  <line class="st1" x1="1906.2" y1="475.2" x2="1906.2" y2="468.1"/>
  <line class="st1" x1="1577" y1="400.4" x2="1575.1" y2="400.4"/>
  <line class="st1" x1="2239.2" y1="1061.9" x2="2237.3" y2="1061.9"/>
  <line class="st1" x1="1908" y1="468.2" x2="1906.2" y2="468.2"/>
  <line class="st1" x1="2100.1" y1="664.6" x2="2106.9" y2="664.6"/>
  <line class="st1" x1="1908" y1="799.1" x2="1906.2" y2="799.1"/>
  <line class="st1" x1="1908" y1="1129.8" x2="1906.2" y2="1129.8"/>
  <line class="st1" x1="1577" y1="1062" x2="1575.1" y2="1062"/>
  <line class="st1" x1="1245.3" y1="468.1" x2="1243.3" y2="468.1"/>
  <line class="st1" x1="1245.2" y1="1129.7" x2="1243.3" y2="1129.7"/>
  <line class="st1" x1="914.3" y1="400.5" x2="912.4" y2="400.5"/>
  <line class="st1" x1="522.7" y1="1460.9" x2="450.8" y2="1460.9"/>
  <line class="st1" x1="914.2" y1="1062" x2="912.3" y2="1062"/>
  <line class="st1" x1="583" y1="1130" x2="581.2" y2="1130"/>
  <line class="st1" x1="583.1" y1="468.4" x2="581.2" y2="468.4"/>
  <line class="st1" x1="252.1" y1="400.6" x2="250.2" y2="400.6"/>
  <line class="st1" x1="252.1" y1="731.5" x2="250.2" y2="731.5"/>
  <line class="st1" x1="583.1" y1="799.2" x2="581.2" y2="799.2"/>
  <line class="st1" x1="912.4" y1="731.3" x2="914.2" y2="731.3"/>
  <line class="st1" x1="1245.2" y1="798.9" x2="1243.3" y2="798.9"/>
  <line class="st1" x1="1577" y1="731.3" x2="1575.1" y2="731.3"/>
  <line class="st1" x1="2239.2" y1="731.1" x2="2237.4" y2="731.1"/>
  <line class="st1" x1="1184.9" y1="468.1" x2="1112.9" y2="468.1"/>
  <polyline class="st1" points="1245.2 1453.5 1184.9 1453.5 1184.9 1460.6"/>
  <polyline class="st1" points="2239.2 1385.7 2178.9 1385.7 2178.9 1392.7"/>
  <polyline class="st1" points="914.2 1385.9 853.9 1385.9 853.9 1392.9"/>
  <polyline class="st1" points="1908.1 1454.5 1847.8 1454.5 1847.8 1461.5"/>
  <polyline class="st1" points="583 1453.9 522.7 1453.9 522.7 1460.9"/>
  <polyline class="st1" points="1577 1385.9 1516.7 1385.9 1516.7 1392.9"/>
  <polyline class="st1" points="252 1386.1 191.7 1386.1 191.7 1393.1"/>
  <polyline class="st1" points="1577 724.3 1516.7 724.3 1516.7 731.3"/>
  <polyline class="st1" points="252.1 724.5 191.8 724.5 191.8 731.5"/>
  <polyline class="st1" points="1245.2 1122.7 1184.9 1122.7 1184.9 1129.7"/>
  <polyline class="st1" points="2239.2 1054.8 2178.9 1054.8 2178.9 1061.9"/>
  <polyline class="st1" points="914.2 1055.1 853.9 1055.1 853.9 1062.1"/>
  <polyline class="st1" points="1908 1122.8 1847.7 1122.8 1847.7 1129.8"/>
  <polyline class="st1" points="583 1123 522.7 1123 522.7 1130"/>
  <polyline class="st1" points="1245.3 461.1 1184.9 461.1 1184.9 468.1"/>
  <polyline class="st1" points="914.3 393.4 854 393.4 854 400.5"/>
  <polyline class="st1" points="1908 461.2 1847.7 461.2 1847.7 468.2"/>
  <polyline class="st1" points="583.1 461.3 522.8 461.3 522.8 468.4"/>
  <polyline class="st1" points="252.1 393.6 191.8 393.6 191.8 400.6"/>
  <polyline class="st1" points="1368.6 1460.6 1368.6 1453.5 1308.5 1453.5"/>
  <polyline class="st1" points="2362.5 1392.7 2362.5 1385.7 2302.5 1385.7"/>
  <polyline class="st1" points="1037.6 1392.9 1037.6 1385.9 977.6 1385.9"/>
  <polyline class="st1" points="2031.4 1461.5 2031.4 1454.5 1971.4 1454.5"/>
  <polyline class="st1" points="706.4 1460.9 706.4 1453.9 646.4 1453.9"/>
  <polyline class="st1" points="1700.4 1392.9 1700.4 1385.9 1640.3 1385.9"/>
  <polyline class="st1" points="375.4 1393.1 375.4 1386.1 315.4 1386.1"/>
  <polyline class="st1" points="1368.6 798.9 1368.6 791.9 1308.5 791.9"/>
  <polyline class="st1" points="2362.6 731.1 2362.6 724.1 2302.6 724.1"/>
  <polyline class="st1" points="1037.6 731.3 1037.6 724.3 977.6 724.3"/>
  <polyline class="st1" points="2031.4 799.1 2031.4 792.1 1971.3 792.1"/>
  <polyline class="st1" points="706.5 799.2 706.5 792.2 646.4 792.2"/>
  <polyline class="st1" points="1700.4 731.3 1700.4 724.3 1640.3 724.3"/>
  <polyline class="st1" points="375.4 731.5 375.4 724.5 315.4 724.5"/>
  <polyline class="st1" points="1368.6 1129.7 1368.6 1122.7 1308.5 1122.7"/>
  <polyline class="st1" points="2362.6 1061.9 2362.6 1054.8 2302.6 1054.8"/>
  <polyline class="st1" points="1037.6 1062.1 1037.6 1055.1 977.6 1055.1"/>
  <polyline class="st1" points="2031.4 1129.8 2031.4 1122.8 1971.3 1122.8"/>
  <polyline class="st1" points="706.4 1130 706.4 1123 646.4 1123"/>
  <polyline class="st1" points="1700.4 1062 1700.4 1055 1640.3 1055"/>
  <polyline class="st1" points="375.4 1062.2 375.4 1055.2 315.4 1055.2"/>
  <polyline class="st1" points="1368.6 468.1 1368.6 461.1 1308.6 461.1"/>
  <polyline class="st1" points="2362.6 400.3 2362.6 393.2 2302.6 393.2"/>
  <polyline class="st1" points="1037.7 400.5 1037.7 393.4 977.7 393.4"/>
  <polyline class="st1" points="2031.4 468.2 2031.4 461.2 1971.3 461.2"/>
  <polyline class="st1" points="706.5 468.4 706.5 461.3 646.4 461.3"/>
  <polyline class="st1" points="1700.4 400.4 1700.4 393.4 1640.3 393.4"/>
  <polyline class="st1" points="375.4 400.6 375.4 393.6 315.4 393.6"/>
  <polyline class="st1" points="1308.5 1453.5 1308.5 1460.6 1245.2 1460.6 1245.2 1453.5"/>
  <polyline class="st1" points="2302.4 1385.7 2302.4 1392.7 2239.2 1392.7 2239.2 1385.7"/>
  <polyline class="st1" points="977.5 1385.9 977.5 1392.9 914.2 1392.9 914.2 1385.9"/>
  <polyline class="st1" points="1971.3 1454.5 1971.3 1461.5 1908.1 1461.5 1908.1 1454.5"/>
  <polyline class="st1" points="646.3 1453.9 646.3 1460.9 583 1460.9 583 1453.9"/>
  <polyline class="st1" points="1640.3 1385.9 1640.3 1392.9 1577 1392.9 1577 1385.9"/>
  <polyline class="st1" points="315.3 1386.1 315.3 1393.1 252 1393.1 252 1386.1"/>
  <polyline class="st1" points="1308.5 791.9 1308.5 798.9 1245.2 798.9 1245.2 791.9"/>
  <polyline class="st1" points="2302.5 724.1 2302.5 731.1 2239.2 731.1 2239.2 724.1"/>
  <polyline class="st1" points="977.5 724.3 977.5 731.3 914.2 731.3 914.2 724.3"/>
  <polyline class="st1" points="1971.3 792.1 1971.3 799.1 1908 799.1 1908 792.1"/>
  <polyline class="st1" points="646.4 792.2 646.4 799.2 583.1 799.2 583.1 792.2"/>
  <polyline class="st1" points="1640.3 724.3 1640.3 731.3 1577 731.3 1577 724.3"/>
  <polyline class="st1" points="315.4 724.5 315.4 731.5 252.1 731.5 252.1 724.5"/>
  <polyline class="st1" points="1308.5 1122.7 1308.5 1129.7 1245.2 1129.7 1245.2 1122.7"/>
  <polyline class="st1" points="2302.5 1054.8 2302.5 1061.9 2239.2 1061.9 2239.2 1054.8"/>
  <polyline class="st1" points="977.5 1055.1 977.5 1062.1 914.2 1062.1 914.2 1055.1"/>
  <polyline class="st1" points="1971.3 1122.8 1971.3 1129.8 1908 1129.8 1908 1122.8"/>
  <polyline class="st1" points="646.3 1123 646.3 1130 583 1130 583 1123"/>
  <polyline class="st1" points="1640.3 1055 1640.3 1062 1577 1062 1577 1055"/>
  <polyline class="st1" points="315.3 1055.2 315.3 1062.2 252 1062.2 252 1055.2"/>
  <polyline class="st1" points="1308.5 461.1 1308.5 468.1 1245.3 468.1 1245.3 461.1"/>
  <polyline class="st1" points="2302.5 393.2 2302.5 400.3 2239.2 400.3 2239.2 393.2"/>
  <polyline class="st1" points="977.6 393.4 977.6 400.5 914.3 400.5 914.3 393.4"/>
  <polyline class="st1" points="1971.3 461.2 1971.3 468.2 1908 468.2 1908 461.2"/>
  <polyline class="st1" points="646.4 461.3 646.4 468.4 583.1 468.4 583.1 461.3"/>
  <polyline class="st1" points="1640.3 393.4 1640.3 400.4 1577 400.4 1577 393.4"/>
  <polyline class="st1" points="315.4 393.6 315.4 400.6 252.1 400.6 252.1 393.6"/>
  <line class="st1" x1="2107" y1="1392.7" x2="2178.9" y2="1392.7"/>
  <line class="st1" x1="782.1" y1="1392.9" x2="853.9" y2="1392.9"/>
  <line class="st1" x1="2106.8" y1="1061.9" x2="2178.9" y2="1061.9"/>
  <line class="st1" x1="1775.7" y1="1129.8" x2="1847.7" y2="1129.8"/>
  <line class="st1" x1="2106.9" y1="400.3" x2="2178.9" y2="400.3"/>
  <line class="st1" x1="781.9" y1="400.5" x2="854" y2="400.5"/>
  <line class="st1" x1="1775.7" y1="468.2" x2="1847.7" y2="468.2"/>
  <line class="st1" x1="450.8" y1="468.4" x2="522.8" y2="468.4"/>
  <polyline class="st1" points="1368.6 1460.6 1436.4 1460.6 1436.5 1460.6"/>
  <polyline class="st1" points="2362.6 1392.7 2431.2 1392.7 2431.3 1392.7"/>
  <polyline class="st1" points="1037.7 1392.9 1106.2 1392.9 1106.3 1392.9"/>
  <polyline class="st1" points="2031.5 1461.5 2100.1 1461.5 2100.2 1461.5"/>
  <polyline class="st1" points="706.5 1460.9 775.1 1460.9 775.1 1460.9"/>
  <polyline class="st1" points="1700.4 1392.9 1769 1392.9 1769.1 1392.9"/>
  <polyline class="st1" points="375.4 1393.1 443.9 1393.1 444 1393.1"/>
  <polyline class="st1" points="1112.5 1460.3 1183.7 1460.6 1184.9 1460.6"/>
  <polyline class="st1" points="1775.7 1461.3 1846.5 1461.5 1847.8 1461.5"/>
  <polyline class="st1" points="1444.7 1392.7 1515.3 1392.9 1516.7 1392.9"/>
  <polyline class="st1" points="119.2 1392.9 190.3 1393.1 191.7 1393.1"/>
  <polyline class="st1" points="119.8 731.3 190.4 731.5 191.8 731.5"/>
  <polyline class="st1" points="119.6 400.4 190.4 400.6 191.8 400.6"/>
  <line class="st1" x1="1368.6" y1="1136.7" x2="1301.7" y2="1136.6"/>
  <line class="st1" x1="2362.6" y1="1068.9" x2="2295.6" y2="1068.8"/>
  <line class="st1" x1="1037.7" y1="1069.1" x2="970.7" y2="1069"/>
  <line class="st1" x1="2031.4" y1="1136.8" x2="1964.5" y2="1136.8"/>
  <line class="st1" x1="706.5" y1="1137" x2="639.5" y2="1137"/>
  <line class="st1" x1="1700.4" y1="1069" x2="1633.5" y2="1068.9"/>
  <line class="st1" x1="375.4" y1="1069.2" x2="308.5" y2="1069.2"/>
  <line class="st1" x1="1368.6" y1="475.1" x2="1301.7" y2="475"/>
  <line class="st1" x1="2362.7" y1="407.3" x2="2295.7" y2="407.2"/>
  <line class="st1" x1="1037.7" y1="407.5" x2="970.7" y2="407.4"/>
  <line class="st1" x1="2031.4" y1="475.2" x2="1964.5" y2="475.2"/>
  <line class="st1" x1="706.5" y1="475.4" x2="639.6" y2="475.3"/>
  <line class="st1" x1="1700.4" y1="407.4" x2="1633.5" y2="407.3"/>
  <line class="st1" x1="375.5" y1="407.6" x2="308.6" y2="407.5"/>
  <line class="st1" x1="1368.6" y1="805.8" x2="1301.7" y2="805.7"/>
  <line class="st1" x1="2362.7" y1="738" x2="2295.6" y2="737.9"/>
  <line class="st1" x1="1037.7" y1="738.2" x2="970.7" y2="738.1"/>
  <line class="st1" x1="2031.4" y1="806" x2="1964.5" y2="805.9"/>
  <line class="st1" x1="706.5" y1="806.2" x2="639.5" y2="806.1"/>
  <line class="st1" x1="1700.4" y1="738.1" x2="1633.5" y2="738.1"/>
  <line class="st1" x1="375.4" y1="738.4" x2="308.5" y2="738.3"/>
  <line class="st1" x1="1368.7" y1="144.2" x2="1301.7" y2="144.1"/>
  <line class="st1" x1="2362.7" y1="76.4" x2="2295.7" y2="76.3"/>
  <line class="st1" x1="1037.8" y1="76.6" x2="970.8" y2="76.5"/>
  <line class="st1" x1="2031.4" y1="144.4" x2="1964.5" y2="144.3"/>
  <line class="st1" x1="706.5" y1="144.5" x2="639.6" y2="144.4"/>
  <line class="st1" x1="1700.4" y1="76.5" x2="1633.5" y2="76.5"/>
  <line class="st1" x1="375.5" y1="76.7" x2="308.6" y2="76.7"/>
  <line class="st1" x1="2431.3" y1="1191.2" x2="2437.9" y2="1191.2"/>
  <line class="st1" x1="2431.4" y1="529.6" x2="2437.9" y2="529.6"/>
  <line class="st1" x1="2431.4" y1="860.3" x2="2437.9" y2="860.3"/>
  <line class="st1" x1="2431.4" y1="198.7" x2="2437.9" y2="198.7"/>
  <line class="st1" x1="1106.4" y1="198.9" x2="1113" y2="198.9"/>
  <polyline class="st1" points="1437.4 654.7 1437.4 654.9 1437.4 664.8 1444.5 664.8"/>
  <polyline class="st1" points="1106.4 529.8 1106.4 597.2 1113.5 597.2"/>
  <polyline class="st1" points="1106.4 860.5 1106.4 927.9 1113.5 927.9"/>
  <polyline class="st1" points="2100 198.4 2106.8 198.4 2106.7 208.6"/>
  <polyline class="st1" points="775.2 198.5 781.9 198.5 781.8 208.7"/>
  <line class="st1" x1="2431.3" y1="1316.5" x2="2431.3" y2="1392.9"/>
  <line class="st1" x1="2100.1" y1="654.5" x2="2100.1" y2="664.6"/>
  <line class="st1" x1="1106.3" y1="664.6" x2="1106.3" y2="664.8"/>
  <line class="st1" x1="775.3" y1="722.8" x2="775.3" y2="723.3"/>
  <line class="st1" x1="775.1" y1="1055.1" x2="775.1" y2="1130.4"/>
  <polyline class="st1" points="2107 1201.2 2099.9 1201.2 2100.1 1053.8"/>
  <polyline class="st1" points="2107.1 539.4 2100 539.4 2100.1 392"/>
  <polyline class="st1" points="782 870.6 775 870.6 775.2 723"/>
  <polyline class="st1" points="450.8 141 444.1 141 444.1 70.2"/>
  <polyline class="st1" points="2437.9 1191.2 2437.9 1133.1 2430.8 1133.1"/>
  <polyline class="st1" points="1775.7 198.8 1775.7 140.7 1769.2 140.7 1769 69.9"/>
  <polyline class="st1" points="1113.5 1317 1113.5 1258.8 1106.4 1258.8 1106.4 1191.4"/>
  <polyline class="st1" points="1437.3 1460.9 1437.3 1384.4 1444.6 1384.4"/>
  <polyline class="st1" points="2431.3 1316.8 2438.4 1316.8 2438.4 1258.6 2431.3 1258.6 2431.3 1191.2"/>
  <polyline class="st1" points="2100.2 1461.5 2100.2 1384.7 2107 1384.7"/>
  <polyline class="st1" points="775.1 1460.8 775.1 1384.7 782.1 1384.7"/>
  <line class="st1" x1="2106.8" y1="1249" x2="2107" y2="1249"/>
  <polyline class="st1" points="1769.1 1392.9 1769.2 1316.9 1775.7 1316.9"/>
  <polyline class="st1" points="444.1 1393.2 444.2 1317.1 450.7 1317.1"/>
  <polyline class="st1" points="2437.9 860.3 2437.9 802.2 2431.3 802.2 2431.4 655.2 2438.5 655.2 2438.5 597 2431.4 597 2431.4 587.4 2431.4 539.5 2431.4 529.6"/>
  <polyline class="st1" points="1775.7 802.3 1769.1 802.3 1769.2 655.3 1775.7 655.3"/>
  <polyline class="st1" points="450.7 802.6 444 802.6 444.2 731.8 444 655.4 450.8 655.4"/>
  <polyline class="st1" points="2431.2 1133.4 2431.3 1062.2 2431.4 985.9 2438.4 985.9 2438.4 927.7 2431.4 927.7 2431.4 860.3"/>
  <polyline class="st1" points="2100.1 985.1 2100 918.1 2106.9 918.1"/>
  <line class="st1" x1="781.9" y1="918.3" x2="782" y2="918.3"/>
  <polyline class="st1" points="1775.7 1133.2 1769.1 1133.3 1769.2 986 1775.7 986"/>
  <polyline class="st1" points="450.7 1133.4 444 1133.5 444.1 1062.6 444.1 986.1 450.7 986.1"/>
  <polyline class="st1" points="2437.9 529.6 2437.9 471.5 2431.3 471.5 2431.4 324.1 2438.5 324.1 2438.5 266.1 2431.4 266.1 2431.4 198.7"/>
  <polyline class="st1" points="1112.9 471.7 1106.3 471.8 1106.4 400.8 1106.4 324.3 1113.4 324.3"/>
  <polyline class="st1" points="781.9 539.6 775.2 539.6 775.3 392.4 782.4 392.4"/>
  <line class="st1" x1="119.7" y1="1191.3" x2="112.6" y2="1191.3"/>
  <line class="st1" x1="119.8" y1="529.6" x2="112.7" y2="529.6"/>
  <line class="st1" x1="119.7" y1="860.4" x2="112.6" y2="860.4"/>
  <line class="st1" x1="1444.7" y1="198.6" x2="1437.6" y2="198.6"/>
  <polyline class="st1" points="1106.3 1392.9 1106.4 1317 1113.5 1316.8 1113.5 1326.3 1106.4 1326.3 1106.3 1326.3"/>
  <polyline class="st1" points="2100.1 1190.8 2106.8 1190.9 2106.8 1258.4 2100.2 1258.4 2100.3 1326.5 2107 1326.5"/>
  <polyline class="st1" points="775 1191 781.9 1191.1 781.9 1258.6 775.3 1258.6 775.3 1326.8 782.1 1326.8"/>
  <polyline class="st1" points="1769.2 1191.3 1769.2 1258.7 1775.7 1258.9 1775.7 1326.3 1769.1 1326.3"/>
  <polyline class="st1" points="444.2 1191.5 444.2 1258.9 450.7 1259.1 450.7 1326.5 444 1326.5"/>
  <polyline class="st1" points="1113.5 655.4 1113.6 597.2 1113.6 597.9"/>
  <polyline class="st1" points="1112.9 802.4 1106.3 802.4 1106.4 731.7 1106.4 655.2 1113.6 655.3 1113.6 655.4 1113.6 664.6 1106.5 664.6"/>
  <polyline class="st1" points="775.2 529.4 781.9 529.5 781.9 597 775.3 597 775.3 664.6"/>
  <polyline class="st1" points="1769.2 529.7 1769.2 597.1 1775.7 597.3 1775.7 664.7 1769 664.7"/>
  <polyline class="st1" points="444.3 529.9 444.3 597.3 450.8 597.4 450.8 664.9 444.2 664.9"/>
  <polyline class="st1" points="1113.5 986.1 1113.5 928 1113.5 928.5"/>
  <polyline class="st1" points="1112.9 1133.3 1106.3 1133.4 1106.4 1062.4 1106.4 986.1 1113.5 986.1 1113.5 986.6 1113.5 995.5 1106.4 995.5"/>
  <polyline class="st1" points="2100 860 2106.9 860 2106.9 927.5 2100.1 927.5"/>
  <polyline class="st1" points="775.1 860.2 781.9 860.2 781.9 927.7 775.1 927.7 775.1 996.2"/>
  <polyline class="st1" points="1769.2 860.5 1769.2 927.8 1775.7 928 1775.7 986.1"/>
  <polyline class="st1" points="1775.7 986.1 1775.7 995.5 1769 995.5"/>
  <polyline class="st1" points="444.2 860.7 444.2 928.1 450.7 928.2 450.7 995.7 444.1 995.7"/>
  <polyline class="st1" points="1106.5 198.9 1106.5 266.3 1113.6 266.3 1113.5 333.7 1106.4 333.7"/>
  <polyline class="st1" points="1769.2 198.8 1769.2 266.2 1775.7 266.4 1775.7 333.8 1769.1 333.8"/>
  <polyline class="st1" points="1112.9 798.7 1112.9 802.6 1112.9 860.5"/>
  <line class="st1" x1="450.8" y1="1453.9" x2="450.8" y2="1461"/>
  <line class="st1" x1="1444.7" y1="1385.9" x2="1444.7" y2="1392.7"/>
  <line class="st1" x1="119.7" y1="1386.1" x2="119.7" y2="1393.2"/>
  <line class="st1" x1="1444.7" y1="724.3" x2="1444.7" y2="731.3"/>
  <line class="st1" x1="119.8" y1="724.5" x2="119.8" y2="731.5"/>
  <polyline class="st1" points="775 1133.2 782.1 1133.2 781.9 1061.9"/>
  <polyline class="st1" points="1437.6 1133 1444.7 1133 1444.7 1061.9"/>
  <polyline class="st1" points="775.2 471.5 781.9 471.5 781.9 323.9 775.3 323.9"/>
  <polyline class="st1" points="2100.1 802 2106.9 802 2106.9 730.8"/>
  <polyline class="st1" points="775.1 802.2 782.2 802.2 781.9 731.1"/>
  <polyline class="st1" points="112.6 1191.3 112.6 1133.2 119.7 1133.2 119.7 1062.1"/>
  <polyline class="st1" points="112.7 529.6 112.7 471.6 119.8 471.6 119.8 400.5 119.8 393.6"/>
  <polyline class="st1" points="112.6 860.4 112.6 802.3 119.7 802.3 119.7 731.2"/>
  <polyline class="st1" points="1444.7 1326.4 1437.6 1326.3 1437.6 1258.5 1444.7 1258.5 1444.7 1191"/>
  <polyline class="st1" points="112.6 1316.9 112.6 1258.7 119.7 1258.7 119.7 1191.3"/>
  <polyline class="st1" points="1437.6 655.1 1437.6 596.9 1444.7 596.9 1444.7 529.4"/>
  <polyline class="st1" points="112.7 655.3 112.7 597.1 119.8 597.1 119.8 529.6"/>
  <polyline class="st1" points="1444.7 995.5 1437.6 995.5 1437.6 927.6 1444.7 927.6 1444.7 860.2"/>
  <polyline class="st1" points="112.6 986 112.6 927.8 119.7 927.8 119.7 860.4"/>
  <polyline class="st1" points="1444.8 333.9 1437.6 333.9 1437.6 266 1444.7 266 1444.7 198.6"/>
  <polyline class="st1" points="1113 1460.6 1113 1383.8 1106.3 1383.8"/>
  <polyline class="st1" points="2107 1392.7 2107 1316 2100.3 1316"/>
  <polyline class="st1" points="782.1 1393 782.1 1316.2 775.3 1316.2"/>
  <polyline class="st1" points="1775.8 1461.3 1776 1384.7 1769 1384.7"/>
  <polyline class="st1" points="450.8 1455.9 450.8 1384.2 444 1384.2"/>
  <polyline class="st1" points="1444.7 1387.8 1444.7 1316.1 1437.6 1316.1"/>
  <polyline class="st1" points="119.7 1388 119.7 1316.3 112.6 1316.3"/>
  <polyline class="st1" points="1444.7 726.2 1444.7 654.5 1437.6 654.5"/>
  <polyline class="st1" points="119.8 726.4 119.8 654.7 112.7 654.7"/>
  <polyline class="st1" points="119.7 1057.2 119.7 985.5 112.6 985.5"/>
  <polyline class="st1" points="1437.6 471.4 1444.7 471.3 1444.7 323.6 1437.6 323.6"/>
  <polyline class="st1" points="119.8 395.6 119.8 323.9 112.7 323.9"/>
  <polyline class="st1" points="1243.3 1136.7 1182.1 1136.7 1182.1 1129.6 1184.9 1129.7"/>
  <polyline class="st1" points="2237.3 1068.9 2176.1 1068.9 2176.1 1061.8"/>
  <polyline class="st1" points="912.4 1069.1 851.2 1069.1 851.2 1062 854 1062.1"/>
  <polyline class="st1" points="581.2 1137 519.9 1137 519.9 1130 522.7 1130"/>
  <polyline class="st1" points="1575.1 1069 1513.9 1069 1513.9 1061.9"/>
  <polyline class="st1" points="250.2 1069.2 188.9 1069.2 188.9 1062.1 191.7 1062.1"/>
  <polyline class="st1" points="1243.3 475.1 1182.1 475.1 1182.1 468"/>
  <polyline class="st1" points="912.4 407.5 851.2 407.5 851.2 400.4"/>
  <polyline class="st1" points="581.2 475.4 520 475.4 520 468.3"/>
  <polyline class="st1" points="1575.1 407.4 1513.9 407.4 1513.9 400.3"/>
  <polyline class="st1" points="250.2 407.6 189 407.6 189 400.5"/>
  <polyline class="st1" points="1243.3 805.8 1182.1 805.8 1182.1 798.7"/>
  <polyline class="st1" points="2237.4 738 2176.1 738 2176.1 730.9"/>
  <polyline class="st1" points="912.4 738.2 851.2 738.2 851.2 731.1"/>
  <polyline class="st1" points="1906.2 806 1844.9 806 1844.9 798.9"/>
  <polyline class="st1" points="581.2 806.2 519.9 806.2 519.9 799.1"/>
  <polyline class="st1" points="1575.1 738.1 1513.9 738.1 1513.9 731.1"/>
  <polyline class="st1" points="250.2 738.4 188.9 738.4 188.9 731.3"/>
  <polyline class="st1" points="1243.4 144.2 1182.2 144.2 1182.2 137.1"/>
  <polyline class="st1" points="2237.4 76.4 2176.2 76.4 2176.2 69.3"/>
  <polyline class="st1" points="912.5 76.6 851.2 76.6 851.2 69.7"/>
  <polyline class="st1" points="1906.2 144.4 1844.9 144.4 1844.9 137.3"/>
  <polyline class="st1" points="581.2 144.5 520 144.5 520 137.4"/>
  <polyline class="st1" points="1575.1 76.5 1513.9 76.5 1513.9 69.4"/>
  <polyline class="st1" points="250.2 76.7 189 76.7 189 69.7"/>
  <line class="st1" x1="1182.1" y1="1129.7" x2="1112.9" y2="1129.7"/>
  <polyline class="st1" points="519.9 1130.1 450.8 1130.1 450.7 1053.3 444.2 1053.2"/>
  <polyline class="st1" points="1577 1055 1516.7 1055 1516.6 1061.9 1444.7 1061.9 1444.7 995.5"/>
  <polyline class="st1" points="2100 985 2100 995.4 2107.1 995.4"/>
  <polyline class="st1" points="1444.7 995.5 1444.7 985.2 1437.6 985.2"/>
  <polyline class="st1" points="188.9 1062.1 119.8 1062.1 119.7 1055.2"/>
  <polyline class="st1" points="1577 393.4 1516.7 393.4 1516.7 400.3 1444.7 400.3"/>
  <polyline class="st1" points="1245.2 791.9 1184.9 791.9 1184.9 798.7 1113 798.7 1112.9 722.2 1106.5 722.3"/>
  <polyline class="st1" points="2239.2 724.1 2178.9 724.1 2178.9 730.9 2106.9 730.9 2106.9 654.4 2100.1 654.5 2100.3 596.8 2106.9 596.8 2106.9 529.3 2100.2 529.2"/>
  <polyline class="st1" points="914.2 724.3 853.9 724.3 853.9 731.1 781.9 731.1 781.9 654.6 775.3 654.7"/>
  <polyline class="st1" points="1908 792.1 1847.7 792.1 1847.7 798.9 1775.8 798.9 1775.7 722.3 1769.1 722.3"/>
  <polyline class="st1" points="583.1 792.2 522.8 792.2 522.8 799.1 450.8 799.1 450.8 722.5 444.2 722.6"/>
  <polyline class="st1" points="1516.6 731.1 1444.7 731.1 1444.7 802.1 1437.6 802.1"/>
  <polyline class="st1" points="1182.2 137.3 1113 137.3 1113 208.2 1106.4 208.2"/>
  <polyline class="st1" points="2176.2 69.5 2107.1 69.5 2106.9 140.4 2100 140.4"/>
  <polyline class="st1" points="851.2 69.7 782.1 69.7 782 140.6 775.1 140.6"/>
  <line class="st1" x1="1845" y1="137.4" x2="1775.8" y2="137.4"/>
  <polyline class="st1" points="1513.9 69.4 1444.7 69.4 1444.7 140.5 1437.6 140.5"/>
  <polyline class="st1" points="189 69.7 119.8 69.7 119.8 140.7 112.7 140.7 112.7 198.8"/>
  <line class="st1" x1="1301.7" y1="1129.5" x2="1301.7" y2="1136.6"/>
  <line class="st1" x1="2295.6" y1="1061.7" x2="2295.6" y2="1068.8"/>
  <line class="st1" x1="970.7" y1="1061.9" x2="970.7" y2="1069"/>
  <line class="st1" x1="1964.5" y1="1129.7" x2="1964.5" y2="1136.8"/>
  <line class="st1" x1="639.5" y1="1129.9" x2="639.5" y2="1137"/>
  <line class="st1" x1="1633.5" y1="1061.9" x2="1633.5" y2="1068.9"/>
  <line class="st1" x1="308.5" y1="1062.1" x2="308.5" y2="1069.2"/>
  <line class="st1" x1="1301.7" y1="467.9" x2="1301.7" y2="475"/>
  <line class="st1" x1="2295.7" y1="400.1" x2="2295.7" y2="407.2"/>
  <line class="st1" x1="970.7" y1="400.3" x2="970.7" y2="407.4"/>
  <line class="st1" x1="1964.5" y1="468.1" x2="1964.5" y2="475.2"/>
  <line class="st1" x1="639.6" y1="468.2" x2="639.6" y2="475.3"/>
  <line class="st1" x1="1633.5" y1="400.3" x2="1633.5" y2="407.3"/>
  <line class="st1" x1="308.6" y1="400.5" x2="308.6" y2="407.5"/>
  <line class="st1" x1="1301.7" y1="798.7" x2="1301.7" y2="805.7"/>
  <line class="st1" x1="2295.6" y1="730.8" x2="2295.6" y2="737.9"/>
  <line class="st1" x1="970.7" y1="731.1" x2="970.7" y2="738.1"/>
  <line class="st1" x1="1964.5" y1="799.2" x2="1964.5" y2="805.9"/>
  <line class="st1" x1="639.5" y1="799.2" x2="639.5" y2="806.1"/>
  <line class="st1" x1="1633.5" y1="731.3" x2="1633.5" y2="738.1"/>
  <line class="st1" x1="308.5" y1="731.2" x2="308.5" y2="738.3"/>
  <polyline class="st1" points="1368.6 1136.7 1368.6 1129.6 1437.6 1129.6"/>
  <polyline class="st1" points="2362.6 1068.9 2362.6 1061.8 2431.2 1061.8"/>
  <polyline class="st1" points="1037.7 1069.1 1037.7 1062 1106.3 1062"/>
  <polyline class="st1" points="2031.4 1136.8 2031.4 1129.7 2100 1129.7"/>
  <polyline class="st1" points="706.5 1137 706.5 1130 775.1 1130 775.1 1201.5 781.8 1201.5"/>
  <polyline class="st1" points="1700.4 1069 1700.4 1061.9 1769 1061.9"/>
  <polyline class="st1" points="375.4 1069.2 375.4 1062.1 444 1062.1"/>
  <polyline class="st1" points="1368.6 475.1 1368.6 468 1437.5 468"/>
  <polyline class="st1" points="2362.7 407.3 2362.7 400.2 2431.3 400.2"/>
  <polyline class="st1" points="1037.7 407.5 1037.7 400.4 1106.3 400.4"/>
  <polyline class="st1" points="2031.4 475.2 2031.4 468.1 2100 468.1"/>
  <polyline class="st1" points="706.5 475.4 706.5 468.3 775.1 468.3"/>
  <polyline class="st1" points="1700.4 407.4 1700.4 400.3 1769 400.3"/>
  <polyline class="st1" points="375.5 407.6 375.5 400.5 444.1 400.5"/>
  <polyline class="st1" points="1368.6 805.8 1368.6 798.7 1437.2 798.7"/>
  <polyline class="st1" points="2362.7 738 2362.7 730.9 2431.2 730.9"/>
  <polyline class="st1" points="1037.7 738.2 1037.7 731.1 1106.3 731.1"/>
  <polyline class="st1" points="2031.4 806 2031.4 798.9 2100 798.9"/>
  <polyline class="st1" points="706.5 806.2 706.5 799.1 775.1 799.1"/>
  <polyline class="st1" points="1700.4 738.1 1700.4 731.1 1769 731.1"/>
  <polyline class="st1" points="375.4 738.4 375.4 731.3 444 731.3"/>
  <polyline class="st1" points="1368.7 144.2 1368.7 137.1 1437.6 137.1 1437.6 208.7 1444.6 208.7"/>
  <polyline class="st1" points="2362.7 76.4 2362.7 69.3 2431.3 69.3 2431.3 140.6 2437.9 140.6 2437.9 198.7"/>
  <polyline class="st1" points="1037.8 76.6 1037.8 69.5 1106.4 69.5 1106.4 140.7 1113 140.8"/>
  <polyline class="st1" points="2031.4 144.4 2031.4 137.3 2100 137.3 2100 208.6 2106.7 208.6 2106.7 265.9 2100.3 265.9 2100.3 266.2 2100.3 334.1 2106.9 334.1"/>
  <polyline class="st1" points="706.5 144.5 706.5 137.4 775.1 137.4 775.1 208.8 781.8 208.7 781.8 266.1 775.3 266.1 775.4 266.5 775.4 334.2 782 334.2"/>
  <polyline class="st1" points="1700.4 76.5 1700.4 69.4 1769 69.4"/>
  <polyline class="st1" points="375.5 76.7 375.5 69.7 444.1 69.7"/>
  <line class="st1" x1="1243.3" y1="1136.7" x2="1243.3" y2="1129.6"/>
  <line class="st1" x1="2237.3" y1="1068.9" x2="2237.3" y2="1061.8"/>
  <line class="st1" x1="912.4" y1="1069.1" x2="912.4" y2="1062"/>
  <line class="st1" x1="581.2" y1="1137" x2="581.2" y2="1130"/>
  <line class="st1" x1="1575.1" y1="1069" x2="1575.1" y2="1061.9"/>
  <line class="st1" x1="250.2" y1="1069.2" x2="250.2" y2="1062.1"/>
  <line class="st1" x1="1243.3" y1="475.1" x2="1243.3" y2="468"/>
  <line class="st1" x1="912.4" y1="407.5" x2="912.4" y2="400.4"/>
  <line class="st1" x1="581.2" y1="475.4" x2="581.2" y2="468.3"/>
  <line class="st1" x1="1575.1" y1="407.4" x2="1575.1" y2="400.3"/>
  <line class="st1" x1="250.2" y1="407.6" x2="250.2" y2="400.5"/>
  <line class="st1" x1="1243.3" y1="805.8" x2="1243.3" y2="798.7"/>
  <line class="st1" x1="2237.4" y1="738" x2="2237.4" y2="731"/>
  <line class="st1" x1="912.4" y1="738.2" x2="912.4" y2="731.3"/>
  <line class="st1" x1="1906.2" y1="806" x2="1906.2" y2="798.9"/>
  <line class="st1" x1="581.2" y1="806.2" x2="581.2" y2="799.2"/>
  <line class="st1" x1="1575.1" y1="738.1" x2="1575.1" y2="731.3"/>
  <line class="st1" x1="250.2" y1="738.4" x2="250.2" y2="731.4"/>
  <polyline class="st1" points="1243.4 144.2 1243.4 137.1 1301.7 137.1 1301.7 144.1"/>
  <polyline class="st1" points="2237.4 76.4 2237.4 69.3 2295.7 69.3 2295.7 76.3"/>
  <polyline class="st1" points="912.5 76.6 912.5 69.5 970.8 69.5 970.8 76.5"/>
  <polyline class="st1" points="1906.2 144.4 1906.2 137.3 1964.5 137.3 1964.5 144.3"/>
  <polyline class="st1" points="581.2 144.5 581.2 137.4 639.6 137.4 639.6 144.4"/>
  <polyline class="st1" points="1575.1 76.5 1575.1 69.4 1633.5 69.4 1633.5 76.5"/>
  <polyline class="st1" points="250.2 76.7 250.2 69.7 308.6 69.7 308.6 76.7"/>
  <line class="st1" x1="775.3" y1="664.6" x2="781.9" y2="664.6"/>
  <line class="st1" x1="775.3" y1="723" x2="781.9" y2="723"/>
</svg>