<?xml version="1.0" encoding="UTF-8"?>
<svg id="Camada_1" xmlns="http://www.w3.org/2000/svg" width="90cm" height="54cm" xmlns:xodm="http://www.corel.com/coreldraw/odm/2003" version="1.1" viewBox="0 0 2551.2 1530.7">
  <!-- Generator: Adobe Illustrator 29.3.1, SVG Export Plug-In . SVG Version: 2.1.0 Build 151)  -->
  <defs>
    <style>
      .st0 {
        stroke: #00a651;
      }

      .st0, .st1 {
        fill: none;
        stroke-miterlimit: 15.7;
        stroke-width: .5px;
      }

      .st1 {
        stroke: #2e3192;
      }
    </style>
  </defs>
  <polygon class="st0" points="1815.6 1101 1817.3 1101.5 1818.7 1101 1819.1 1100 1818.4 1098.8 1817.1 1098.4 1816.4 1098.4 1816.4 1097.6 1817.1 1097.6 1818.2 1097.3 1818.8 1096.3 1818.5 1095.5 1817.4 1095.1 1815.9 1095.6 1815.6 1094.9 1817.6 1094.3 1819.3 1094.9 1819.8 1096.1 1819.5 1097.2 1818.4 1098 1818.4 1098 1819.6 1098.7 1820.1 1100 1819.4 1101.7 1817.3 1102.4 1815.3 1101.8 1815.6 1101"/>
  <polygon class="st0" points="1809.1 1102.2 1809.1 1101.6 1810 1100.7 1812.2 1098.5 1812.9 1096.7 1812.5 1095.6 1811.3 1095.1 1809.7 1095.8 1809.3 1095.1 1811.5 1094.3 1813.4 1095 1814 1096.6 1813.2 1098.6 1811.3 1100.7 1810.6 1101.3 1810.6 1101.3 1814.2 1101.3 1814.2 1102.2 1809.1 1102.2"/>
  <polygon class="st0" points="1807.7 766.1 1807.7 765.5 1808.6 764.7 1810.8 762.4 1811.5 760.6 1811.1 759.5 1809.9 759.1 1808.3 759.7 1807.9 759 1810.1 758.2 1812 758.9 1812.5 760.4 1811.8 762.5 1809.8 764.6 1809.2 765.3 1809.2 765.3 1812.7 765.3 1812.7 766.1 1807.7 766.1"/>
  <polygon class="st0" points="1801.6 766.1 1801.6 765.5 1802.4 764.7 1804.6 762.4 1805.3 760.6 1805 759.5 1803.8 759.1 1802.1 759.7 1801.8 759 1804 758.2 1805.8 758.9 1806.4 760.4 1805.7 762.5 1803.7 764.6 1803 765.3 1803 765.3 1806.6 765.3 1806.6 766.1 1801.6 766.1"/>
  <polygon class="st0" points="1805.5 433.8 1805.5 433.8 1804.1 434.5 1803.9 433.8 1805.6 432.8 1806.5 432.8 1806.5 440.6 1805.5 440.6 1805.5 433.8"/>
  <polygon class="st0" points="1797 440.6 1797 440 1797.9 439.2 1800.1 436.9 1800.8 435.1 1800.4 434 1799.2 433.6 1797.6 434.3 1797.2 433.5 1799.4 432.7 1801.3 433.5 1801.8 435 1801.1 437 1799.1 439.1 1798.5 439.8 1798.5 439.8 1802.1 439.8 1802.1 440.6 1797 440.6"/>
  <polygon class="st0" points="1478.7 1360.3 1479.1 1362.6 1480.3 1363.4 1481.5 1362.5 1481.9 1360.2 1481.5 1357.8 1480.3 1357 1479.1 1357.8 1478.7 1360.3"/>
  <polygon class="st0" points="1482.9 1360.1 1482.2 1363.2 1480.2 1364.2 1478.3 1363.2 1477.6 1360.3 1478.4 1357.2 1480.3 1356.2 1482.2 1357.2 1482.9 1360.1"/>
  <polygon class="st0" points="1471.6 1364.1 1471.6 1363.4 1472.4 1362.7 1474.6 1360.3 1475.3 1358.6 1474.9 1357.5 1473.7 1357.1 1472.1 1357.7 1471.7 1357 1473.9 1356.2 1475.8 1356.9 1476.4 1358.5 1475.6 1360.5 1473.7 1362.7 1473 1363.2 1473 1363.2 1476.6 1363.2 1476.6 1364.1 1471.6 1364.1"/>
  <polygon class="st0" points="1472.7 1025.8 1473.1 1027 1474.2 1027.5 1475.7 1026.7 1475.8 1026.3 1475.4 1024.6 1474.2 1023.9 1473.1 1024.5 1472.7 1025.8"/>
  <polygon class="st0" points="1472.3 1030.3 1473.2 1030.3 1474.8 1029.5 1475.8 1027.5 1475.8 1027.5 1473.9 1028.3 1472.2 1027.6 1471.6 1025.9 1472.4 1024 1474.3 1023.1 1476.1 1024 1476.8 1026.4 1476.5 1028.6 1475.5 1030.1 1473.2 1031.2 1472.3 1031.2 1472.3 1030.3"/>
  <polygon class="st0" points="1467.8 1024.3 1467.8 1024.3 1466.4 1025 1466.2 1024.2 1467.9 1023.3 1468.8 1023.3 1468.8 1031.1 1467.8 1031.1 1467.8 1024.3"/>
  <polygon class="st0" points="1472.9 693.6 1473.3 694.5 1474.4 695 1475.2 694.5 1475.6 693.6 1475.2 692.8 1474.2 692.3 1473.2 692.7 1472.9 693.6"/>
  <polygon class="st0" points="1475.8 697.5 1475.3 696.4 1474.1 695.8 1473 696.4 1472.7 697.4 1473 698.4 1474.2 698.9 1475.4 698.5 1475.8 697.5"/>
  <polygon class="st0" points="1471.6 697.5 1472 696.3 1473.1 695.5 1473.1 695.4 1472.2 694.6 1471.9 693.7 1472.6 692.2 1474.3 691.6 1476 692.2 1476.6 693.5 1476.3 694.5 1475.3 695.3 1475.3 695.4 1476.4 696.2 1476.8 697.4 1476.1 699 1474.2 699.6 1472.2 699 1471.6 697.5"/>
  <polygon class="st0" points="1467.8 692.7 1467.8 692.7 1466.4 693.4 1466.2 692.6 1467.9 691.7 1468.8 691.7 1468.8 699.5 1467.8 699.5 1467.8 692.7"/>
  <polygon class="st0" points="1481.2 360.2 1481.2 360.9 1477.9 368 1476.8 368 1480.2 361.1 1480.2 361 1476.4 361 1476.4 360.2 1481.2 360.2"/>
  <polygon class="st0" points="1472.3 361.2 1472.3 361.2 1471 361.9 1470.8 361.1 1472.5 360.2 1473.4 360.2 1473.4 368 1472.3 368 1472.3 361.2"/>
  <polygon class="st0" points="1148.8 1431.2 1148.4 1429.9 1147.2 1429.4 1145.7 1430.3 1145.6 1430.8 1146 1432.4 1147.3 1433 1148.4 1432.5 1148.8 1431.2"/>
  <polygon class="st0" points="1149.1 1426.7 1148.3 1426.7 1146.4 1427.7 1145.6 1429.5 1145.6 1429.5 1147.5 1428.6 1149.2 1429.3 1149.9 1431.1 1149.2 1433 1147.3 1433.9 1145.3 1433 1144.6 1430.6 1144.9 1428.5 1145.8 1427 1148.4 1425.9 1149.1 1425.8 1149.1 1426.7"/>
  <polygon class="st0" points="1140.8 1426.9 1140.8 1426.9 1139.5 1427.7 1139.2 1426.9 1140.9 1426 1141.8 1426 1141.8 1433.7 1140.8 1433.7 1140.8 1426.9"/>
  <polygon class="st0" points="1144.8 1096.9 1141.8 1096.9 1141.5 1098.8 1142.1 1098.8 1143.8 1099.2 1144.6 1100 1144.9 1101.2 1144.1 1103.1 1142 1103.9 1140.1 1103.4 1140.4 1102.6 1142 1103 1143.4 1102.5 1143.8 1101.3 1143.4 1100.1 1141.7 1099.6 1140.5 1099.7 1141.1 1095.9 1144.8 1095.9 1144.8 1096.9"/>
  <polygon class="st0" points="1136.3 1096.9 1136.3 1096.9 1134.9 1097.6 1134.7 1096.9 1136.4 1095.9 1137.3 1095.9 1137.3 1103.7 1136.3 1103.7 1136.3 1096.9"/>
  <polygon class="st0" points="1146.4 769.2 1146.4 766.6 1146.5 765.4 1146.4 765.4 1145.8 766.5 1143.8 769.2 1143.8 769.2 1146.4 769.2"/>
  <polygon class="st0" points="1146.4 772.2 1146.4 770.1 1142.8 770.1 1142.8 769.4 1146.3 764.4 1147.4 764.4 1147.4 769.2 1148.5 769.2 1148.5 770.1 1147.4 770.1 1147.4 772.2 1146.4 772.2"/>
  <polygon class="st0" points="1139.3 765.4 1139.2 765.4 1137.9 766.1 1137.7 765.3 1139.4 764.4 1140.3 764.4 1140.3 772.2 1139.3 772.2 1139.3 765.4"/>
  <polygon class="st0" points="1144.9 434.9 1146.7 435.4 1148 434.9 1148.4 433.9 1147.8 432.7 1146.4 432.3 1145.8 432.3 1145.8 431.6 1146.4 431.6 1147.5 431.2 1148.2 430.2 1147.8 429.4 1146.8 429 1145.2 429.6 1144.9 428.8 1147 428.2 1148.7 428.7 1149.2 430.1 1148.9 431.1 1147.7 431.8 1147.7 431.9 1149 432.5 1149.5 433.9 1148.8 435.5 1146.7 436.2 1144.6 435.7 1144.9 434.9"/>
  <polygon class="st0" points="1140.8 429.3 1140.8 429.3 1139.5 430 1139.2 429.2 1140.9 428.3 1141.8 428.3 1141.8 436.1 1140.8 436.1 1140.8 429.3"/>
  <polygon class="st0" points="813.1 1373.2 813.1 1372.5 814 1371.7 816.2 1369.5 816.9 1367.7 816.5 1366.6 815.3 1366.1 813.7 1366.8 813.3 1366.1 815.5 1365.3 817.4 1366 817.9 1367.6 817.2 1369.5 815.2 1371.7 814.6 1372.3 814.6 1372.3 818.1 1372.3 818.1 1373.2 813.1 1373.2"/>
  <polygon class="st0" points="809.3 1366.4 809.2 1366.4 807.9 1367.1 807.7 1366.3 809.4 1365.4 810.3 1365.4 810.3 1373.2 809.3 1373.2 809.3 1366.4"/>
  <polygon class="st0" points="818.4 1033.4 818.4 1033.4 817.1 1034.1 816.9 1033.3 818.6 1032.4 819.5 1032.4 819.5 1040.2 818.4 1040.2 818.4 1033.4"/>
  <polygon class="st0" points="812.3 1033.4 812.3 1033.4 810.9 1034.1 810.7 1033.3 812.4 1032.4 813.3 1032.4 813.3 1040.2 812.3 1040.2 812.3 1033.4"/>
  <polygon class="st0" points="793.7 366 794.1 367.2 795.2 367.6 796.7 366.9 796.8 366.4 796.5 364.8 795.2 364.1 794.1 364.7 793.7 366"/>
  <polygon class="st0" points="793.3 370.5 794.1 370.5 795.8 369.7 796.8 367.6 796.7 367.6 795 368.5 793.3 367.8 792.6 366.1 793.3 364.2 795.3 363.3 797.2 364.2 797.9 366.6 797.5 368.8 796.5 370.3 794.3 371.3 793.3 371.3 793.3 370.5"/>
  <polygon class="st0" points="810.5 700.1 810.9 702.4 812.1 703.3 813.3 702.4 813.7 700 813.3 697.7 812.1 696.8 810.9 697.7 810.5 700.1"/>
  <polygon class="st0" points="814.7 700 814 703 812 704.1 810.1 703 809.4 700.1 810.2 697.1 812.1 696 814 697.1 814.7 700"/>
  <polygon class="st0" points="805.7 697.2 805.7 697.2 804.3 697.9 804.1 697.1 805.8 696.2 806.7 696.2 806.7 704 805.7 704 805.7 697.2"/>
  <polygon class="st0" points="469.7 1426.6 470.1 1427.5 471.2 1428 472 1427.5 472.4 1426.6 472.1 1425.7 471 1425.4 470.1 1425.7 469.7 1426.6"/>
  <polygon class="st0" points="472.6 1430.5 472.2 1429.4 470.9 1428.8 469.8 1429.4 469.5 1430.4 469.9 1431.4 471 1431.9 472.2 1431.5 472.6 1430.5"/>
  <polygon class="st0" points="468.4 1430.6 468.8 1429.3 470 1428.4 470 1428.4 469 1427.7 468.7 1426.7 469.4 1425.2 471.1 1424.6 472.8 1425.2 473.4 1426.5 473.1 1427.5 472.1 1428.4 472.1 1428.4 473.2 1429.1 473.7 1430.4 473 1432 471 1432.7 469.1 1432 468.4 1430.6"/>
  <polygon class="st0" points="472.5 1096.3 472.5 1097 469.1 1104.1 468 1104.1 471.4 1097.2 471.4 1097.1 467.6 1097.1 467.6 1096.3 472.5 1096.3"/>
  <polygon class="st0" points="472.7 773.1 472.2 771.8 471 771.3 469.6 772.3 469.4 772.7 469.9 774.3 471.1 775 472.2 774.4 472.7 773.1"/>
  <polygon class="st0" points="473 768.6 472.2 768.6 470.3 769.7 469.5 771.4 469.5 771.4 471.4 770.5 473.1 771.2 473.7 773 473 774.9 471.1 775.8 469.1 774.8 468.4 772.4 468.8 770.4 469.7 769 472.2 767.7 473 767.7 473 768.6"/>
  <polygon class="st0" points="471.9 425 468.9 425 468.6 427 469.3 426.9 470.9 427.3 471.7 428.1 472 429.3 471.3 431.2 469.1 432 467.2 431.5 467.4 430.7 469.1 431.1 470.4 430.6 471 429.4 470.4 428.2 468.7 427.7 467.6 427.8 468.1 424.1 471.9 424.1 471.9 425"/>
  <polygon class="st0" points="141.4 1351.1 141.4 1348.6 141.5 1347.3 141.4 1347.3 140.8 1348.5 138.9 1351.1 138.9 1351.1 141.4 1351.1"/>
  <polygon class="st0" points="141.4 1354.1 141.4 1352 137.8 1352 137.8 1351.3 141.3 1346.3 142.5 1346.3 142.5 1351.1 143.6 1351.1 143.6 1352 142.5 1352 142.5 1354.1 141.4 1354.1"/>
  <polygon class="st0" points="139.4 1028.5 141.1 1029 142.5 1028.5 142.9 1027.5 142.2 1026.3 140.9 1025.9 140.3 1025.9 140.3 1025.1 140.9 1025.1 142 1024.9 142.6 1023.8 142.3 1023 141.2 1022.7 139.7 1023.1 139.4 1022.4 141.4 1021.8 143.1 1022.4 143.6 1023.6 143.3 1024.7 142.2 1025.5 142.2 1025.5 143.5 1026.2 144 1027.5 143.3 1029.2 141.2 1029.8 139.1 1029.3 139.4 1028.5"/>
  <polygon class="st0" points="135.4 697.9 135.4 697.3 136.3 696.5 138.5 694.2 139.2 692.4 138.8 691.4 137.6 690.9 136 691.5 135.6 690.8 137.8 690 139.7 690.7 140.2 692.3 139.5 694.3 137.5 696.5 136.9 697 136.9 697 140.4 697 140.4 697.9 135.4 697.9"/>
  <polygon class="st0" points="138.2 369 138.2 369 136.8 369.8 136.6 368.9 138.3 368 139.2 368 139.2 375.8 138.2 375.8 138.2 369"/>
  <polyline class="st1" points="252 1055.4 191.7 1055.4 191.7 1062.4"/>
  <line class="st1" x1="252" y1="1062.4" x2="250.2" y2="1062.4"/>
  <polyline class="st1" points="2100.1 985.3 2100 918.3 2106.9 918.3 2107 870.4 2100.1 870.4 2100.1 723"/>
  <polyline class="st1" points="1444.7 539.5 1437.6 539.5 1437.7 392.4 1444.7 392.4"/>
  <line class="st1" x1="1444.7" y1="529.6" x2="1437.6" y2="529.6"/>
  <polyline class="st1" points="1444.7 870.2 1437.3 870.2 1437.3 723 1444.6 723"/>
  <line class="st1" x1="1444.7" y1="860.4" x2="1437.4" y2="860.4"/>
  <polyline class="st1" points="444.3 199.3 444.3 266.7 451.3 266.7 451.3 324.8 451.3 334.2 444.3 334.2"/>
  <line class="st1" x1="444.3" y1="324.8" x2="451.3" y2="324.8"/>
  <polyline class="st1" points="444.2 1201.2 450.7 1201.2 450.7 1130.1"/>
  <line class="st1" x1="444.2" y1="1191.7" x2="450.7" y2="1191.7"/>
  <polyline class="st1" points="1769.1 471.8 1769.2 324.6 1775.7 324.6"/>
  <line class="st1" x1="1769" y1="391.8" x2="1775.8" y2="391.8"/>
  <polyline class="st1" points="450.8 472 444 472 444 437.6"/>
  <line class="st1" x1="444.1" y1="437.6" x2="444.1" y2="414.1"/>
  <polyline class="st1" points="444.1 414.1 444.1 401.2 444.2 324.6"/>
  <line class="st1" x1="444" y1="391.9" x2="451.1" y2="391.9"/>
  <polyline class="st1" points="1106.4 539.3 1112.9 539.3 1112.9 471.9 1112.9 391.5 1106.4 391.6"/>
  <line class="st1" x1="1106.4" y1="530" x2="1112.9" y2="530"/>
  <polyline class="st1" points="1769.2 539.4 1775.7 539.4 1775.7 468.3 1775.7 391.7"/>
  <line class="st1" x1="1769.2" y1="529.9" x2="1775.7" y2="529.9"/>
  <line class="st1" x1="1775.7" y1="471.8" x2="1768.6" y2="471.8"/>
  <polyline class="st1" points="444.3 539.6 450.8 539.6 450.8 468.4 450.8 391.8"/>
  <line class="st1" x1="444.1" y1="530.1" x2="450.8" y2="530.1"/>
  <polyline class="st1" points="1106.1 870 1113.2 870 1112.9 859.7 1112.9 859.4"/>
  <line class="st1" x1="1105.9" y1="860.7" x2="1112.9" y2="860.7"/>
  <polyline class="st1" points="1769.2 870.1 1775.7 870.1 1775.7 799"/>
  <line class="st1" x1="1769" y1="860.7" x2="1775.7" y2="860.7"/>
  <polyline class="st1" points="444.2 870.3 450.7 870.3 450.7 799.2"/>
  <line class="st1" x1="444.1" y1="860.9" x2="450.7" y2="860.9"/>
  <polyline class="st1" points="1769.1 208.5 1775.7 208.5 1775.7 137.4"/>
  <line class="st1" x1="1769" y1="199" x2="1775.7" y2="199"/>
  <polyline class="st1" points="1444.7 1201.1 1437.6 1201.1 1437.6 1053.9 1444.5 1053.9"/>
  <line class="st1" x1="1444.7" y1="1191.2" x2="1437.6" y2="1191.2"/>
  <polyline class="st1" points="112.7 324.6 112.7 266.4 119.8 266.4 119.8 199"/>
  <line class="st1" x1="119.8" y1="199" x2="112.7" y2="199"/>
  <polyline class="st1" points="1106.5 1201 1112.9 1201 1112.9 1133.4 1112.9 1053.2 1106.4 1053.2"/>
  <line class="st1" x1="1106.4" y1="1191.6" x2="1112.9" y2="1191.6"/>
  <polyline class="st1" points="1775.7 1129.9 1775.8 1053.2 1769.1 1053.2"/>
  <polyline class="st1" points="851.2 1062.3 782 1062.3 781.9 985.4 775 985.4"/>
  <line class="st1" x1="775.1" y1="1055.3" x2="781.9" y2="1055.3"/>
  <line class="st1" x1="775.1" y1="996.4" x2="781.9" y2="996.4"/>
  <polyline class="st1" points="520 137.8 450.8 137.8 450.8 208.7 444.3 208.7"/>
  <line class="st1" x1="444.3" y1="199.3" x2="450.8" y2="199.3"/>
  <polyline class="st1" points="1906.2 475.4 1844.9 475.4 1844.9 468.3"/>
  <line class="st1" x1="1906.2" y1="475.4" x2="1906.2" y2="468.3"/>
  <line class="st1" x1="1577" y1="400.6" x2="1575.1" y2="400.6"/>
  <line class="st1" x1="1908" y1="468.4" x2="1906.2" y2="468.4"/>
  <polyline class="st1" points="2100.1 723 2106.9 723 2106.9 664.8 2100.1 664.8"/>
  <line class="st1" x1="1908" y1="799.3" x2="1906.2" y2="799.3"/>
  <line class="st1" x1="1577" y1="1062.2" x2="1575.1" y2="1062.2"/>
  <line class="st1" x1="1245.3" y1="468.3" x2="1243.3" y2="468.3"/>
  <line class="st1" x1="1245.2" y1="1129.9" x2="1243.3" y2="1129.9"/>
  <line class="st1" x1="914.3" y1="400.7" x2="912.4" y2="400.7"/>
  <line class="st1" x1="522.7" y1="1461.1" x2="450.8" y2="1461.1"/>
  <line class="st1" x1="914.2" y1="1062.2" x2="912.3" y2="1062.2"/>
  <line class="st1" x1="583" y1="1130.2" x2="581.2" y2="1130.2"/>
  <line class="st1" x1="583.1" y1="468.6" x2="581.2" y2="468.6"/>
  <line class="st1" x1="252.1" y1="400.8" x2="250.2" y2="400.8"/>
  <line class="st1" x1="252.1" y1="731.7" x2="250.2" y2="731.7"/>
  <line class="st1" x1="583.1" y1="799.4" x2="581.2" y2="799.4"/>
  <line class="st1" x1="912.4" y1="731.5" x2="914.2" y2="731.5"/>
  <line class="st1" x1="1245.2" y1="799.1" x2="1243.3" y2="799.1"/>
  <line class="st1" x1="1577" y1="731.5" x2="1575.1" y2="731.5"/>
  <line class="st1" x1="1184.9" y1="468.3" x2="1112.9" y2="468.3"/>
  <polyline class="st1" points="1245.2 1453.7 1184.9 1453.7 1184.9 1460.8"/>
  <polyline class="st1" points="914.2 1386.1 853.9 1386.1 853.9 1393.1"/>
  <polyline class="st1" points="583 1454.1 522.7 1454.1 522.7 1461.1"/>
  <polyline class="st1" points="1577 1386.1 1516.7 1386.1 1516.7 1393.1"/>
  <polyline class="st1" points="252 1386.3 191.7 1386.3 191.7 1393.3"/>
  <polyline class="st1" points="1577 724.5 1516.7 724.5 1516.7 731.5"/>
  <polyline class="st1" points="252.1 724.7 191.8 724.7 191.8 731.7"/>
  <polyline class="st1" points="1245.2 1122.9 1184.9 1122.9 1184.9 1129.9"/>
  <polyline class="st1" points="914.2 1055.3 853.9 1055.3 853.9 1062.3"/>
  <polyline class="st1" points="1908 1123 1847.7 1123 1847.7 1130"/>
  <polyline class="st1" points="583 1123.2 522.7 1123.2 522.7 1130.2"/>
  <polyline class="st1" points="1245.3 461.3 1184.9 461.3 1184.9 468.3"/>
  <polyline class="st1" points="914.3 393.6 854 393.6 854 400.7"/>
  <polyline class="st1" points="1908 461.4 1847.7 461.4 1847.7 468.4"/>
  <polyline class="st1" points="583.1 461.5 522.8 461.5 522.8 468.6"/>
  <polyline class="st1" points="252.1 393.8 191.8 393.8 191.8 400.8"/>
  <polyline class="st1" points="1368.6 1460.8 1368.6 1453.7 1308.5 1453.7"/>
  <polyline class="st1" points="1037.6 1393.1 1037.6 1386.1 977.6 1386.1"/>
  <polyline class="st1" points="706.4 1461.1 706.4 1454.1 646.4 1454.1"/>
  <polyline class="st1" points="1700.4 1393.1 1700.4 1386.1 1640.3 1386.1"/>
  <polyline class="st1" points="375.4 1393.3 375.4 1386.3 315.4 1386.3"/>
  <polyline class="st1" points="1368.6 799.1 1368.6 792.1 1308.5 792.1"/>
  <polyline class="st1" points="1037.6 731.5 1037.6 724.5 977.6 724.5"/>
  <polyline class="st1" points="2031.4 799.3 2031.4 792.3 1971.3 792.3"/>
  <polyline class="st1" points="706.5 799.4 706.5 792.4 646.4 792.4"/>
  <polyline class="st1" points="1700.4 731.5 1700.4 724.5 1640.3 724.5"/>
  <polyline class="st1" points="375.4 731.7 375.4 724.7 315.4 724.7"/>
  <polyline class="st1" points="1368.6 1129.9 1368.6 1122.9 1308.5 1122.9"/>
  <polyline class="st1" points="1037.6 1062.3 1037.6 1055.3 977.6 1055.3"/>
  <polyline class="st1" points="706.4 1130.2 706.4 1123.2 646.4 1123.2"/>
  <polyline class="st1" points="1700.4 1062.2 1700.4 1055.2 1640.3 1055.2"/>
  <polyline class="st1" points="375.4 1062.4 375.4 1055.4 315.4 1055.4"/>
  <polyline class="st1" points="1368.6 468.3 1368.6 461.3 1308.6 461.3"/>
  <polyline class="st1" points="1037.7 400.7 1037.7 393.6 977.7 393.6"/>
  <polyline class="st1" points="2031.4 468.4 2031.4 461.4 1971.3 461.4"/>
  <polyline class="st1" points="706.5 468.6 706.5 461.5 646.4 461.5"/>
  <polyline class="st1" points="1700.4 400.6 1700.4 393.6 1640.3 393.6"/>
  <polyline class="st1" points="375.4 400.8 375.4 393.8 315.4 393.8"/>
  <polyline class="st1" points="1308.5 1453.7 1308.5 1460.8 1245.2 1460.8 1245.2 1453.7"/>
  <polyline class="st1" points="977.5 1386.1 977.5 1393.1 914.2 1393.1 914.2 1386.1"/>
  <polyline class="st1" points="646.3 1454.1 646.3 1461.1 583 1461.1 583 1454.1"/>
  <polyline class="st1" points="1640.3 1386.1 1640.3 1393.1 1577 1393.1 1577 1386.1"/>
  <polyline class="st1" points="315.3 1386.3 315.3 1393.3 252 1393.3 252 1386.3"/>
  <polyline class="st1" points="1308.5 792.1 1308.5 799.1 1245.2 799.1 1245.2 792.1"/>
  <polyline class="st1" points="977.5 724.5 977.5 731.5 914.2 731.5 914.2 724.5"/>
  <polyline class="st1" points="1971.3 792.3 1971.3 799.3 1908 799.3 1908 792.3"/>
  <polyline class="st1" points="646.4 792.4 646.4 799.4 583.1 799.4 583.1 792.4"/>
  <polyline class="st1" points="1640.3 724.5 1640.3 731.5 1577 731.5 1577 724.5"/>
  <polyline class="st1" points="315.4 724.7 315.4 731.7 252.1 731.7 252.1 724.7"/>
  <polyline class="st1" points="1308.5 1122.9 1308.5 1129.9 1245.2 1129.9 1245.2 1122.9"/>
  <polyline class="st1" points="977.5 1055.3 977.5 1062.3 914.2 1062.3 914.2 1055.3"/>
  <polyline class="st1" points="1971.3 1123 1971.3 1130 1908 1130 1908 1123"/>
  <polyline class="st1" points="646.3 1123.2 646.3 1130.2 583 1130.2 583 1123.2"/>
  <polyline class="st1" points="1640.3 1055.2 1640.3 1062.2 1577 1062.2 1577 1055.2"/>
  <polyline class="st1" points="315.3 1055.4 315.3 1062.4 252 1062.4 252 1055.4"/>
  <polyline class="st1" points="1308.5 461.3 1308.5 468.3 1245.3 468.3 1245.3 461.3"/>
  <polyline class="st1" points="977.6 393.6 977.6 400.7 914.3 400.7 914.3 393.6"/>
  <polyline class="st1" points="1971.3 461.4 1971.3 468.4 1908 468.4 1908 461.4"/>
  <polyline class="st1" points="646.4 461.5 646.4 468.6 583.1 468.6 583.1 461.5"/>
  <polyline class="st1" points="1640.3 393.6 1640.3 400.6 1577 400.6 1577 393.6"/>
  <polyline class="st1" points="315.4 393.8 315.4 400.8 252.1 400.8 252.1 393.8"/>
  <line class="st1" x1="782.1" y1="1393.1" x2="853.9" y2="1393.1"/>
  <line class="st1" x1="1775.7" y1="1130" x2="1847.7" y2="1130"/>
  <line class="st1" x1="781.9" y1="400.7" x2="854" y2="400.7"/>
  <line class="st1" x1="1775.7" y1="468.4" x2="1847.7" y2="468.4"/>
  <line class="st1" x1="450.8" y1="468.6" x2="522.8" y2="468.6"/>
  <polyline class="st1" points="1368.6 1460.8 1436.4 1460.8 1436.5 1460.8"/>
  <polyline class="st1" points="1037.7 1393.1 1106.2 1393.1 1106.3 1393.1"/>
  <polyline class="st1" points="706.5 1461.1 775.1 1461.1 775.1 1461.1"/>
  <polyline class="st1" points="1700.4 1393.1 1769 1393.1 1769.1 1393.1"/>
  <polyline class="st1" points="375.4 1393.3 443.9 1393.3 444 1393.3"/>
  <polyline class="st1" points="1112.5 1460.5 1183.7 1460.8 1184.9 1460.8"/>
  <polyline class="st1" points="1444.7 1392.9 1515.3 1393.1 1516.7 1393.1"/>
  <polyline class="st1" points="119.2 1393.1 190.3 1393.3 191.7 1393.3"/>
  <polyline class="st1" points="119.8 731.5 190.4 731.7 191.8 731.7"/>
  <polyline class="st1" points="119.6 400.6 190.4 400.8 191.8 400.8"/>
  <line class="st1" x1="1368.6" y1="1136.9" x2="1301.7" y2="1136.8"/>
  <line class="st1" x1="1037.7" y1="1069.3" x2="970.7" y2="1069.2"/>
  <line class="st1" x1="706.5" y1="1137.2" x2="639.5" y2="1137.2"/>
  <line class="st1" x1="1700.4" y1="1069.2" x2="1633.5" y2="1069.1"/>
  <line class="st1" x1="375.4" y1="1069.4" x2="308.5" y2="1069.4"/>
  <line class="st1" x1="1368.6" y1="475.3" x2="1301.7" y2="475.2"/>
  <line class="st1" x1="1037.7" y1="407.7" x2="970.7" y2="407.6"/>
  <line class="st1" x1="2031.4" y1="475.4" x2="1964.5" y2="475.4"/>
  <line class="st1" x1="706.5" y1="475.6" x2="639.6" y2="475.5"/>
  <line class="st1" x1="1700.4" y1="407.6" x2="1633.5" y2="407.5"/>
  <line class="st1" x1="375.5" y1="407.8" x2="308.6" y2="407.7"/>
  <line class="st1" x1="1368.6" y1="806" x2="1301.7" y2="805.9"/>
  <line class="st1" x1="1037.7" y1="738.4" x2="970.7" y2="738.3"/>
  <line class="st1" x1="2031.4" y1="806.2" x2="1964.5" y2="806.1"/>
  <line class="st1" x1="706.5" y1="806.4" x2="639.5" y2="806.3"/>
  <line class="st1" x1="1700.4" y1="738.3" x2="1633.5" y2="738.3"/>
  <line class="st1" x1="375.4" y1="738.6" x2="308.5" y2="738.5"/>
  <line class="st1" x1="1368.7" y1="144.4" x2="1301.7" y2="144.3"/>
  <line class="st1" x1="1037.8" y1="76.8" x2="970.8" y2="76.7"/>
  <line class="st1" x1="2031.4" y1="144.6" x2="1964.5" y2="144.5"/>
  <line class="st1" x1="706.5" y1="144.7" x2="639.6" y2="144.6"/>
  <line class="st1" x1="1700.4" y1="76.7" x2="1633.5" y2="76.7"/>
  <line class="st1" x1="375.5" y1="76.9" x2="308.6" y2="76.9"/>
  <line class="st1" x1="1106.4" y1="199.1" x2="1113" y2="199.1"/>
  <polyline class="st1" points="1437.4 654.9 1437.4 655.1 1437.4 665 1444.5 665"/>
  <polyline class="st1" points="1106.4 530 1106.4 597.4 1113.5 597.4"/>
  <polyline class="st1" points="1106.4 860.7 1106.4 928.1 1113.5 928.1"/>
  <polyline class="st1" points="775.2 198.7 781.9 198.7 781.8 208.9"/>
  <line class="st1" x1="2100.1" y1="654.7" x2="2100.1" y2="664.8"/>
  <line class="st1" x1="1106.3" y1="664.8" x2="1106.3" y2="665"/>
  <line class="st1" x1="775.3" y1="723" x2="775.3" y2="723.5"/>
  <line class="st1" x1="775.1" y1="1055.3" x2="775.1" y2="1130.6"/>
  <polyline class="st1" points="1971.3 1123 2031.4 1123 2031.4 1130 2100 1129.9 2100.1 1054"/>
  <polyline class="st1" points="2100.1 654.7 2100.3 597 2106.9 597 2107.1 539.6 2100 539.6 2100.1 392.2"/>
  <polyline class="st1" points="782 870.8 775 870.8 775.2 723.2"/>
  <polyline class="st1" points="450.8 141.2 444.1 141.2 444.1 70.4"/>
  <polyline class="st1" points="1775.7 199 1775.7 140.9 1769.2 140.9 1769 70.1"/>
  <polyline class="st1" points="1113.5 1317.2 1113.5 1259 1106.4 1259 1106.4 1191.6"/>
  <polyline class="st1" points="1437.3 1461.1 1437.3 1384.6 1444.6 1384.6"/>
  <polyline class="st1" points="775.1 1461 775.1 1384.9 782.1 1384.9"/>
  <polyline class="st1" points="444.1 1393.4 444.2 1317.3 450.7 1317.3"/>
  <polyline class="st1" points="1775.7 802.5 1769.1 802.5 1769.2 655.5 1775.7 655.5"/>
  <polyline class="st1" points="450.7 802.8 444 802.8 444.2 732 444 655.6 450.8 655.6"/>
  <line class="st1" x1="781.9" y1="918.5" x2="782" y2="918.5"/>
  <polyline class="st1" points="1769.2 1191.5 1775.7 1191.5 1775.7 1133.4 1769.1 1133.5 1769.2 986.2 1775.7 986.2"/>
  <polyline class="st1" points="450.7 1133.6 444 1133.7 444.1 1062.8 444.1 986.3 450.7 986.3"/>
  <polyline class="st1" points="1112.9 471.9 1106.3 472 1106.4 401 1106.4 324.5 1113.4 324.5"/>
  <polyline class="st1" points="781.9 539.8 775.2 539.8 775.3 392.6 782.4 392.6"/>
  <line class="st1" x1="119.7" y1="1191.5" x2="112.6" y2="1191.5"/>
  <line class="st1" x1="119.8" y1="529.8" x2="112.7" y2="529.8"/>
  <line class="st1" x1="119.7" y1="860.6" x2="112.6" y2="860.6"/>
  <line class="st1" x1="1444.7" y1="198.8" x2="1437.6" y2="198.8"/>
  <polyline class="st1" points="1106.3 1393.1 1106.4 1317.2 1113.5 1317 1113.5 1326.5 1106.4 1326.5 1106.3 1326.5"/>
  <polyline class="st1" points="775 1191.2 781.9 1191.3 781.9 1258.8 775.3 1258.8 775.3 1327 782.1 1327"/>
  <polyline class="st1" points="1769.1 1393.1 1769.2 1317.1 1775.7 1317.1 1775.7 1259.1 1769.2 1258.9 1769.2 1191.5"/>
  <polyline class="st1" points="444.2 1191.7 444.2 1259.1 450.7 1259.3 450.7 1326.7 444 1326.7"/>
  <polyline class="st1" points="1113.5 655.6 1113.6 597.4 1113.6 598.1"/>
  <polyline class="st1" points="1112.9 802.6 1106.3 802.6 1106.4 731.9 1106.4 655.4 1113.6 655.5 1113.6 655.6 1113.6 664.8 1106.5 664.8"/>
  <polyline class="st1" points="775.2 529.6 781.9 529.7 781.9 597.2 775.3 597.2 775.3 664.8"/>
  <polyline class="st1" points="1769.2 529.9 1769.2 597.3 1775.7 597.5 1775.7 664.9 1769 664.9"/>
  <polyline class="st1" points="444.3 530.1 444.3 597.5 450.8 597.6 450.8 665.1 444.2 665.1"/>
  <polyline class="st1" points="1113.5 986.3 1113.5 928.2 1113.5 928.7"/>
  <polyline class="st1" points="1112.9 1133.5 1106.3 1133.6 1106.4 1062.6 1106.4 986.3 1113.5 986.3 1113.5 986.8 1113.5 995.7 1106.4 995.7"/>
  <polyline class="st1" points="775.1 860.4 781.9 860.4 781.9 927.9 775.1 927.9 775.1 996.4"/>
  <polyline class="st1" points="1769.2 860.7 1769.2 928 1775.7 928.2 1775.7 986.3"/>
  <polyline class="st1" points="1775.7 986.3 1775.7 995.7 1769 995.7"/>
  <polyline class="st1" points="444.2 860.9 444.2 928.3 450.7 928.4 450.7 995.9 444.1 995.9"/>
  <polyline class="st1" points="1106.5 199.1 1106.5 266.5 1113.6 266.5 1113.5 333.9 1106.4 333.9"/>
  <polyline class="st1" points="1769.2 199 1769.2 266.4 1775.7 266.6 1775.7 334 1769.1 334"/>
  <polyline class="st1" points="1112.9 798.9 1112.9 802.8 1112.9 860.7"/>
  <line class="st1" x1="450.8" y1="1454.1" x2="450.8" y2="1461.2"/>
  <line class="st1" x1="1444.7" y1="1386.1" x2="1444.7" y2="1392.9"/>
  <line class="st1" x1="119.7" y1="1386.3" x2="119.7" y2="1393.4"/>
  <line class="st1" x1="1444.7" y1="724.5" x2="1444.7" y2="731.5"/>
  <line class="st1" x1="119.8" y1="724.7" x2="119.8" y2="731.7"/>
  <polyline class="st1" points="775 1133.4 782.1 1133.4 781.9 1062.1"/>
  <polyline class="st1" points="1437.6 1133.2 1444.7 1133.2 1444.7 1062.1"/>
  <polyline class="st1" points="775.2 471.7 781.9 471.7 781.9 324.1 775.3 324.1"/>
  <polyline class="st1" points="775.1 802.4 782.2 802.4 781.9 731.3"/>
  <polyline class="st1" points="112.6 1191.5 112.6 1133.4 119.7 1133.4 119.7 1062.3"/>
  <polyline class="st1" points="112.7 529.8 112.7 471.8 119.8 471.8 119.8 400.7 119.8 393.8"/>
  <polyline class="st1" points="112.6 860.6 112.6 802.5 119.7 802.5 119.7 731.4"/>
  <polyline class="st1" points="1444.7 1326.6 1437.6 1326.5 1437.6 1258.7 1444.7 1258.7 1444.7 1191.2"/>
  <polyline class="st1" points="112.6 1317.1 112.6 1258.9 119.7 1258.9 119.7 1191.5"/>
  <polyline class="st1" points="1437.6 655.3 1437.6 597.1 1444.7 597.1 1444.7 529.6"/>
  <polyline class="st1" points="112.7 655.5 112.7 597.3 119.8 597.3 119.8 529.8"/>
  <polyline class="st1" points="1444.7 995.7 1437.6 995.7 1437.6 927.8 1444.7 927.8 1444.7 860.4"/>
  <polyline class="st1" points="112.6 986.2 112.6 928 119.7 928 119.7 860.6"/>
  <polyline class="st1" points="1444.8 334.1 1437.6 334.1 1437.6 266.2 1444.7 266.2 1444.7 198.8"/>
  <polyline class="st1" points="1113 1460.8 1113 1384 1106.3 1384"/>
  <polyline class="st1" points="782.1 1393.2 782.1 1316.4 775.3 1316.4"/>
  <polyline class="st1" points="450.8 1456.1 450.8 1384.4 444 1384.4"/>
  <polyline class="st1" points="1444.7 1388 1444.7 1316.3 1437.6 1316.3"/>
  <polyline class="st1" points="119.7 1388.2 119.7 1316.5 112.6 1316.5"/>
  <polyline class="st1" points="1444.7 726.4 1444.7 654.7 1437.6 654.7"/>
  <polyline class="st1" points="119.8 726.6 119.8 654.9 112.7 654.9"/>
  <polyline class="st1" points="119.7 1057.4 119.7 985.7 112.6 985.7"/>
  <polyline class="st1" points="1437.6 471.6 1444.7 471.5 1444.7 323.8 1437.6 323.8"/>
  <polyline class="st1" points="119.8 395.8 119.8 324.1 112.7 324.1"/>
  <polyline class="st1" points="1243.3 1136.9 1182.1 1136.9 1182.1 1129.8 1184.9 1129.9"/>
  <polyline class="st1" points="912.4 1069.3 851.2 1069.3 851.2 1062.2 854 1062.3"/>
  <polyline class="st1" points="581.2 1137.2 519.9 1137.2 519.9 1130.2 522.7 1130.2"/>
  <polyline class="st1" points="1575.1 1069.2 1513.9 1069.2 1513.9 1062.1"/>
  <polyline class="st1" points="250.2 1069.4 188.9 1069.4 188.9 1062.3 191.7 1062.3"/>
  <polyline class="st1" points="1243.3 475.3 1182.1 475.3 1182.1 468.2"/>
  <polyline class="st1" points="912.4 407.7 851.2 407.7 851.2 400.6"/>
  <polyline class="st1" points="581.2 475.6 520 475.6 520 468.5"/>
  <polyline class="st1" points="1575.1 407.6 1513.9 407.6 1513.9 400.5"/>
  <polyline class="st1" points="250.2 407.8 189 407.8 189 400.7"/>
  <polyline class="st1" points="1243.3 806 1182.1 806 1182.1 798.9"/>
  <polyline class="st1" points="912.4 738.4 851.2 738.4 851.2 731.3"/>
  <polyline class="st1" points="1906.2 806.2 1844.9 806.2 1844.9 799.1"/>
  <polyline class="st1" points="581.2 806.4 519.9 806.4 519.9 799.3"/>
  <polyline class="st1" points="1575.1 738.3 1513.9 738.3 1513.9 731.3"/>
  <polyline class="st1" points="250.2 738.6 188.9 738.6 188.9 731.5"/>
  <polyline class="st1" points="1243.4 144.4 1182.2 144.4 1182.2 137.3"/>
  <polyline class="st1" points="912.5 76.8 851.2 76.8 851.2 69.9"/>
  <polyline class="st1" points="1906.2 144.6 1844.9 144.6 1844.9 137.5"/>
  <polyline class="st1" points="581.2 144.7 520 144.7 520 137.6"/>
  <polyline class="st1" points="1575.1 76.7 1513.9 76.7 1513.9 69.6"/>
  <polyline class="st1" points="250.2 76.9 189 76.9 189 69.9"/>
  <line class="st1" x1="1182.1" y1="1129.9" x2="1112.9" y2="1129.9"/>
  <polyline class="st1" points="519.9 1130.3 450.8 1130.3 450.7 1053.5 444.2 1053.4"/>
  <polyline class="st1" points="1577 1055.2 1516.7 1055.2 1516.6 1062.1 1444.7 1062.1 1444.7 995.7"/>
  <polyline class="st1" points="2100.1 1054 2106.9 1054 2107.1 995.6 2100 995.6 2100 985.2"/>
  <polyline class="st1" points="1444.7 995.7 1444.7 985.4 1437.6 985.4"/>
  <polyline class="st1" points="188.9 1062.3 119.8 1062.3 119.7 1055.4"/>
  <polyline class="st1" points="1577 393.6 1516.7 393.6 1516.7 400.5 1444.7 400.5"/>
  <polyline class="st1" points="1245.2 792.1 1184.9 792.1 1184.9 798.9 1113 798.9 1112.9 722.4 1106.5 722.5"/>
  <polyline class="st1" points="914.2 724.5 853.9 724.5 853.9 731.3 781.9 731.3 781.9 654.8 775.3 654.9"/>
  <polyline class="st1" points="1908 792.3 1847.7 792.3 1847.7 799.1 1775.8 799.1 1775.7 722.5 1769.1 722.5"/>
  <polyline class="st1" points="583.1 792.4 522.8 792.4 522.8 799.3 450.8 799.3 450.8 722.7 444.2 722.8"/>
  <polyline class="st1" points="1516.6 731.3 1444.7 731.3 1444.7 802.3 1437.6 802.3"/>
  <polyline class="st1" points="1182.2 137.5 1113 137.5 1113 208.4 1106.4 208.4"/>
  <polyline class="st1" points="851.2 69.9 782.1 69.9 782 140.8 775.1 140.8"/>
  <line class="st1" x1="1845" y1="137.6" x2="1775.8" y2="137.6"/>
  <polyline class="st1" points="1513.9 69.6 1444.7 69.6 1444.7 140.7 1437.6 140.7"/>
  <polyline class="st1" points="189 69.9 119.8 69.9 119.8 140.9 112.7 140.9 112.7 199"/>
  <line class="st1" x1="1301.7" y1="1129.7" x2="1301.7" y2="1136.8"/>
  <line class="st1" x1="970.7" y1="1062.1" x2="970.7" y2="1069.2"/>
  <line class="st1" x1="639.5" y1="1130.1" x2="639.5" y2="1137.2"/>
  <line class="st1" x1="1633.5" y1="1062.1" x2="1633.5" y2="1069.1"/>
  <line class="st1" x1="308.5" y1="1062.3" x2="308.5" y2="1069.4"/>
  <line class="st1" x1="1301.7" y1="468.1" x2="1301.7" y2="475.2"/>
  <line class="st1" x1="970.7" y1="400.5" x2="970.7" y2="407.6"/>
  <line class="st1" x1="1964.5" y1="468.3" x2="1964.5" y2="475.4"/>
  <line class="st1" x1="639.6" y1="468.4" x2="639.6" y2="475.5"/>
  <line class="st1" x1="1633.5" y1="400.5" x2="1633.5" y2="407.5"/>
  <line class="st1" x1="308.6" y1="400.7" x2="308.6" y2="407.7"/>
  <line class="st1" x1="1301.7" y1="798.9" x2="1301.7" y2="805.9"/>
  <line class="st1" x1="970.7" y1="731.3" x2="970.7" y2="738.3"/>
  <line class="st1" x1="1964.5" y1="799.4" x2="1964.5" y2="806.1"/>
  <line class="st1" x1="639.5" y1="799.4" x2="639.5" y2="806.3"/>
  <line class="st1" x1="1633.5" y1="731.5" x2="1633.5" y2="738.3"/>
  <line class="st1" x1="308.5" y1="731.4" x2="308.5" y2="738.5"/>
  <polyline class="st1" points="1368.6 1136.9 1368.6 1129.8 1437.6 1129.8"/>
  <polyline class="st1" points="1037.7 1069.3 1037.7 1062.2 1106.3 1062.2"/>
  <polyline class="st1" points="706.5 1137.2 706.5 1130.2 775.1 1130.2 775.1 1201.7 781.8 1201.7"/>
  <polyline class="st1" points="1700.4 1069.2 1700.4 1062.1 1769 1062.1"/>
  <polyline class="st1" points="375.4 1069.4 375.4 1062.3 444 1062.3"/>
  <polyline class="st1" points="1368.6 475.3 1368.6 468.2 1437.5 468.2"/>
  <polyline class="st1" points="1037.7 407.7 1037.7 400.6 1106.3 400.6"/>
  <polyline class="st1" points="2031.4 475.4 2031.4 468.3 2100 468.3"/>
  <polyline class="st1" points="706.5 475.6 706.5 468.5 775.1 468.5"/>
  <polyline class="st1" points="1700.4 407.6 1700.4 400.5 1769 400.5"/>
  <polyline class="st1" points="375.5 407.8 375.5 400.7 444.1 400.7"/>
  <polyline class="st1" points="1368.6 806 1368.6 798.9 1437.2 798.9"/>
  <polyline class="st1" points="1037.7 738.4 1037.7 731.3 1106.3 731.3"/>
  <polyline class="st1" points="2031.4 806.2 2031.4 799.1 2100 799.1"/>
  <polyline class="st1" points="706.5 806.4 706.5 799.3 775.1 799.3"/>
  <polyline class="st1" points="1700.4 738.3 1700.4 731.3 1769 731.3"/>
  <polyline class="st1" points="375.4 738.6 375.4 731.5 444 731.5"/>
  <polyline class="st1" points="1368.7 144.4 1368.7 137.3 1437.6 137.3 1437.6 208.9 1444.6 208.9"/>
  <polyline class="st1" points="1037.8 76.8 1037.8 69.7 1106.4 69.7 1106.4 140.9 1113 141"/>
  <polyline class="st1" points="2100.2 392.4 2106.9 392.4 2106.9 334.3 2100.3 334.3"/>
  <polyline class="st1" points="2100.3 266.1 2100.3 266.4 2100.3 334.3"/>
  <line class="st1" x1="2106.7" y1="266.1" x2="2100.3" y2="266.1"/>
  <line class="st1" x1="2106.7" y1="208.8" x2="2106.7" y2="266.1"/>
  <line class="st1" x1="2100" y1="208.8" x2="2106.7" y2="208.8"/>
  <polyline class="st1" points="2031.4 144.6 2031.4 137.5 2100 137.5 2100 208.8"/>
  <polyline class="st1" points="706.5 144.7 706.5 137.6 775.1 137.6 775.1 209 781.8 208.9 781.8 266.3 775.3 266.3 775.4 266.7 775.4 334.4 782 334.4"/>
  <polyline class="st1" points="1700.4 76.7 1700.4 69.6 1769 69.6"/>
  <polyline class="st1" points="375.5 76.9 375.5 69.9 444.1 69.9"/>
  <line class="st1" x1="1243.3" y1="1136.9" x2="1243.3" y2="1129.8"/>
  <line class="st1" x1="912.4" y1="1069.3" x2="912.4" y2="1062.2"/>
  <line class="st1" x1="581.2" y1="1137.2" x2="581.2" y2="1130.2"/>
  <line class="st1" x1="1575.1" y1="1069.2" x2="1575.1" y2="1062.1"/>
  <line class="st1" x1="250.2" y1="1069.4" x2="250.2" y2="1062.3"/>
  <line class="st1" x1="1243.3" y1="475.3" x2="1243.3" y2="468.2"/>
  <line class="st1" x1="912.4" y1="407.7" x2="912.4" y2="400.6"/>
  <line class="st1" x1="581.2" y1="475.6" x2="581.2" y2="468.5"/>
  <line class="st1" x1="1575.1" y1="407.6" x2="1575.1" y2="400.5"/>
  <line class="st1" x1="250.2" y1="407.8" x2="250.2" y2="400.7"/>
  <line class="st1" x1="1243.3" y1="806" x2="1243.3" y2="798.9"/>
  <line class="st1" x1="912.4" y1="738.4" x2="912.4" y2="731.5"/>
  <line class="st1" x1="1906.2" y1="806.2" x2="1906.2" y2="799.1"/>
  <line class="st1" x1="581.2" y1="806.4" x2="581.2" y2="799.4"/>
  <line class="st1" x1="1575.1" y1="738.3" x2="1575.1" y2="731.5"/>
  <line class="st1" x1="250.2" y1="738.6" x2="250.2" y2="731.6"/>
  <polyline class="st1" points="1243.4 144.4 1243.4 137.3 1301.7 137.3 1301.7 144.3"/>
  <polyline class="st1" points="912.5 76.8 912.5 69.7 970.8 69.7 970.8 76.7"/>
  <polyline class="st1" points="1906.2 144.6 1906.2 137.5 1964.5 137.5 1964.5 144.5"/>
  <polyline class="st1" points="581.2 144.7 581.2 137.6 639.6 137.6 639.6 144.6"/>
  <polyline class="st1" points="1575.1 76.7 1575.1 69.6 1633.5 69.6 1633.5 76.7"/>
  <polyline class="st1" points="250.2 76.9 250.2 69.9 308.6 69.9 308.6 76.9"/>
  <line class="st1" x1="775.3" y1="664.8" x2="781.9" y2="664.8"/>
  <line class="st1" x1="775.3" y1="723.2" x2="781.9" y2="723.2"/>
</svg>